<svg width="64" height="64" viewBox="0 0 64 64" fill="none" xmlns="http://www.w3.org/2000/svg">
<g clip-path="url(#clip0_63:2203)">
<path d="M9.04726 3.23131L5.50639 7.74156C-0.732613 15.6889 -0.0512377 27.0443 7.09314 34.1888L29.8113 56.9069C36.9556 64.0513 48.3111 64.7327 56.2585 58.4937L60.7688 54.9531C63.2119 53.0352 63.4291 49.4132 61.2329 47.2169L51.3339 37.3179C49.3113 35.2953 46.032 35.2953 44.0093 37.3179L40.7888 40.5384C39.268 42.0592 36.8026 42.0592 35.2819 40.5384L23.4539 28.7104C21.9331 27.1897 21.9331 24.7243 23.4539 23.2036L26.6744 19.9831C28.697 17.9604 28.697 14.6812 26.6744 12.6584L16.7834 2.76744C14.587 0.571063 10.9651 0.788313 9.04726 3.23131Z" fill="#F7B199"/>
<path d="M51.3337 37.3177C49.3111 35.2951 46.0318 35.2951 44.0091 37.3177L40.7886 40.5382C40.751 40.5759 40.7123 40.6119 40.6736 40.6476L57.5252 57.4992L60.7686 54.953C63.2117 53.0351 63.4289 49.4131 61.2327 47.2169L51.3337 37.3177Z" fill="#FCD8C9"/>
<path d="M16.7832 2.7671C14.5871 0.570979 10.9651 0.788229 9.04723 3.23123L6.50098 6.47473L23.3445 23.3182C23.3802 23.2795 23.4162 23.2409 23.4539 23.2032L26.6744 19.9827C28.697 17.9601 28.697 14.6809 26.6744 12.6581L16.7832 2.7671Z" fill="#FCD8C9"/>
<path d="M62.117 46.3332L52.2179 36.434C49.7109 33.9272 45.6321 33.9272 43.1254 36.434L39.9049 39.6547C38.8739 40.6855 37.1966 40.6855 36.166 39.6547L24.3378 27.8265C23.3068 26.7957 23.3068 25.1184 24.3378 24.0877L27.5583 20.8672C28.7727 19.6528 29.4413 18.0383 29.4413 16.3209C29.4413 14.6035 28.7726 12.989 27.5583 11.7747L17.6673 1.88366C16.3678 0.58416 14.5706 -0.0974646 12.7361 0.0120354C10.9017 0.122035 9.19872 1.01429 8.06397 2.45979L4.52334 6.97004C-2.09991 15.4069 -1.37516 27.4887 6.20934 35.073L28.9275 57.791C33.0416 61.905 38.4769 64.0008 43.9376 64.0003C48.5445 63.9999 53.17 62.5078 57.0304 59.477L61.5407 55.9364C62.9862 54.8015 63.8784 53.0987 63.9885 51.2642C64.0986 49.4299 63.4165 47.6325 62.117 46.3332ZM61.4927 51.1147C61.4255 52.2358 60.8804 53.2764 59.9969 53.97L57.608 55.8454L50.1102 48.3477C49.6221 47.8597 48.8305 47.8597 48.3422 48.3477C47.8541 48.8358 47.8541 49.6274 48.3422 50.1157L55.6271 57.4005L55.4867 57.5107C48.044 63.3537 37.3863 62.7142 30.6955 56.0234L7.97722 33.3052C1.28659 26.6145 0.64709 15.9565 6.48984 8.51391L10.0305 4.00366C10.7238 3.12029 11.7647 2.57504 12.8857 2.50779C14.0078 2.44091 15.1052 2.85741 15.8993 3.65154L25.7903 13.5425C27.3223 15.0744 27.3223 17.5673 25.7903 19.099L23.3363 21.553L14.3861 12.6028C13.898 12.1147 13.1063 12.1147 12.6181 12.6028C12.13 13.0909 12.13 13.8825 12.6181 14.3708L21.7096 23.4623C20.6256 25.4184 20.9112 27.9362 22.5697 29.5944L34.3979 41.4225C36.4034 43.4279 39.6667 43.428 41.6726 41.4225L44.8931 38.2019C46.4251 36.6698 48.9179 36.6698 50.4497 38.2019L60.3487 48.101C61.1431 48.8953 61.56 49.9937 61.4927 51.1147Z" fill="#231F20"/>
<path d="M45.9362 47.1912C45.6074 47.1912 45.2849 47.0574 45.0523 46.8248C44.8198 46.5924 44.686 46.2699 44.686 45.941C44.686 45.6122 44.8198 45.2898 45.0523 45.0572C45.2848 44.8247 45.6073 44.6909 45.9362 44.6909C46.2662 44.6909 46.5874 44.8245 46.82 45.0572C47.0527 45.2898 47.1863 45.6122 47.1863 45.941C47.1863 46.2699 47.0525 46.5923 46.82 46.8248C46.5874 47.0574 46.2649 47.1912 45.9362 47.1912Z" fill="#231F20"/>
<path d="M15.665 35.3341C15.335 35.3341 15.0138 35.2016 14.7799 34.9679C14.5474 34.7354 14.4149 34.413 14.4149 34.084C14.4149 33.7552 14.5474 33.4341 14.7799 33.2002C15.0124 32.9677 15.3349 32.8339 15.665 32.8339C15.9938 32.8339 16.3163 32.9676 16.5489 33.2002C16.7814 33.434 16.9152 33.7551 16.9152 34.084C16.9152 34.4141 16.7814 34.7352 16.5489 34.9679C16.3163 35.2016 15.9938 35.3341 15.665 35.3341Z" fill="#231F20"/>
<path d="M11.8725 31.5426C11.5526 31.5426 11.2326 31.4206 10.9885 31.1765L10.1136 30.3016C6.55151 26.7394 5.16051 21.5059 6.48376 16.6436C6.66501 15.9775 7.35164 15.5839 8.01826 15.7656C8.68439 15.9469 9.07751 16.634 8.89626 17.3001C7.80789 21.2995 8.95189 25.6039 11.8818 28.5336L12.7566 29.4085C13.2448 29.8966 13.2448 30.6883 12.7566 31.1765C12.5124 31.4206 12.1924 31.5426 11.8725 31.5426Z" fill="#231F20"/>
<path d="M62.7498 26.976C62.0594 26.976 61.4997 26.4164 61.4997 25.7259C61.4997 12.9191 51.0807 2.50012 38.2739 2.50012C37.5836 2.50012 37.0238 1.9405 37.0238 1.25C37.0238 0.5595 37.5836 0 38.2741 0C52.4594 0 63.9999 11.5406 63.9999 25.726C63.9999 26.4164 63.4403 26.976 62.7498 26.976Z" fill="#231F20"/>
<path d="M54.1472 26.9759C53.4568 26.9759 52.897 26.4163 52.897 25.7258C52.897 17.6627 46.3373 11.1029 38.2742 11.1029C37.5838 11.1029 37.024 10.5433 37.024 9.85279C37.024 9.16241 37.5837 8.60266 38.2742 8.60266C47.7158 8.60266 55.3973 16.284 55.3973 25.7258C55.3973 26.4163 54.8375 26.9759 54.1472 26.9759Z" fill="#231F20"/>
<path d="M45.077 26.976C44.3867 26.976 43.8269 26.4164 43.8269 25.7259C43.8269 22.664 41.3359 20.1731 38.2742 20.1731C37.5838 20.1731 37.024 19.6135 37.024 18.923C37.024 18.2325 37.5837 17.6729 38.2742 17.6729C42.7147 17.6729 46.3272 21.2854 46.3272 25.7259C46.3272 26.4164 45.7674 26.976 45.077 26.976Z" fill="#231F20"/>
</g>
<defs>
<clipPath id="clip0_63:2203">
<rect width="64" height="64" fill="white"/>
</clipPath>
</defs>
</svg>
