<svg width="79" height="79" viewBox="0 0 79 79" fill="none" xmlns="http://www.w3.org/2000/svg">
<g clip-path="url(#clip0_63:2154)">
<path d="M77.611 54.7791C77.611 57.0796 75.7445 58.9461 73.4439 58.9461H14.9319C12.6313 58.9461 10.7648 57.0796 10.7648 54.7791V17.2758C10.7648 14.9752 12.6313 13.1088 14.9319 13.1088H48.4418C50.7423 13.1088 52.6088 14.9752 52.6088 17.2758V32.5549H61.1165V40.0208C61.1165 42.3214 62.983 44.1879 65.2835 44.1879H77.5155C77.6471 44.8739 77.611 44.383 77.611 54.7791Z" fill="#F7B199"/>
<path d="M77.6109 54.7791C77.6109 57.0797 75.7445 58.9462 73.4439 58.9462H52.6088V32.5549H67.2107C69.046 32.5549 70.7649 33.463 71.7997 34.9788L76.6438 42.0766C77.0796 42.7156 77.3766 43.4361 77.5155 44.1879C77.6471 44.8739 77.6109 44.3831 77.6109 54.7791Z" fill="#F6A188"/>
<path d="M77.5155 44.1879H65.2835C62.9829 44.1879 61.1165 42.3214 61.1165 40.0209V32.5549H67.2107C69.046 32.5549 70.7649 33.463 71.7997 34.9788L76.6439 42.0766C77.0797 42.7156 77.3766 43.4361 77.5155 44.1879Z" fill="#FCD8C9"/>
<path d="M48.4308 20.0538H36.0709C25.9304 20.0538 17.7099 28.2743 17.7099 38.4148V54.7682C17.7099 59.2946 10.7648 59.5118 10.7648 54.7791V17.2758C10.7648 14.9744 12.6304 13.1088 14.9319 13.1088H48.4418C53.1745 13.1088 52.9573 20.0538 48.4308 20.0538Z" fill="#FCD8C9"/>
<path d="M65.978 65.8912C69.8137 65.8912 72.9231 62.7818 72.9231 58.9462C72.9231 55.1105 69.8137 52.0011 65.978 52.0011C62.1424 52.0011 59.033 55.1105 59.033 58.9462C59.033 62.7818 62.1424 65.8912 65.978 65.8912Z" fill="#F16F56"/>
<path d="M24.3077 65.8912C28.1433 65.8912 31.2527 62.7818 31.2527 58.9462C31.2527 55.1105 28.1433 52.0011 24.3077 52.0011C20.472 52.0011 17.3626 55.1105 17.3626 58.9462C17.3626 62.7818 20.472 65.8912 24.3077 65.8912Z" fill="#F16F56"/>
<path d="M77.5155 44.1879C77.4775 44.1879 65.2738 44.1881 65.236 44.1876C63.6719 44.1701 63.3641 41.9508 64.8583 41.4882C67.3863 40.7059 69.4068 39.0554 70.7325 36.858C71.2487 36.0023 72.4835 35.9799 73.0467 36.8052C76.9021 42.455 77.2419 42.7074 77.5155 44.1879Z" fill="#F16F56"/>
<path d="M52.6088 32.5549H55.4302V58.9462H52.6088V32.5549Z" fill="#FCD8C9"/>
<path d="M68.8217 55.4799C65.5408 55.786 62.8182 58.5097 62.5121 61.7902C62.3866 63.136 60.619 63.565 59.9471 62.3921C59.2981 61.2591 58.9592 59.9254 59.0463 58.5076C59.3575 53.4469 64.9406 50.3478 69.4235 52.9151C70.5965 53.5867 70.1673 55.3544 68.8217 55.4799Z" fill="#FCD8C9"/>
<path d="M27.1513 55.4799C23.8705 55.786 21.1478 58.5097 20.8417 61.7902C20.7162 63.136 18.9487 63.565 18.2768 62.3921C17.6277 61.2591 17.2888 59.9254 17.376 58.5076C17.6871 53.4469 23.2703 50.3478 27.7531 52.9151C28.9261 53.5867 28.4969 55.3544 27.1513 55.4799Z" fill="#FCD8C9"/>
<mask id="path-11-inside-1_63:2154" fill="white">
<path d="M77.7912 41.2935L72.9467 34.1958C71.652 32.2986 69.5073 31.1659 67.2104 31.1659H57.8176C57.0505 31.1659 56.4286 31.7878 56.4286 32.5549C56.4286 33.322 57.0505 33.9439 57.8176 33.9439H59.7275V40.0208C59.7275 43.0845 62.2199 45.5769 65.2835 45.5769H69.4506C70.2176 45.5769 70.8396 44.9549 70.8396 44.1879C70.8396 43.4208 70.2176 42.7989 69.4506 42.7989H65.2835C63.7518 42.7989 62.5055 41.5526 62.5055 40.0208V33.9439H67.2104C68.5887 33.9439 69.8754 34.6235 70.6522 35.7619L75.4966 42.8594C75.9711 43.5548 76.222 44.3672 76.222 45.2088V57.5571H74.1942C73.5308 53.6208 70.1003 50.612 65.978 50.612C61.3825 50.612 57.644 54.3507 57.644 58.9461C57.644 63.5415 61.3825 67.2802 65.978 67.2802C70.1001 67.2802 73.5308 64.2714 74.1942 60.3351H77.611C78.3781 60.3351 79 59.7132 79 58.9461V45.2088C79 43.8062 78.5821 42.4523 77.7912 41.2935ZM65.978 64.5022C62.9144 64.5022 60.422 62.0097 60.422 58.9461C60.422 55.8825 62.9144 53.3901 65.978 53.3901C69.0417 53.3901 71.5341 55.8825 71.5341 58.9461C71.5341 62.0097 69.0417 64.5022 65.978 64.5022ZM53.9978 17.2758V51.6538C53.9978 52.4209 53.3759 53.0428 52.6088 53.0428C51.8417 53.0428 51.2198 52.4209 51.2198 51.6538V17.2758C51.2198 15.744 49.9735 14.4977 48.4418 14.4977H14.9319C13.4001 14.4977 12.1538 15.744 12.1538 17.2758V19.1857H17.8835C18.6506 19.1857 19.2725 19.8076 19.2725 20.5747C19.2725 21.3418 18.6506 21.9637 17.8835 21.9637H1.38901C0.62193 21.9637 0 21.3418 0 20.5747C0 19.8076 0.62193 19.1857 1.38901 19.1857H9.37582V17.2758C9.37582 14.2121 11.8682 11.7197 14.9319 11.7197H48.4418C51.5054 11.7197 53.9978 14.2121 53.9978 17.2758ZM49.6571 57.5571H32.5239C31.8604 53.6208 28.4299 50.612 24.3077 50.612C19.7122 50.612 15.9736 54.3507 15.9736 58.9461C15.9736 63.5415 19.7122 67.2802 24.3077 67.2802C28.4298 67.2802 31.8604 64.2714 32.5239 60.3351H49.6571C50.4242 60.3351 51.0462 59.7132 51.0462 58.9461C51.0462 58.179 50.4242 57.5571 49.6571 57.5571ZM24.3077 64.5022C21.2441 64.5022 18.7516 62.0097 18.7516 58.9461C18.7516 55.8825 21.2441 53.3901 24.3077 53.3901C27.3713 53.3901 29.8637 55.8825 29.8637 58.9461C29.8637 62.0097 27.3713 64.5022 24.3077 64.5022ZM5.20879 29.256C5.20879 28.4889 5.83072 27.867 6.5978 27.867H17.8835C18.6506 27.867 19.2725 28.4889 19.2725 29.256C19.2725 30.0231 18.6506 30.645 17.8835 30.645H6.5978C5.83072 30.645 5.20879 30.0231 5.20879 29.256ZM18.578 39.3263H12.7325C11.9655 39.3263 11.3435 38.7044 11.3435 37.9373C11.3435 37.1702 11.9655 36.5483 12.7325 36.5483H18.578C19.3451 36.5483 19.967 37.1702 19.967 37.9373C19.967 38.7044 19.3451 39.3263 18.578 39.3263ZM3.12527 36.5483H5.3246C6.09168 36.5483 6.71361 37.1702 6.71361 37.9373C6.71361 38.7044 6.09168 39.3263 5.3246 39.3263H3.12527C2.35819 39.3263 1.73626 38.7044 1.73626 37.9373C1.73626 37.1702 2.35819 36.5483 3.12527 36.5483ZM12.1538 46.6186V58.9461C12.1538 59.7132 11.5319 60.3351 10.7648 60.3351C9.99775 60.3351 9.37582 59.7132 9.37582 58.9461V48.0076H1.38901C0.62193 48.0076 0 47.3857 0 46.6186C0 45.8516 0.62193 45.2296 1.38901 45.2296H10.7648C11.5319 45.2296 12.1538 45.8516 12.1538 46.6186ZM22.0506 45.2296C22.8176 45.2296 23.4396 45.8516 23.4396 46.6186C23.4396 47.3857 22.8176 48.0076 22.0506 48.0076H18.0571C17.2901 48.0076 16.6681 47.3857 16.6681 46.6186C16.6681 45.8516 17.2901 45.2296 18.0571 45.2296H22.0506ZM22.7451 29.256C22.7451 28.4889 23.367 27.867 24.1341 27.867H26.2176C26.9847 27.867 27.6066 28.4889 27.6066 29.256C27.6066 30.0231 26.9847 30.645 26.2176 30.645H24.1341C23.367 30.645 22.7451 30.0231 22.7451 29.256Z"/>
</mask>
<path d="M77.7912 41.2935L72.9467 34.1958C71.652 32.2986 69.5073 31.1659 67.2104 31.1659H57.8176C57.0505 31.1659 56.4286 31.7878 56.4286 32.5549C56.4286 33.322 57.0505 33.9439 57.8176 33.9439H59.7275V40.0208C59.7275 43.0845 62.2199 45.5769 65.2835 45.5769H69.4506C70.2176 45.5769 70.8396 44.9549 70.8396 44.1879C70.8396 43.4208 70.2176 42.7989 69.4506 42.7989H65.2835C63.7518 42.7989 62.5055 41.5526 62.5055 40.0208V33.9439H67.2104C68.5887 33.9439 69.8754 34.6235 70.6522 35.7619L75.4966 42.8594C75.9711 43.5548 76.222 44.3672 76.222 45.2088V57.5571H74.1942C73.5308 53.6208 70.1003 50.612 65.978 50.612C61.3825 50.612 57.644 54.3507 57.644 58.9461C57.644 63.5415 61.3825 67.2802 65.978 67.2802C70.1001 67.2802 73.5308 64.2714 74.1942 60.3351H77.611C78.3781 60.3351 79 59.7132 79 58.9461V45.2088C79 43.8062 78.5821 42.4523 77.7912 41.2935ZM65.978 64.5022C62.9144 64.5022 60.422 62.0097 60.422 58.9461C60.422 55.8825 62.9144 53.3901 65.978 53.3901C69.0417 53.3901 71.5341 55.8825 71.5341 58.9461C71.5341 62.0097 69.0417 64.5022 65.978 64.5022ZM53.9978 17.2758V51.6538C53.9978 52.4209 53.3759 53.0428 52.6088 53.0428C51.8417 53.0428 51.2198 52.4209 51.2198 51.6538V17.2758C51.2198 15.744 49.9735 14.4977 48.4418 14.4977H14.9319C13.4001 14.4977 12.1538 15.744 12.1538 17.2758V19.1857H17.8835C18.6506 19.1857 19.2725 19.8076 19.2725 20.5747C19.2725 21.3418 18.6506 21.9637 17.8835 21.9637H1.38901C0.62193 21.9637 0 21.3418 0 20.5747C0 19.8076 0.62193 19.1857 1.38901 19.1857H9.37582V17.2758C9.37582 14.2121 11.8682 11.7197 14.9319 11.7197H48.4418C51.5054 11.7197 53.9978 14.2121 53.9978 17.2758ZM49.6571 57.5571H32.5239C31.8604 53.6208 28.4299 50.612 24.3077 50.612C19.7122 50.612 15.9736 54.3507 15.9736 58.9461C15.9736 63.5415 19.7122 67.2802 24.3077 67.2802C28.4298 67.2802 31.8604 64.2714 32.5239 60.3351H49.6571C50.4242 60.3351 51.0462 59.7132 51.0462 58.9461C51.0462 58.179 50.4242 57.5571 49.6571 57.5571ZM24.3077 64.5022C21.2441 64.5022 18.7516 62.0097 18.7516 58.9461C18.7516 55.8825 21.2441 53.3901 24.3077 53.3901C27.3713 53.3901 29.8637 55.8825 29.8637 58.9461C29.8637 62.0097 27.3713 64.5022 24.3077 64.5022ZM5.20879 29.256C5.20879 28.4889 5.83072 27.867 6.5978 27.867H17.8835C18.6506 27.867 19.2725 28.4889 19.2725 29.256C19.2725 30.0231 18.6506 30.645 17.8835 30.645H6.5978C5.83072 30.645 5.20879 30.0231 5.20879 29.256ZM18.578 39.3263H12.7325C11.9655 39.3263 11.3435 38.7044 11.3435 37.9373C11.3435 37.1702 11.9655 36.5483 12.7325 36.5483H18.578C19.3451 36.5483 19.967 37.1702 19.967 37.9373C19.967 38.7044 19.3451 39.3263 18.578 39.3263ZM3.12527 36.5483H5.3246C6.09168 36.5483 6.71361 37.1702 6.71361 37.9373C6.71361 38.7044 6.09168 39.3263 5.3246 39.3263H3.12527C2.35819 39.3263 1.73626 38.7044 1.73626 37.9373C1.73626 37.1702 2.35819 36.5483 3.12527 36.5483ZM12.1538 46.6186V58.9461C12.1538 59.7132 11.5319 60.3351 10.7648 60.3351C9.99775 60.3351 9.37582 59.7132 9.37582 58.9461V48.0076H1.38901C0.62193 48.0076 0 47.3857 0 46.6186C0 45.8516 0.62193 45.2296 1.38901 45.2296H10.7648C11.5319 45.2296 12.1538 45.8516 12.1538 46.6186ZM22.0506 45.2296C22.8176 45.2296 23.4396 45.8516 23.4396 46.6186C23.4396 47.3857 22.8176 48.0076 22.0506 48.0076H18.0571C17.2901 48.0076 16.6681 47.3857 16.6681 46.6186C16.6681 45.8516 17.2901 45.2296 18.0571 45.2296H22.0506ZM22.7451 29.256C22.7451 28.4889 23.367 27.867 24.1341 27.867H26.2176C26.9847 27.867 27.6066 28.4889 27.6066 29.256C27.6066 30.0231 26.9847 30.645 26.2176 30.645H24.1341C23.367 30.645 22.7451 30.0231 22.7451 29.256Z" fill="#231F20" stroke="black" stroke-width="2" mask="url(#path-11-inside-1_63:2154)"/>
</g>
<defs>
<clipPath id="clip0_63:2154">
<rect width="79" height="79" fill="white"/>
</clipPath>
</defs>
</svg>
