<svg width="144" height="49" viewBox="0 0 144 49" fill="none" xmlns="http://www.w3.org/2000/svg">
<path d="M74.3846 0.0302429C74.3846 0.0604712 74.3846 0.0906994 74.3846 0.120928C74.3546 0.181384 74.3246 0.241841 74.2947 0.302297C74.1747 0.755721 74.0547 0.816177 73.6348 0.634808C73.4848 0.574351 73.3648 0.513895 73.2449 0.453438C73.0649 0.362754 72.9149 0.392982 72.795 0.513895C72.735 0.544123 72.675 0.574351 72.615 0.574351C72.495 0.544123 72.435 0.483667 72.3451 0.42321C72.3151 0.392982 72.2851 0.362754 72.2551 0.332525C72.1951 0.241841 72.1351 0.151156 72.2251 0.0302429C72.9149 0.0302429 73.6348 0.0302429 74.3846 0.0302429Z" fill="#F8F8F8"/>
<path d="M72.1952 0.0302429C72.2252 0.120928 72.2552 0.241841 72.2852 0.332525C72.1652 0.42321 72.0752 0.362754 71.9853 0.272069C71.9253 0.211612 71.8353 0.151156 71.8953 0.0302429C71.9853 0.0302429 72.0752 0.0302429 72.1952 0.0302429Z" fill="#ECECEC"/>
<path d="M71.8955 0.0302283C71.9255 0.0906848 71.9555 0.151141 71.9855 0.211598C72.0155 0.241826 72.0155 0.272054 72.0155 0.272054C72.0155 0.302283 71.9855 0.302283 71.9855 0.302283C71.8355 0.241826 71.7755 0.0906848 71.6855 0C71.7455 0.0302283 71.8055 0.0302283 71.8955 0.0302283Z" fill="#6A6969"/>
<path d="M71.9853 0.332496C71.9853 0.302268 71.9853 0.27204 71.9853 0.211583C72.0753 0.241812 72.1953 0.27204 72.2853 0.332496C72.3753 0.423181 72.4652 0.513866 72.5852 0.574323C73.0051 0.846377 73.3651 1.23934 73.815 1.48117C73.9349 1.60208 74.0549 1.723 74.2049 1.78345C74.3248 1.84391 74.4748 1.90437 74.5948 1.96482C74.6248 1.96482 74.6548 1.99505 74.6548 1.99505C74.6848 1.99505 74.7148 1.99505 74.6548 1.96482C74.2049 1.63231 73.725 1.36026 73.3051 0.997518C73.1251 0.846377 72.9451 0.725464 72.8552 0.483638C72.8851 0.27204 73.0951 0.362725 73.1851 0.27204C73.3351 0.332496 73.485 0.453409 73.635 0.483638C73.845 0.513866 74.2949 0.937062 74.1149 0.211583C74.0549 -0.0302426 74.2949 0.120899 74.3848 0.0906704C74.4148 0.211583 74.5048 0.181355 74.5948 0.181355C74.7448 0.241812 74.8947 0.211583 75.0147 0.362725C75.8545 0.483638 76.4244 1.11843 77.2042 1.39049C77.8341 1.57186 78.434 1.60208 79.0639 1.66254C83.5629 2.05551 87.852 3.23441 91.8112 5.41084C92.741 5.92472 93.5808 6.58975 94.3907 7.25477C94.3607 7.46637 94.1807 7.58728 94.0307 7.70819C93.3109 8.40344 92.681 9.18938 91.8712 9.79394C91.2413 9.55212 90.7014 9.09869 90.1315 8.76618C89.6516 8.49413 89.1418 8.2523 88.6319 7.98025C88.4219 7.85933 88.2119 7.79888 87.972 7.98025C87.732 8.13139 87.6121 8.37321 87.4321 8.58481C87.1622 8.85686 86.9222 9.18938 86.7123 9.52189C86.2024 10.2776 85.9024 11.0938 85.9924 12.0006C86.1124 13.1493 86.7722 13.9654 87.5521 14.6909C87.942 15.0839 88.4219 15.3559 88.9018 15.628C89.2917 15.8698 89.3217 16.0512 88.9618 16.3535C88.6918 16.5651 88.4819 16.8069 88.212 17.0185C87.1922 17.8347 86.4423 18.8322 85.8424 20.0111C85.6025 20.5552 85.4225 21.1598 85.3925 21.7643C85.3925 22.0666 85.3625 22.3991 85.4525 22.7014C85.4825 23.0944 85.6925 23.4269 85.6325 23.8199C85.6025 23.9105 85.5425 23.971 85.4525 23.971C85.0026 23.6083 84.8826 23.0339 84.7027 22.5503C84.5527 22.1271 84.4627 21.7039 84.4327 21.2807C84.4627 20.6459 84.3428 20.0111 84.5527 19.4065C84.6727 19.1042 84.7327 18.802 84.8826 18.5299C85.2726 17.744 85.8124 17.0185 86.3823 16.3535C86.5923 16.0814 86.3223 15.9605 86.1724 15.8396C85.4825 15.1746 84.9426 14.4189 84.5527 13.5422C84.4027 13.119 84.2528 12.6959 84.2228 12.2727C84.0728 10.8217 84.5227 9.52189 85.3326 8.34299C85.5125 8.0407 85.7825 7.79888 85.9924 7.52682C86.2024 7.285 86.2024 7.13385 85.8424 7.0734C84.8527 6.8618 83.8629 6.61997 82.8731 6.58975C82.3632 6.46883 81.8533 6.40838 81.4634 6.89203C81.1034 7.34545 80.6535 7.76865 80.3836 8.31276C80.3536 8.34298 80.3236 8.40344 80.3236 8.43367C80.1136 8.70572 79.9937 9.00801 79.8437 9.34052C79.7837 9.52189 79.7237 9.70326 79.6937 9.88463C79.3638 11.3658 79.8137 12.6052 80.8935 13.6329C81.0434 13.7841 81.1934 13.9352 81.3434 14.0864C81.5533 14.3282 81.7933 14.5095 82.0632 14.6607C82.2732 14.8118 82.5131 14.9327 82.7531 15.0839C83.203 15.4164 83.233 15.4769 82.8131 15.8396C82.1532 16.4139 81.5233 17.0487 80.8935 17.6835C80.7135 17.8649 80.5336 18.0765 80.3836 18.2881C80.2336 18.4694 80.1136 18.6508 79.9937 18.8322C79.9037 18.9531 79.8137 19.1042 79.7537 19.2252C79.5738 19.5879 79.3638 19.9204 79.2738 20.3134C79.1538 20.6459 79.0639 20.9784 79.0339 21.3411C78.9139 22.2178 79.1238 23.0641 79.3038 23.9105C79.2738 24.0315 79.2438 24.1221 79.1238 24.1524C78.9439 24.0919 78.8539 23.9105 78.7639 23.7594C77.5342 21.2807 77.6242 18.9229 79.3638 16.686C79.4538 16.5651 79.5738 16.4744 79.6337 16.3535C80.2036 15.7187 80.2036 15.7187 79.5438 15.0234C79.3638 14.7211 79.0939 14.4793 78.8839 14.2073C78.374 13.512 78.0441 12.7261 77.8041 11.8797C77.7141 11.396 77.5942 10.9124 77.7141 10.3985C77.8041 9.31029 78.224 8.31276 78.8239 7.40591C78.9739 7.16408 79.1838 6.92226 79.3638 6.6502C78.8539 6.74089 78.374 6.80134 77.8941 6.92226C77.3842 7.04317 76.8743 7.16408 76.3644 7.31522C76.1245 7.37568 75.8545 7.46637 75.6146 7.55705C75.1047 7.73842 74.8347 8.16162 74.5048 8.55458C74.0549 9.18938 73.635 9.82417 73.545 10.6101C73.3651 11.8495 73.9049 12.8168 74.6848 13.6934C75.1647 14.2375 75.7646 14.6305 76.3644 15.0234C76.9943 15.4164 76.9943 15.5071 76.4244 15.9907C76.3344 16.0814 76.2145 16.1419 76.1245 16.2628C75.9145 16.4744 75.7046 16.6255 75.4946 16.8069C75.0147 17.2603 74.5948 17.744 74.1749 18.2881C73.395 19.3763 72.8852 20.5854 72.9751 21.9759C73.0051 22.4596 73.2151 22.913 73.2451 23.3967C73.2151 23.5176 73.1851 23.6083 73.0351 23.6083C72.8552 23.5478 72.7952 23.3967 72.7052 23.2455C72.1653 22.1271 71.8054 20.9784 71.8954 19.739C72.1353 18.2881 72.7952 17.0487 73.815 16.021C74.0549 15.7791 74.0549 15.6582 73.785 15.4164C72.7952 14.5095 72.1053 13.3911 71.7454 12.0913C71.6254 11.7588 71.6554 11.4263 71.6554 11.0938C71.6554 10.5194 71.8354 9.97531 71.9553 9.40097C71.6554 9.58234 71.4155 9.76371 71.1455 9.94508C71.1155 9.97531 71.0555 10.0055 71.0255 10.0358C69.046 11.4565 67.4863 13.24 66.2265 15.2955C66.0766 15.5373 65.9866 15.8698 65.6867 15.9907C65.0568 15.628 64.6369 15.0234 64.127 14.5398C63.4971 13.9352 63.4971 13.9352 62.8672 14.5398C62.7173 14.6909 62.5973 14.963 62.2974 14.8421C63.5571 12.2122 65.3267 9.97531 67.5463 8.07093C69.4659 6.40838 71.6254 5.13879 74.0249 4.26217C74.3548 4.14126 74.6848 3.92966 74.9847 3.74829C75.1947 3.6576 75.2247 3.53669 75.0147 3.38555C74.7748 3.23441 74.5348 3.08327 74.2649 2.96235C73.1851 2.4787 72.4952 1.57186 71.7154 0.755692C71.6854 0.725464 71.6554 0.634779 71.6254 0.574323C71.6254 0.544094 71.6254 0.513866 71.6554 0.483638C71.8354 0.453409 71.9254 0.423181 71.9853 0.332496Z" fill="#231F20"/>
<path d="M62.3572 14.7514C62.7771 14.5398 63.0171 14.1468 63.347 13.8445C63.467 13.7236 63.557 13.6329 63.707 13.8143C64.3668 14.5096 65.1167 15.1444 65.7165 15.9001C65.8365 16.1721 65.6566 16.3535 65.5666 16.5651C65.0867 17.5928 64.6967 18.6206 64.3968 19.7088C64.0669 21.0086 63.8869 22.3085 63.8269 23.6385C63.677 26.752 64.3068 29.6841 65.7165 32.4349C67.5462 35.9716 70.2456 38.6317 73.8148 40.3849C74.2048 40.5663 74.3847 40.4756 74.5947 40.1431C74.9546 39.5386 75.2845 38.8735 75.6145 38.2387C75.6445 38.1481 75.7045 38.0574 75.7344 37.9667C76.1544 36.9692 76.4543 35.9414 76.6043 34.8834C76.6643 34.0672 76.9042 33.2813 76.7542 32.4651C76.6942 30.984 76.3643 29.5632 75.8244 28.203C75.7944 28.082 75.7644 27.9914 75.7644 27.8704C75.7644 27.7798 75.8244 27.7193 75.8844 27.6891C76.1244 27.7193 76.2143 27.9007 76.3043 28.082C76.5743 28.5355 76.8142 28.9889 77.0542 29.4423C77.774 30.9235 78.2539 32.4651 78.3739 34.0975C78.4339 34.7323 78.3439 35.3671 78.2539 36.0018C78.104 36.818 77.834 37.6039 77.5341 38.3899C77.1442 39.2967 76.7542 40.1733 76.2443 40.9895C76.0944 41.2616 76.1544 41.3523 76.4243 41.4429C77.654 41.7754 78.9138 42.0777 80.1735 42.108C80.5034 42.108 80.7134 42.0173 80.8934 41.715C81.3733 40.8686 81.7932 39.992 82.1531 39.0851C82.3031 38.7224 82.453 38.3899 82.513 37.9969C82.693 37.3621 82.843 36.6971 82.9329 36.0321C83.0229 35.3671 83.0229 34.702 83.0229 34.037C82.9929 33.1906 82.9629 32.314 82.753 31.4978C82.663 30.863 82.453 30.2585 82.2431 29.6539C82.0931 29.2307 81.9431 28.8075 81.6732 28.4146C81.5532 28.2634 81.4932 28.082 81.5832 27.9007C81.8232 27.7495 81.9132 27.9611 82.0031 28.1123C82.2131 28.4448 82.423 28.7773 82.603 29.14C82.903 29.6539 83.1729 30.1678 83.4428 30.7119C83.8328 31.6188 84.1627 32.5558 84.4326 33.4929C84.5226 34.0068 84.6126 34.4904 84.6726 35.0043C84.6726 35.6693 84.7026 36.3646 84.6426 37.0296C84.3726 38.6922 83.7728 40.264 83.0229 41.7452C82.9629 41.8359 82.813 41.9568 83.0529 42.0475C83.2629 42.0475 83.5028 42.0777 83.7128 41.987C83.7728 41.9568 83.8028 41.9568 83.8628 41.9568C84.3427 41.8964 84.8225 41.8057 85.2725 41.715C85.4824 41.6545 85.6924 41.5638 85.9023 41.715C86.2622 41.987 86.3822 42.38 86.3822 42.8032C86.3822 43.5891 86.3822 44.4053 86.3822 45.1912C86.3822 45.4028 86.3822 45.6144 86.2323 45.7958C86.1423 45.8865 86.0523 45.9772 85.9323 46.0679C87.0721 46.612 87.7919 47.5793 88.6318 48.5163C88.3618 48.5768 88.2718 48.3954 88.1219 48.3954C88.0319 48.4257 88.0019 48.5163 87.9419 48.5466C87.9119 48.5466 87.8519 48.5466 87.8219 48.5163C87.282 48.1838 86.8621 47.67 86.2922 47.3677C86.2023 47.2468 86.0823 47.1561 85.9323 47.1258C85.7524 47.0956 85.6324 47.0049 85.4224 46.8236C85.5724 47.1561 85.7824 47.2468 85.9923 47.3374C86.4122 47.549 86.8021 47.7909 87.1621 48.1234C87.402 48.3652 87.432 48.5466 87.0121 48.5768C86.8621 48.5163 86.7122 48.4559 86.5622 48.3652C86.4122 48.2745 86.2323 48.1838 86.0523 48.2745C85.8723 48.3954 86.1123 48.5768 86.0223 48.7582C85.7823 48.8186 85.6324 48.607 85.3924 48.607C85.2425 48.607 85.1225 48.4559 84.9725 48.4257C84.3127 48.3652 83.8927 47.8211 83.2929 47.6095C82.0631 47.1863 80.7734 46.9747 79.5137 46.612C75.8844 45.5237 72.4051 44.1635 69.2858 41.987C64.2168 38.4201 61.1875 33.4929 60.2877 27.3263C59.6578 22.9735 60.3477 18.8322 62.2373 14.8723C62.2972 14.8118 62.3272 14.7816 62.3572 14.7514Z" fill="#231F20"/>
<path d="M86.292 47.3072C86.8919 47.6095 87.4018 48.0025 87.7917 48.5163C87.5218 48.5768 87.2818 48.7582 86.9819 48.607C87.0419 48.4257 87.1919 48.5768 87.2818 48.4861C86.7719 47.6397 85.5722 47.6397 85.0923 46.612C85.5122 46.612 85.6322 47.0352 85.9621 47.0049C86.0521 47.1561 86.1721 47.2468 86.292 47.3072Z" fill="#F0F0F0"/>
<path d="M87.792 48.5163C87.822 48.5163 87.852 48.5163 87.882 48.5163C88.0619 48.4559 88.0919 48.6373 88.1519 48.7279C88.2419 48.7582 88.3319 48.8186 88.3619 48.9395C87.912 49.1814 87.942 48.7582 87.792 48.5163Z" fill="#EDEDED"/>
<path d="M84.9727 48.4559C85.1526 48.4559 85.2726 48.5163 85.3926 48.6373C85.1526 48.8186 85.0926 48.5466 84.9727 48.4559Z" fill="#A5A5A5"/>
<path d="M86.2021 45.826C86.2021 44.9192 86.1721 44.0123 86.2021 43.1357C86.2321 42.5916 86.1122 42.1382 85.7822 41.715C85.8422 41.5941 85.9622 41.5638 86.0522 41.5336C86.1122 41.5034 86.1721 41.5034 86.2321 41.4732C86.4721 41.4127 86.6221 41.2918 86.742 41.0802C87.6718 39.5386 88.4517 37.9365 88.8416 36.1832C88.9616 35.5787 89.0515 35.0043 89.0815 34.3998C89.1415 33.7952 89.1715 33.1604 89.0815 32.5558C89.0216 32.0722 88.9916 31.5583 88.9016 31.0746C88.7816 30.4701 88.6316 29.8353 88.4217 29.2609C88.3017 28.7168 87.9118 28.2634 87.8818 27.6891C88.1217 27.5682 88.2117 27.7798 88.3017 27.9007C88.5117 28.203 88.6916 28.5355 88.8716 28.868C89.1415 29.4121 89.4115 29.9562 89.6814 30.5003C89.9214 31.0746 90.1613 31.6792 90.3113 32.2838C90.3713 32.5558 90.4612 32.8581 90.5212 33.1302C90.9411 35.0345 90.6712 36.8482 89.9514 38.6015C89.8914 38.7828 89.8014 38.9642 89.7414 39.1758C89.6214 39.5386 89.3815 39.8711 89.2315 40.3245C90.4613 39.6595 91.601 38.934 92.6508 38.0574C93.9405 36.9994 95.0503 35.76 95.9801 34.3998C96.25 34.037 96.46 33.6138 96.6999 33.2511C96.9099 32.9186 97.0599 32.5861 97.2098 32.2535C97.5098 31.6792 97.7497 31.1049 97.9597 30.5003C98.2596 29.6539 98.5296 28.8075 98.6795 27.9007C99.2194 25.2104 99.1294 22.5503 98.4996 19.8902C98.1996 18.6811 97.7797 17.5324 97.2098 16.4442C96.0401 13.9352 94.2705 11.9099 92.1409 10.2172C92.0509 10.0962 91.841 10.066 91.871 9.82418C92.6508 8.94756 93.4906 8.10117 94.3604 7.31524C96.7599 9.09871 98.6196 11.3356 100.059 13.9655C101.709 16.958 102.549 20.1622 102.699 23.6083C103.059 32.707 97.5698 41.0802 89.0515 44.4053C88.0917 44.768 87.1619 45.3121 86.2021 45.826Z" fill="#231F20"/>
<path d="M88.182 48.7279C88.0921 48.6675 88.0021 48.607 87.9121 48.5163C87.9421 48.3954 87.9421 48.2745 88.0921 48.3954C88.1221 48.5163 88.152 48.607 88.182 48.7279Z" fill="#231F20"/>
<path d="M74.9844 0.423185C74.8344 0.392957 74.6844 0.362728 74.5645 0.241815C74.8044 0.151131 74.9544 0.181359 74.9844 0.423185Z" fill="#A3A2A2"/>
<path d="M74.5647 2.05552C74.4147 2.02529 74.2947 1.96484 74.1748 1.84392C74.0548 1.72301 73.8748 1.69278 73.7849 1.54164C73.245 1.3905 72.915 0.937076 72.4951 0.604565C72.4951 0.544108 72.4951 0.483652 72.5851 0.51388C72.6151 0.483652 72.6751 0.423195 72.7051 0.392967C72.7951 0.362739 72.855 0.453424 72.885 0.51388C73.4849 1.11845 74.2947 1.42073 74.8946 2.02529C74.7746 2.14621 74.6847 2.11598 74.5647 2.05552Z" fill="#F2F2F2"/>
<path d="M72.885 0.544121C72.8251 0.513892 72.7651 0.453436 72.7051 0.423208C72.8251 0.181381 73.035 0.362751 73.185 0.332523C73.155 0.513892 72.915 0.362751 72.885 0.544121Z" fill="#B0B0B0"/>
<path d="M72.5851 0.544121C72.5551 0.574349 72.5251 0.604577 72.4951 0.634805C72.3751 0.574349 72.2852 0.483664 72.2852 0.362751C72.4351 0.332523 72.5251 0.392979 72.5851 0.544121Z" fill="#D9D8D9"/>
<path d="M81.5834 27.8704C81.5234 28.2634 81.9133 28.475 82.0033 28.8075C82.0633 29.0796 82.2432 29.2912 82.2732 29.5935C82.1232 29.926 81.7933 29.9864 81.4934 30.0771C81.1934 30.1678 80.8635 30.1376 80.5636 30.2585C79.5138 30.6212 78.8839 30.0166 78.2241 29.4121C78.1041 29.2912 77.9841 29.14 77.8341 29.0493C77.2043 28.7168 76.7544 28.2332 76.5744 27.5077C76.4844 27.1752 76.1245 27.1147 75.8546 26.9334C75.6746 26.6613 75.8546 26.3893 75.8846 26.1474C75.9145 26.0265 75.8546 25.8754 75.9145 25.7545C76.1245 25.4824 75.8846 25.422 75.7346 25.3313C75.4646 25.029 75.3147 24.636 75.1647 24.2733C75.1347 24.0617 75.1347 23.8501 75.0747 23.6385C75.1347 22.9432 75.1647 22.2782 75.3747 21.6132C75.8246 21.5527 75.7946 20.9482 76.2445 20.8575C76.0645 20.6761 75.7946 20.5854 75.7346 20.2831C75.7346 19.9506 75.9745 19.739 76.2145 19.5577C76.6044 19.2554 76.9643 18.9229 77.2643 18.5299C77.4442 18.2579 77.4142 18.0765 77.2043 17.8951C76.9943 17.7137 76.7544 17.5626 76.5444 17.3812C76.3944 17.1092 76.3045 16.8069 76.0645 16.5953C75.9745 16.5046 75.9145 16.3837 76.0045 16.2326C76.2745 15.9907 76.5444 15.7489 76.8444 15.4769C76.0645 15.0234 75.3447 14.57 74.7148 13.9352C73.0052 12.182 72.9152 10.3381 74.4449 8.43367C74.6248 8.28253 74.7748 8.43367 74.9547 8.49413C75.2847 8.61504 75.4346 8.52436 75.4946 8.16162C75.5246 7.91979 75.4047 7.70819 75.5246 7.46637C75.7946 7.37568 76.0645 7.31523 76.3345 7.22454C76.3944 7.19431 76.4844 7.16408 76.5144 7.22454C76.7244 7.64774 77.1443 7.85933 77.3842 8.22207C77.2043 8.64527 77.0543 9.06846 77.2343 9.55212C77.3542 9.91486 77.6242 10.1265 77.8341 10.3985C77.8641 10.9124 77.8941 11.4263 77.9541 11.9704C77.8641 12.6052 77.9841 13.1493 78.374 13.6632C78.674 14.0561 78.8839 14.4491 78.9739 14.963C79.0039 15.2955 79.2439 15.5675 79.3638 15.8698C79.4538 16.1419 79.6938 16.3837 79.5438 16.7464C78.9739 17.5626 78.434 18.3788 78.2241 19.3763C77.8641 21.1295 78.284 22.7014 79.1539 24.2128C79.3638 24.3035 79.4238 24.5756 79.6038 24.6965C80.1737 25.6033 80.8935 26.4497 81.4934 27.3566C81.5534 27.4472 81.7333 27.6286 81.5834 27.8704Z" fill="#FEFEFE"/>
<path d="M92.2012 10.0962C94.4207 11.7588 96.1304 13.8143 97.3301 16.3233C97.3901 16.4744 97.2401 16.5651 97.2101 16.686C97.0602 17.1092 97.1201 17.5324 97.4201 17.8044C98.02 18.3183 98.2899 19.0136 98.5299 19.7088C98.5299 19.739 98.5598 19.7693 98.6198 19.739C99.1597 21.4923 99.2497 23.2757 99.2197 25.0894C99.1897 26.0567 99.0997 27.0241 98.8298 27.9611C98.5599 28.1123 98.5598 28.4145 98.4699 28.6261C98.3499 28.8982 98.2299 29.2005 97.87 29.2307C97.72 29.2609 97.4201 28.5657 97.4201 28.3239C97.4201 28.203 97.4801 28.1123 97.5701 28.0216C97.72 27.9007 97.78 27.7495 97.81 27.5984C97.9 27.3566 97.87 27.145 97.81 26.9031C97.81 26.4195 97.84 25.9661 98.1999 25.5429C98.5598 25.1197 98.1999 24.7569 97.96 24.4244C97.87 24.2733 97.87 24.1221 97.81 23.971C97.78 23.8803 97.78 23.7594 97.78 23.6687C97.87 22.3689 97.3001 21.2202 97.0002 20.0111C96.9102 19.6484 96.5803 19.5577 96.2503 19.5577C95.9204 19.5577 95.5905 19.5879 95.2605 19.6484C94.7806 19.739 94.6007 19.5274 94.7506 19.0438C94.9306 18.5299 94.7206 18.0765 94.1508 17.8951C93.8508 17.8044 93.6109 17.6533 93.4609 17.3812C93.4609 17.079 93.7309 17.079 93.9108 16.958C94.4507 16.5348 94.6607 15.7791 94.3307 15.235C93.9708 14.6305 93.2809 14.4491 92.6211 14.7514C92.1712 14.963 91.8712 15.5675 91.9612 16.1117C91.9912 16.293 92.0812 16.4744 92.0212 16.6558C91.8112 16.8371 91.6613 16.8069 91.5713 16.5651C91.3913 16.1117 91.0614 15.8094 90.6715 15.5071C90.4915 15.3559 90.2816 15.2048 90.1916 14.9932C90.0116 14.4491 89.5917 14.298 89.0818 14.298C88.8719 14.2073 88.7219 14.0864 88.7219 13.8445C88.7219 13.8143 88.7219 13.7841 88.7219 13.7538C88.7519 13.4818 89.1418 13.2097 88.9019 12.9679C88.6019 12.6354 88.212 12.3331 87.7021 12.3331C87.3422 12.3331 86.9823 12.3029 86.6523 12.0913C86.4724 11.9704 86.2624 12.0913 86.0824 12.1518C86.0225 12.182 85.9325 12.1518 85.8725 12.0913C85.7225 11.0938 86.0824 10.2474 86.6523 9.46144C87.1922 9.64281 87.4622 9.40098 87.3722 8.82664C87.3422 8.73596 87.3122 8.64527 87.3422 8.55459C87.4622 8.34299 87.6421 8.13139 87.8521 7.98025C88.062 7.95003 88.242 8.07094 88.392 8.19185C89.1418 8.76619 90.0116 9.15916 90.9114 9.49167C91.3913 9.67304 91.7513 10.0055 92.2012 10.0962Z" fill="#F16D50"/>
<path d="M71.8651 12.0308C72.255 13.4818 73.0949 14.6305 74.2646 15.5978C73.1249 16.7162 72.255 17.9858 72.0151 19.5879C71.8051 20.1925 71.8651 20.918 71.2952 21.4016C71.1153 21.5527 71.1453 21.9759 71.1753 22.2782C71.2053 22.4294 71.2353 22.6107 71.1153 22.7619C70.3954 22.9735 69.7056 22.7316 69.3157 22.1271C69.1357 21.8248 68.8358 21.855 68.5658 21.9155C68.2659 22.0062 67.9959 22.0364 67.696 21.9457C67.4261 21.855 67.3061 21.6737 67.3961 21.4016C67.726 20.5854 67.546 19.6786 67.876 18.8322C67.9959 18.5601 67.846 18.3183 67.576 18.1672C67.3961 18.0765 67.1861 18.016 67.0661 17.8649C67.0061 17.5928 67.1861 17.351 67.1261 17.079C67.1861 16.8069 67.3661 16.5651 67.576 16.4139C67.816 16.293 68.0559 16.4442 68.2959 16.4442C68.5058 16.4442 68.7458 16.4442 68.8658 16.2023C68.9857 15.9907 68.8058 15.8396 68.6858 15.6885C68.5358 15.5071 68.2359 15.356 68.4458 15.0234C68.7458 14.7816 68.7458 14.4189 68.8358 14.0561C68.8957 13.9352 68.9857 13.8445 69.0757 13.7841C69.6156 13.5423 70.1555 13.3307 70.4854 12.7866C70.5754 12.6354 70.7554 12.5447 70.9353 12.6354C71.3852 12.8168 71.5952 12.575 71.6852 12.182C71.6852 12.1215 71.7452 12.0913 71.7751 12.0611C71.7751 12.0006 71.8051 12.0006 71.8651 12.0308Z" fill="#FEFEFE"/>
<path d="M90.2216 32.2838C90.0116 31.6792 89.8017 31.0746 89.5917 30.4701C89.7717 30.1073 90.0716 29.805 90.3116 29.533C91.2414 28.5657 92.0812 27.5682 92.771 26.3893C92.801 26.359 92.861 26.3288 92.891 26.3288C92.951 26.2986 93.011 26.2986 93.101 26.2986C94.0608 26.087 94.4507 25.2104 93.9708 24.364C93.8508 24.1221 93.7308 24.3035 93.6109 24.364C93.3709 24.5151 93.2509 24.8476 92.951 24.9685C92.5911 24.8476 92.5911 24.4244 92.3511 24.1826C92.3211 24.1524 92.3211 24.0919 92.2911 24.0617C92.2612 23.7594 92.1712 23.5176 91.8412 23.4269C91.6013 23.3664 91.5113 23.1851 91.4213 22.9735C91.2114 22.4294 91.0014 21.8852 90.4615 21.5225C90.1916 21.3411 90.0416 21.0086 90.1016 20.6761C90.1316 20.4041 90.0116 20.2831 89.8017 20.1622C89.2018 19.86 88.6019 19.5577 87.9421 19.4972C87.6421 19.467 87.5821 19.3158 87.6121 19.074C87.6421 18.9229 87.6121 18.802 87.4322 18.7717C87.2822 18.7415 87.1322 18.8322 87.0722 18.9833C87.0122 19.1647 87.1922 19.1949 87.3122 19.2554C87.7021 19.3763 87.5821 19.5879 87.4322 19.8297C87.2522 20.0413 87.0722 20.2227 86.7723 20.1925C86.4724 20.0111 86.1124 20.1622 85.8125 20.0111C86.3524 18.8322 87.1922 17.8951 88.152 17.079C88.7819 17.1999 89.5017 16.8069 90.0416 17.4115C90.2516 17.6533 90.3416 17.8951 90.3116 18.2276C90.2816 18.3788 90.0416 18.6508 90.3715 18.7113C90.6415 18.7415 90.9714 18.7113 91.0314 18.3183C91.0914 17.9858 91.2114 17.744 91.5713 17.6835C91.9312 17.6835 92.0512 17.9556 92.2012 18.2276C92.2911 18.409 92.3811 18.5904 92.4711 18.7717C92.5611 19.2252 92.7411 19.5879 93.191 19.7693C93.6709 20.6459 94.1508 21.4923 94.7506 22.2782C95.1405 22.8223 95.2305 23.4873 95.1106 24.1221C94.9606 25.0894 94.8406 26.0567 94.7806 27.024C94.1508 27.7798 93.7009 28.6261 93.2509 29.4725C93.011 29.8957 92.7411 30.2585 92.2911 30.4398C92.1112 30.5305 91.9912 30.6514 91.9312 30.8328C91.6613 31.5583 91.0014 31.8908 90.4315 32.314C90.3715 32.3744 90.2816 32.3744 90.2216 32.2838Z" fill="#F7A084"/>
<path d="M69.0758 13.8445C69.0158 13.905 68.9558 13.9957 68.8958 14.0561C68.6559 14.2073 68.4159 14.0561 68.176 14.0561C67.876 14.0561 67.7861 14.1468 67.966 14.4189C68.116 14.6305 68.266 14.8119 68.266 15.0839C68.116 15.5978 67.906 16.0814 67.5761 16.4744C67.4261 16.686 67.2762 16.8674 67.1562 17.079C67.0662 17.1999 66.9162 17.1999 66.7963 17.1999C66.5263 17.2301 66.1964 17.1394 66.0764 17.4719C65.8964 17.8951 65.8065 18.2881 66.0164 18.7113C66.0764 18.8624 66.1964 18.9833 66.2564 19.1345C66.4063 19.8902 66.4363 20.6459 65.9864 21.3412C65.8365 21.5528 65.8665 21.7946 65.9864 22.0062C66.0764 22.1875 66.1664 22.3689 66.1964 22.5805C66.1964 22.6712 66.1964 22.7619 66.1964 22.8223C66.1964 23.6083 66.1964 23.6083 66.9762 23.6687C67.0662 23.6687 67.1262 23.699 67.2162 23.7594C67.4261 24.2431 67.5461 24.7569 67.5161 25.2708C67.2462 25.5731 66.8862 25.5127 66.5563 25.5731C66.2264 25.6336 65.9864 25.7545 65.8964 26.087C65.8065 26.2986 65.8065 26.48 65.8964 26.6916C66.1064 27.3263 66.4363 27.8705 66.7063 28.475C66.7963 28.6866 66.8562 28.868 66.8862 29.1098C66.8562 29.3214 66.8263 29.533 66.9162 29.7446C67.1562 30.6515 67.6961 31.4374 68.176 32.2536C68.3859 32.6163 68.5359 32.979 68.6259 33.372C68.6559 33.5231 68.7459 33.7045 68.5959 33.7952C68.4459 33.8859 68.3259 33.7045 68.236 33.6138C67.5461 32.8883 67.0662 32.0117 66.6163 31.1653C66.1064 30.2283 65.6565 29.2912 65.1766 28.3541C64.8167 27.6891 64.7267 26.9032 64.6967 26.1172C64.7267 25.8149 64.7567 25.5127 64.6667 25.2104C64.6067 24.636 64.5167 24.0919 64.3368 23.5478C64.1868 23.1246 64.1868 22.7014 64.5467 22.3387C64.6967 22.1875 64.7567 21.9759 64.7267 21.7946C64.6667 21.3714 64.6667 20.9784 64.8167 20.5552C64.9067 20.3738 64.7867 20.2227 64.6067 20.1623C64.3668 20.0716 64.2468 19.9507 64.3668 19.6786C64.6067 18.5299 65.0566 17.5022 65.5365 16.4442C65.6265 16.2628 65.6865 16.0814 65.7765 15.9001C66.8562 13.9957 68.146 12.2727 69.8256 10.8217C70.2155 10.459 70.6355 10.1265 71.0854 9.82419C71.2053 9.9451 71.2053 10.1265 71.2053 10.2776C71.2053 10.3985 71.2053 10.5497 71.1454 10.6706C70.3955 11.7286 69.7956 12.847 69.0758 13.8445Z" fill="#F59073"/>
<path d="M71.0556 22.7014C71.0256 22.3387 70.9356 21.9457 71.0256 21.5527C71.1156 21.2504 71.1756 20.9784 71.5055 20.8575C71.7154 20.797 71.7454 20.6157 71.6855 20.4041C71.6255 20.1018 71.6255 19.7693 71.9554 19.5577C71.8654 20.9784 72.2553 22.2782 72.9452 23.4873C73.0952 23.578 73.1851 23.7292 73.3051 23.8501C73.3951 23.9408 73.4551 24.0012 73.5151 24.1221C73.6051 24.2733 73.725 24.4244 73.725 24.636C73.695 25.0894 73.695 25.5731 73.5151 25.9963C73.3951 26.2381 73.5451 26.3288 73.785 26.2986C74.1749 26.2683 74.3249 26.4497 74.1449 26.8124C74.025 27.0845 74.1749 27.145 74.4149 27.1147C74.5649 27.1147 74.7748 27.0543 74.8648 27.2054C74.9848 27.417 74.8048 27.5379 74.6848 27.6891C74.4749 27.9913 74.2349 28.1727 73.845 28.2332C73.4251 28.2634 73.3351 28.5355 73.605 28.8982C73.725 29.0191 73.815 29.1702 73.845 29.3214C73.965 30.3189 74.4749 31.0746 75.2547 31.7094C75.4347 31.8303 75.5247 32.0117 75.6146 32.1931C75.7946 32.6163 76.1245 32.9186 76.5744 33.0697C76.7244 32.8279 76.5444 32.4954 76.7844 32.314C76.9344 33.1604 76.7844 34.0068 76.6644 34.8532C76.5744 35.0648 76.3945 35.0043 76.2445 34.9438C76.0945 34.8532 75.9746 34.7625 75.8246 34.6718C75.0148 34.0975 74.5049 33.2511 73.785 32.5558C73.3051 32.1024 73.3651 31.4071 73.1851 30.8328C73.0052 30.2585 72.8252 29.7144 72.5553 29.2005C72.4053 28.9284 72.3153 28.6564 72.3453 28.3239C72.3753 28.0518 72.2853 27.8704 72.0754 27.7193C71.7454 27.4775 71.5055 27.2659 71.7454 26.7822C71.8354 26.5706 71.7454 26.2986 71.9854 26.0567C72.1354 25.9358 71.9254 25.8149 71.8054 25.7242C71.6255 25.6033 71.3255 25.6335 71.2055 25.3917C71.1756 25.301 71.1456 25.2406 71.1756 25.1499C71.2955 24.6965 71.1756 24.364 70.7257 24.1826C70.6357 24.1524 70.6057 24.0919 70.5757 24.0012C70.5757 23.9408 70.5757 23.9105 70.6057 23.8501C70.8156 23.6385 71.0556 23.0037 71.0556 22.7014Z" fill="#F8AF96"/>
<path d="M85.8124 20.0111C86.1424 19.9506 86.5023 19.7693 86.7722 20.1018C87.1621 20.4343 87.4321 20.797 87.4321 21.3411C87.4321 21.5225 87.5521 21.6434 87.732 21.7039C88.032 21.7643 88.1819 21.9457 88.1219 22.2782C88.0619 22.5805 88.1819 22.8525 88.4219 23.0339C88.7218 23.2455 88.7518 23.4873 88.5718 23.7896C88.3019 24.243 88.7518 24.5151 88.7818 24.9081C88.7818 24.9988 88.9618 24.9988 89.0517 24.9685C89.1417 24.9383 89.2617 24.8778 89.2317 24.7569C89.1417 24.4849 89.2017 24.3035 89.4417 24.1524C89.6516 24.0315 89.8616 23.9105 90.1015 23.971C90.5214 24.0617 90.8214 24.5756 90.7014 25.0894C90.6414 25.301 90.5514 25.5126 90.6414 25.7242C90.7014 25.9358 90.4615 26.1777 90.7014 26.3893C91.0013 26.9636 90.9713 27.1147 90.4015 27.3263C90.0415 27.4472 89.7716 27.5984 89.7416 28.082C89.7416 28.5052 89.1717 28.9284 88.7518 28.9284C88.4219 28.5657 88.3319 27.9913 87.882 27.7193C87.612 27.3868 87.3121 27.0845 87.2521 26.6311C87.5221 26.2381 87.4021 26.087 86.7422 26.0265C86.6522 25.9963 86.6223 25.9056 86.5923 25.8149C86.6223 25.4522 86.9522 25.5429 87.2221 25.3917C86.8922 24.9988 86.6522 24.5453 86.4123 24.1221C86.2923 23.9408 86.2323 23.7292 86.1723 23.5176C86.2023 23.2153 86.2623 22.913 85.8724 22.8223C85.8124 22.7619 85.8124 22.7014 85.7824 22.641C85.6924 22.3689 85.7824 21.9457 85.3325 21.8852C85.3325 21.1598 85.5125 20.5552 85.8124 20.0111Z" fill="#FBC4AF"/>
<path d="M79.6035 9.82417C79.6035 9.6428 79.6635 9.46143 79.7835 9.31029C79.9334 9.2196 80.0834 9.15915 80.2034 9.008C80.2634 8.76618 80.2934 8.55458 80.2934 8.31276C80.5633 7.79888 80.9532 7.34545 81.3731 6.92226C82.033 7.10363 82.6629 7.40591 83.2928 7.58728C83.6227 7.73842 83.9526 7.8291 84.3425 7.73842C84.7624 7.61751 85.2123 7.95002 85.4823 8.40344C85.0324 9.15915 84.6125 9.88462 84.4325 10.7612C84.3425 11.2751 84.4025 11.789 84.3425 12.3029C84.0726 12.2424 84.1926 12.0006 84.1326 11.8192C83.9526 11.8797 83.8026 12.0006 83.6227 12.0913C83.1728 12.3029 82.9628 12.182 82.9928 11.6983C82.9928 11.6379 83.0228 11.5774 82.9628 11.4565C82.7229 11.6681 82.7829 12.1517 82.3629 12.1215C82.183 12.0006 82.243 11.8192 82.243 11.6681C82.243 11.0031 82.183 10.9426 81.5231 10.8822C81.4331 10.8822 81.3731 10.8519 81.2832 10.8217C80.9532 10.6101 80.6233 10.459 80.2334 10.459C79.6935 10.5194 79.6035 10.3683 79.6035 9.82417Z" fill="#F16D50"/>
<path d="M73.695 24.636C73.635 24.4547 73.545 24.3035 73.4851 24.1222C73.3951 24.0315 73.4551 23.9408 73.5151 23.8501C73.935 23.4269 73.995 23.0944 73.755 22.5805C73.635 22.3387 73.695 22.2178 73.875 22.0666C74.2049 21.7644 74.2049 21.5528 73.845 21.2505C73.695 21.1296 73.4851 21.0691 73.3351 20.9482C73.1551 20.8273 73.0352 20.7064 73.0352 20.4645C73.0352 20.2227 73.2451 20.2227 73.3951 20.132C73.725 19.8902 74.2049 19.9204 74.3549 19.3763C74.4749 18.9531 74.5648 18.6206 74.2049 18.2881C74.1449 18.2276 74.1149 18.1672 74.1449 18.0765C74.5048 17.5626 74.9248 17.079 75.4347 16.6558C75.5846 16.686 75.7046 16.7767 75.7946 16.8976C76.0045 17.1697 76.3045 17.2906 76.6344 17.2301C76.6944 17.2603 76.7844 17.2906 76.8444 17.351C77.7742 17.9858 77.7742 18.4392 76.8743 19.1345C76.4844 19.4368 76.0345 19.6786 75.8246 20.1623C75.5246 20.5552 75.4346 21.0086 75.5546 21.4923C75.4646 22.1875 75.3447 22.913 75.2547 23.6083C75.3147 23.7292 75.3147 23.8501 75.1947 23.971C74.9248 24.2431 75.3147 24.1222 75.3447 24.2128C75.5246 24.5453 75.6746 24.8779 75.8546 25.2104C75.9745 25.3313 76.0645 25.4522 76.0045 25.6638C75.9445 25.8149 75.9745 25.9661 76.1245 26.0568C76.0345 26.2986 75.8846 26.5404 75.9445 26.8427C76.0645 27.0241 76.0045 27.1752 75.8846 27.3566C75.8546 27.3868 75.7946 27.417 75.7646 27.417C75.6746 27.417 75.6146 27.3868 75.5846 27.3263C75.5246 27.2054 75.4346 27.0845 75.3447 26.9938C74.9248 26.3893 74.4749 25.7545 74.0249 25.1801C73.845 24.9988 73.725 24.8476 73.695 24.636Z" fill="#FBC4AF"/>
<path d="M79.1538 20.2832C79.2438 19.86 79.4238 19.5275 79.6637 19.1949C79.8437 19.0136 79.9936 19.074 80.1436 19.2856C80.3536 19.6181 80.5935 19.8902 80.8335 20.1925C80.8635 19.9204 80.8035 19.7088 80.6535 19.4972C80.5635 19.3763 80.4735 19.2554 80.5335 19.074C80.6835 18.802 80.8035 18.802 81.1034 18.9229C81.8532 19.1949 82.2432 19.9507 82.963 20.1925C83.5029 20.3738 84.0128 20.6157 84.4627 20.9482C84.5527 21.0691 84.4627 21.2505 84.5527 21.3714C84.7026 22.3085 84.9726 23.1851 85.4825 24.0012C85.5125 24.0315 85.5425 24.0617 85.5425 24.1222C85.4225 24.364 85.4225 24.364 85.0926 24.5151C85.2125 24.8174 85.5725 24.9383 85.6325 25.2708C85.6325 25.3917 85.6025 25.5126 85.5125 25.6033C85.4525 25.6638 85.3925 25.694 85.3325 25.7242C84.6427 25.5731 84.2227 25.0592 83.7728 24.5453C83.5929 24.364 83.4429 24.1524 83.3229 23.9408C83.113 23.5478 82.7831 23.306 82.3331 23.1548C81.7933 23.0037 81.4033 22.5805 81.1634 22.0666C81.0434 21.7946 80.8635 21.6737 80.5635 21.6132C79.8437 21.5225 79.4238 20.9784 79.1538 20.2832Z" fill="#FEFEFE"/>
<path d="M79.1537 20.2832C79.3336 20.4041 79.4236 20.6157 79.5436 20.797C79.8435 21.2807 80.2635 21.5225 80.8033 21.583C81.0433 21.6132 81.1333 21.7341 81.2233 21.9155C81.5232 22.5805 81.9731 23.0642 82.7229 23.1851C83.0229 23.2455 83.1429 23.4571 83.2928 23.699C83.8327 24.5454 84.4626 25.3011 85.3924 25.7243C85.5424 25.8754 85.4824 26.0568 85.3924 26.1777C85.0625 26.6009 84.7625 27.0543 84.4326 27.4775C84.3726 27.5077 84.2826 27.5077 84.2226 27.5077C83.5028 27.2659 82.9029 26.8729 82.393 26.3288C81.9431 25.8452 81.4332 25.422 80.8933 25.029C79.7236 24.1826 79.1237 23.0339 79.0337 21.583C79.0337 21.4923 79.0337 21.3714 78.9437 21.3109C78.9137 20.9482 79.0037 20.6157 79.1537 20.2832Z" fill="#FCEFE8"/>
<path d="M91.6012 17.7742C91.3912 17.8649 91.2112 17.9556 91.1813 18.2579C91.1513 18.6508 90.5814 18.9833 90.1915 18.8624C89.9215 18.7717 90.0715 18.5601 90.1315 18.409C90.2514 18.016 90.2514 17.6835 89.8915 17.3812C89.6516 17.1696 89.4716 17.0487 89.1717 17.1999C88.8117 17.3812 88.5118 17.0185 88.1819 17.0185C88.4518 16.7465 88.7218 16.4744 89.0217 16.2326C89.2317 16.0512 89.2017 15.9605 88.9917 15.8396C88.4218 15.5373 87.8819 15.1746 87.402 14.7212C86.6522 13.9957 86.0223 13.1795 85.9023 12.0913C85.9623 12.0913 86.0223 12.0913 86.0823 12.0913C86.3523 12.0913 86.5622 12.3029 86.6822 12.4843C87.1321 13.24 87.9119 13.4213 88.6618 13.7236C88.7218 13.7539 88.7518 13.7539 88.7817 13.7841C88.7817 13.9957 88.9317 14.0864 89.0817 14.1771C89.6216 14.7514 90.2514 15.2653 90.6114 15.9907C90.7613 16.3233 91.0613 16.5046 91.3012 16.7767C91.5712 17.1092 91.7811 17.3812 91.6012 17.7742Z" fill="#F59073"/>
<path d="M78.9139 21.3109C79.0339 21.2505 79.0939 21.2807 79.0939 21.4318C79.1539 23.1246 79.9637 24.364 81.3434 25.2708C82.0933 25.7545 82.5732 26.5706 83.383 27.0241C83.6529 27.1752 83.9829 27.2054 84.1928 27.4775C84.2228 27.6588 84.0729 27.7495 83.9529 27.8402C83.7129 27.9914 83.593 28.203 83.443 28.4448C83.233 28.8075 82.9331 29.1098 82.4832 29.2005C82.1533 28.7773 82.0333 28.203 81.5534 27.9007C81.3734 27.3263 80.9535 26.8729 80.5936 26.4195C80.1737 25.8754 79.7837 25.301 79.4538 24.6965C79.2439 24.4849 79.2139 24.2431 79.1539 23.971C78.9139 23.0642 78.734 22.2178 78.9139 21.3109Z" fill="#FEFEFE"/>
<path d="M86.5021 16.4744C85.9623 17.1394 85.4224 17.8347 85.0025 18.5904C84.0127 18.4997 83.3228 17.8649 82.603 17.2603C82.363 17.0487 82.483 16.8371 82.7229 16.7162C82.8429 16.6558 82.9929 16.6558 83.1129 16.6558C83.5028 16.6558 83.5628 16.4744 83.4728 16.1116C83.3528 15.6582 83.2928 15.2048 82.7829 14.9932C82.7229 14.6607 82.543 14.298 82.8129 14.0561C83.1129 13.8143 83.3528 14.1468 83.6227 14.2375C84.2826 14.4491 84.7925 14.8723 85.0924 15.5071C85.1824 15.6885 85.3024 15.8698 85.4824 16.021C85.6923 16.2326 85.9323 16.4139 86.2622 16.293C86.4422 16.2326 86.5921 16.2023 86.5021 16.4744Z" fill="#F7A084"/>
<path d="M82.7829 14.963C83.2628 15.0234 83.5628 15.235 83.5028 15.7791C83.5028 15.9001 83.5628 16.0512 83.5928 16.1721C83.7727 16.6255 83.6827 16.7464 83.2328 16.7767C83.1429 16.7767 83.0529 16.7767 82.9929 16.7767C82.8129 16.7767 82.633 16.8069 82.573 16.9883C82.513 17.1696 82.7229 17.1999 82.8129 17.3208C83.4428 17.9254 84.2226 18.2881 85.0025 18.6206C84.9125 18.8927 84.7925 19.1647 84.7025 19.4368C84.5226 19.3159 84.3726 19.2856 84.1327 19.3159C83.6228 19.4065 83.2928 19.2252 83.0529 18.7415C82.9629 18.5299 82.8429 18.4392 82.633 18.3485C81.9131 18.1067 81.8831 18.0463 82.1531 17.2603C81.7332 17.4115 81.6732 17.8347 81.4332 18.0765C81.4032 18.1067 81.3432 18.1067 81.3132 18.1067C80.9233 17.7742 80.7434 18.2579 80.4734 18.3183C80.4134 18.3183 80.3235 18.3183 80.2935 18.2579C80.9533 17.2906 81.8231 16.5349 82.7229 15.7791C83.0829 15.4769 83.0529 15.3257 82.693 15.1444C82.633 15.0537 82.693 14.9932 82.7829 14.963Z" fill="#F8AF96"/>
<path d="M74.0848 18.1067C74.6847 18.6508 74.7747 19.4368 74.1748 19.9204C73.9948 20.0716 73.6949 20.1622 73.4549 20.2831C73.335 20.3436 73.095 20.2529 73.095 20.4947C73.095 20.7063 73.245 20.8273 73.425 20.8877C73.6649 20.9784 73.9049 21.0993 74.0848 21.3109C74.3848 21.6434 74.3848 21.9155 73.9948 22.1271C73.7249 22.2782 73.6949 22.3991 73.9348 22.5805C74.2048 22.7921 73.9049 23.0944 73.9948 23.3362C74.1748 23.6989 73.9348 23.7896 73.6649 23.8803C73.5449 23.9105 73.5149 24.0012 73.4849 24.1221C73.425 24.0617 73.365 24.0315 73.275 23.971C73.185 23.7594 73.125 23.5478 73.065 23.306C72.4052 21.3714 72.8251 19.6484 74.0848 18.1067Z" fill="#F8AF96"/>
<path d="M82.7832 14.963C82.7532 15.0234 82.7232 15.0839 82.6932 15.1746C82.4233 15.0839 82.2133 14.9328 82.0034 14.7514C81.8234 14.3282 82.1833 14.1166 82.3333 13.8143C82.7232 13.5423 83.1731 13.3004 83.653 13.2097C83.833 13.24 84.0129 13.24 84.2229 13.2097C84.5228 13.2097 84.6128 13.4516 84.7028 13.6632C85.1527 14.6002 85.7526 15.4164 86.5324 16.0814C86.7424 16.2628 86.6824 16.3837 86.5024 16.5046C86.5024 16.4442 86.4724 16.3232 86.4124 16.3535C85.9325 16.7162 85.6326 16.3837 85.3627 16.0814C85.1827 15.8698 85.0327 15.628 84.9128 15.3862C84.6428 14.8421 84.1929 14.5398 83.623 14.3584C83.563 14.3584 83.533 14.3584 83.473 14.3282C82.8432 14.0561 82.8432 14.0561 82.8732 14.7816C82.8432 14.8421 82.8132 14.9025 82.7832 14.963Z" fill="#F59072"/>
<path d="M79.6035 9.82419C79.6635 10.3381 79.9934 10.4288 80.4133 10.4288C80.7433 10.4288 81.0732 10.5194 81.2532 10.8217C81.3731 10.9729 81.3132 11.124 81.3132 11.3054C81.2832 11.6379 81.2832 11.9704 81.3132 12.3029C81.3432 12.8168 81.1932 13.3307 80.8633 13.7841C79.6935 12.7261 79.1836 11.124 79.6035 9.82419Z" fill="#F27F61"/>
<path d="M83.6829 13.24C83.263 13.4516 82.8131 13.6329 82.3932 13.8445C82.0933 13.7539 81.9433 13.512 81.8833 13.2098C81.9133 12.7866 81.9433 12.3634 82.3932 12.1215C82.6331 12.0006 82.6631 11.789 82.7231 11.5472C82.7531 11.3961 82.8431 11.1845 83.0531 11.2449C83.293 11.3054 83.203 11.517 83.173 11.6681C83.143 11.8193 83.0531 11.9704 83.203 12.0913C83.353 12.2122 83.533 12.0913 83.6529 12.0006C83.8329 11.8797 84.0428 11.7286 84.2528 11.6983C84.3728 11.9099 84.2228 12.1518 84.3728 12.3331C84.4927 12.7866 84.5827 13.2098 84.7027 13.6632C84.5527 13.512 84.4028 13.3307 84.1928 13.2702C84.0129 13.3307 83.8629 13.3307 83.6829 13.24Z" fill="#F27F62"/>
<path d="M85.4823 8.40346C85.2424 8.25232 85.0624 7.98026 84.7625 7.88958C84.6125 7.82912 84.4925 7.76867 84.3426 7.82912C83.9526 8.04072 83.6227 7.88958 83.2928 7.70821C83.1128 7.5873 83.0828 7.43615 83.2328 7.28501C83.5927 6.9525 83.4128 6.80136 83.0528 6.71068C82.9628 6.68045 82.8729 6.61999 82.9029 6.49908C84.0426 6.52931 85.1224 6.77113 86.2322 7.07341C86.4721 7.13387 86.5921 7.19433 86.3521 7.43615C86.0222 7.73844 85.7823 8.07095 85.4823 8.40346Z" fill="#F17F61"/>
<path d="M81.373 18.0765C81.523 17.744 81.643 17.3813 81.9729 17.1697C82.0629 17.1092 82.2129 16.9883 82.3329 17.1092C82.4228 17.1999 82.3329 17.3208 82.3029 17.4417C82.0329 18.016 82.0329 18.0463 82.6928 18.1974C82.9327 18.2579 83.1127 18.3183 83.1727 18.5904C83.3226 19.1043 83.7726 19.2856 84.2525 19.1345C84.5524 19.0438 84.7024 19.0438 84.7024 19.4065C84.5524 20.0413 84.5524 20.7064 84.5824 21.3714C84.4624 21.2807 84.5224 21.1296 84.4924 21.0086C84.3424 20.132 83.7726 19.86 82.9927 19.8297C82.8128 19.8297 82.7228 19.7088 82.6928 19.5577C82.6028 19.2252 82.4828 18.9834 82.0629 19.1345C81.9729 19.1647 81.853 19.1043 81.793 19.0136C81.673 18.7113 81.373 18.4695 81.373 18.0765Z" fill="#FBC4AF"/>
<path d="M81.3732 18.0765C81.4932 18.3485 81.7632 18.5299 81.7932 18.8624C81.8231 19.0136 81.9131 19.1345 82.0631 19.0136C82.573 18.6811 82.633 19.1345 82.723 19.4065C82.7829 19.6181 82.8129 19.7088 83.1129 19.6786C83.3528 19.6484 83.7128 19.739 84.0127 20.0111C84.3426 20.3134 84.5226 20.5552 84.4326 21.0086C83.6228 20.6157 82.8429 20.2529 82.0331 19.86C81.9431 19.2554 81.3132 19.3763 81.0133 19.0438C80.7734 18.802 80.7134 18.9531 80.5634 19.074C80.4734 19.2252 80.3534 19.2252 80.2335 19.1043C80.1435 18.9531 80.0235 18.8624 79.8735 18.7717C79.9635 18.5601 80.0835 18.409 80.2335 18.2579C80.2935 18.2579 80.3834 18.2579 80.4434 18.2579C80.8034 18.5601 80.9833 18.1974 81.2533 18.0463C81.3132 18.0765 81.3432 18.0765 81.3732 18.0765Z" fill="#FBD7C7"/>
<path d="M82.3932 12.1215C82.1533 12.454 81.9733 12.8168 82.0033 13.24C81.7634 13.5423 81.7034 13.9957 81.2835 14.1468C81.1035 14.0561 80.9835 13.905 80.8936 13.7539C81.3435 12.8168 81.0735 11.789 81.3135 10.8217C82.3932 10.8217 82.3932 10.8217 82.3932 12.1215Z" fill="#F59073"/>
<path d="M77.7742 10.3381C76.9644 10.0358 76.7244 9.00801 77.2643 8.19185C77.5343 7.88957 77.7442 7.55706 78.0741 7.285C78.3441 7.22455 78.644 7.16409 78.884 7.37569C78.3441 8.31276 77.9542 9.28007 77.7742 10.3381Z" fill="#F17F62"/>
<path d="M92.2012 10.0962C92.1712 10.3683 92.0212 10.2171 91.9313 10.1567C91.3914 9.79395 90.8215 9.55212 90.2216 9.37075C89.3518 9.06847 88.662 8.49413 87.9121 8.01048C88.0621 7.7082 88.272 7.76866 88.542 7.88957C89.7417 8.40345 90.8215 9.0987 91.9013 9.82418C91.9912 9.91486 92.0812 10.0055 92.2012 10.0962Z" fill="#F17F61"/>
<path d="M82.8729 6.49907C82.9329 6.5293 82.9629 6.58976 83.0229 6.58976C83.6228 6.83158 83.6528 6.83158 83.2629 7.34546C83.1729 7.4966 83.2029 7.58729 83.2629 7.7082C82.663 7.4966 82.0931 7.31524 81.4932 7.10364C81.4032 7.07341 81.3733 7.01295 81.3433 6.92227C81.7632 6.28748 82.3031 6.34793 82.8729 6.49907Z" fill="#F49073"/>
<path d="M77.9841 7.40591C77.8941 7.79888 77.6541 8.07093 77.2642 8.22207C76.8443 7.95002 76.5444 7.58728 76.2744 7.19431C76.8143 6.98272 77.3542 6.89203 77.8941 6.77112C78.194 6.92226 78.134 7.16409 77.9841 7.40591Z" fill="#FAD6C6"/>
<path d="M70.9952 10.731C70.9952 10.5799 70.9952 10.459 70.9952 10.3078C71.1152 10.1567 70.9952 9.9451 71.0852 9.79396C71.3851 9.49168 71.7751 9.31031 72.195 9.00803C71.985 9.67305 71.805 10.2776 71.7751 10.9124C71.6851 11.0938 71.5651 11.2147 71.3551 11.2449C71.0852 11.1845 70.9652 11.0031 70.9952 10.731Z" fill="#F59F83"/>
<path d="M79.1837 15.8698C78.9437 15.4164 78.7338 14.963 78.6438 14.4189C78.5538 14.0259 78.2239 13.6632 77.9839 13.3004C77.684 12.847 77.594 12.3936 77.8939 11.8797C78.1339 12.6657 78.4938 13.4516 78.9737 14.1166C79.0937 14.5398 79.2437 14.963 79.3336 15.3862C79.3636 15.5978 79.4536 15.7792 79.1837 15.8698Z" fill="#F9C4AF"/>
<path d="M85.8723 22.52C85.8723 22.5805 85.8723 22.641 85.9023 22.7014C85.9323 23.0037 86.1722 23.1851 86.2922 23.4269C86.3522 23.6385 86.4122 23.8199 86.5021 24.0315C86.3222 24.2431 86.1422 24.4244 85.9323 24.5756C85.8123 24.5453 85.7523 24.4244 85.7223 24.3337C85.6623 24.2128 85.6923 24.0617 85.6323 23.9408C85.5723 23.578 85.3924 23.2455 85.3924 22.8828C85.3624 22.7316 85.2724 22.52 85.4524 22.4294C85.6023 22.2782 85.7523 22.3991 85.8723 22.52Z" fill="#FDFCFC"/>
<path d="M77.984 7.40591C77.954 7.19431 78.014 6.95249 77.894 6.77112C78.4339 6.68043 78.9438 6.58975 79.6037 6.46883C79.3038 6.8618 79.0938 7.13386 78.8538 7.40591C78.5839 7.40591 78.284 7.40591 77.984 7.40591Z" fill="#F18F71"/>
<path d="M79.1836 15.8698C79.3336 15.5071 79.0337 15.2048 79.0337 14.8723C79.0337 14.6305 78.7937 14.4189 78.9737 14.177C79.1836 14.4491 79.3936 14.6909 79.6035 14.963C79.8435 15.4466 79.9335 15.9303 79.6935 16.4139C79.6635 16.5348 79.5735 16.6255 79.4836 16.686C79.3936 16.3837 79.3036 16.1117 79.1836 15.8698Z" fill="#F9D5C5"/>
<path d="M75.4643 7.43616C75.4943 7.5873 75.5543 7.73844 75.5843 7.91981C75.6143 8.19186 75.6143 8.43369 75.3444 8.64529C75.0744 8.82666 74.9244 8.61506 74.7445 8.52437C74.6545 8.46392 74.5345 8.46392 74.4146 8.43369C74.7445 8.04072 74.9844 7.5873 75.4643 7.43616Z" fill="#F9C3AF"/>
<path d="M81.2832 14.177C81.4932 13.8748 81.6131 13.4516 82.0031 13.2702C82.0031 13.5422 82.303 13.6329 82.393 13.8748C82.303 14.177 82.0031 14.4189 81.9731 14.7514C81.7031 14.6002 81.4632 14.4189 81.2832 14.177Z" fill="#F06C50"/>
<path d="M79.9038 18.802C80.0538 18.7718 80.2337 18.6811 80.2937 18.9531C80.3237 19.1345 80.4137 19.1949 80.5937 19.1043C80.7436 19.4972 81.2235 19.7995 80.9236 20.3436C80.5337 20.132 80.2937 19.7391 80.0838 19.3763C79.9638 19.1949 79.8438 19.1949 79.6938 19.2252C79.6938 19.0438 79.8138 18.8927 79.9038 18.802Z" fill="#FCEFE9"/>
<path d="M76.5743 17.2603C76.2743 17.5021 76.0044 17.4719 75.7944 17.1394C75.6744 16.958 75.4345 16.9278 75.3745 16.686C75.5245 16.4744 75.7344 16.293 75.9744 16.1419C76.1244 16.5651 76.5743 16.8069 76.5743 17.2603Z" fill="#FAD6C6"/>
<path d="M87.372 8.58481C87.7619 8.97778 87.522 9.40097 87.312 9.70325C87.102 9.97531 86.8621 9.73348 86.6821 9.49166C86.8621 9.15915 87.072 8.85686 87.372 8.58481Z" fill="#F07F62"/>
<path d="M79.6935 16.3837C79.6635 15.9 79.6335 15.4164 79.6035 14.9327C79.6335 14.963 79.6935 14.9932 79.7235 15.0234C80.4133 15.6884 80.4133 15.6884 79.6935 16.3837Z" fill="#EF9074"/>
<path d="M85.8725 22.5201C85.5726 22.4294 85.3326 22.3991 85.3626 22.8223C85.2127 22.4898 85.2726 22.1271 85.3026 21.7946C85.6326 21.6132 85.7825 21.6737 85.7825 22.0969C85.7825 22.248 85.8425 22.3991 85.8725 22.5201Z" fill="#F3D6C9"/>
<path d="M80.2936 9.12894C80.1436 9.24985 80.0236 9.40099 79.7837 9.34053C79.8737 8.9778 80.0236 8.67551 80.2636 8.40346C80.3835 8.61506 80.3536 8.85688 80.2936 9.12894Z" fill="#EB7C60"/>
<path d="M71.3555 11.2147C71.4754 11.124 71.6254 11.0031 71.7454 10.9124C71.7754 11.2751 71.7454 11.6681 71.8354 12.0309H71.8054H71.7754C71.3855 11.8797 71.3855 11.5472 71.3555 11.2147Z" fill="#F4F1F0"/>
<path d="M79.1837 23.9106C79.3337 24.1222 79.4237 24.364 79.4837 24.636C79.2137 24.5756 79.1837 24.3338 79.0938 24.1222C79.1237 24.0617 79.1537 24.0012 79.1837 23.9106Z" fill="#4F4D4D"/>
<path d="M73.0949 23.306C73.1848 23.5176 73.3948 23.699 73.3048 23.971C73.1249 23.8501 73.0649 23.699 73.0049 23.5176C73.0349 23.4571 73.0649 23.3967 73.0949 23.306Z" fill="#4C3A35"/>
<path d="M80.2937 9.12894C80.2937 8.88711 80.2937 8.64529 80.2637 8.37323C80.2637 8.343 80.2637 8.31277 80.2937 8.31277C80.4136 8.58483 80.4436 8.85688 80.2937 9.12894Z" fill="#F38D77"/>
<path d="M73.7847 1.57187C73.9346 1.63233 74.1446 1.66255 74.1746 1.87415C73.9646 1.87415 73.7847 1.8137 73.7847 1.57187Z" fill="#969596"/>
<path d="M74.5645 2.05553C74.6844 2.05553 74.7744 2.05553 74.8944 2.05553C74.9844 2.08575 75.0444 2.17644 74.9544 2.2369C74.7744 2.35781 74.6844 2.17644 74.5645 2.05553Z" fill="#DDDDDD"/>
<path d="M85.6024 23.9106C85.7224 24.0012 85.7224 24.1222 85.7524 24.2431C85.7224 24.3035 85.7224 24.364 85.6324 24.364C85.4824 24.364 85.5424 24.1826 85.4824 24.1222C85.4824 24.0919 85.4824 24.0617 85.4824 24.0012C85.5424 24.0012 85.5724 23.9408 85.6024 23.9106Z" fill="#494545"/>
<path d="M71.0856 9.79395C71.0856 9.97532 71.1756 10.1567 70.9956 10.3078C70.9956 10.1567 70.9956 9.97531 70.9956 9.82417C71.0256 9.82417 71.0556 9.79395 71.0856 9.79395Z" fill="#F7AA93"/>
<path d="M64.2769 19.6786C64.2469 19.9507 64.4269 20.0413 64.6368 20.0716C65.0268 20.1018 64.9968 20.2832 64.8768 20.5855C64.7268 20.918 64.6668 21.2505 64.7568 21.6434C64.8468 21.976 64.8168 22.3085 64.4569 22.5805C64.067 22.8828 64.3069 23.3362 64.4269 23.699C64.6069 24.2128 64.6668 24.7267 64.6968 25.2708C64.7568 25.5731 64.7568 25.8754 64.6968 26.1777C64.8468 26.752 64.8768 27.3264 65.0268 27.9007C65.0868 28.1425 65.1767 28.3541 65.2967 28.5657C66.0166 29.7748 66.5265 31.1351 67.3063 32.314C67.6362 32.8581 68.0261 33.3418 68.506 33.8557C68.4461 33.0999 68.1161 32.5558 67.7862 31.9815C67.3663 31.2863 66.9164 30.6515 66.7964 29.8051C66.7364 29.5935 66.7364 29.4121 66.7964 29.2005C66.5864 28.3541 66.0166 27.6286 65.8066 26.7822C65.7466 26.5706 65.7466 26.3893 65.8066 26.1777C65.8666 25.7545 66.0166 25.5429 66.4965 25.5429C66.8264 25.5429 67.1563 25.422 67.4863 25.3615C67.6962 25.422 67.7562 25.6033 67.7862 25.7847C67.7862 25.9056 67.7562 26.0568 67.7262 26.1777C67.5462 26.5706 67.7262 26.7822 68.1161 26.8427C68.2961 26.9636 68.3561 27.145 68.4461 27.3264C68.866 28.3541 69.1359 29.4121 69.8558 30.3189C70.0957 30.6212 70.2157 30.984 70.3057 31.3769C70.3357 31.5281 70.4256 31.6792 70.4556 31.8606C70.3956 32.0722 70.2157 32.042 70.0657 32.1326C69.4359 32.4652 69.1659 33.0999 69.3759 33.7347C69.5558 34.2788 70.3357 34.823 70.9355 34.5811C71.0255 34.5509 71.1155 34.5207 71.2355 34.5509C71.5654 34.6416 71.6854 34.9136 71.8054 35.1857C71.9553 35.5182 72.1953 35.76 72.5252 35.9112C73.335 36.3041 73.9049 36.9994 74.4748 37.6946C74.5948 37.8156 74.6548 37.9667 74.8647 37.9365C75.2546 37.876 75.4946 38.0876 75.7345 38.3294C75.4346 39.0851 75.0147 39.7804 74.6248 40.4756C74.4448 40.8082 74.2648 40.8082 73.9649 40.657C71.2355 39.327 68.9559 37.4528 67.1563 34.9741C64.9968 32.0117 63.857 28.6866 63.737 24.9988C63.5871 23.1549 63.737 21.3714 64.2769 19.6786Z" fill="#F27F62"/>
<path d="M68.086 26.8427C67.4261 26.8427 67.3661 26.7822 67.5761 26.1172C67.6061 25.9963 67.6361 25.8754 67.6961 25.7242C68.5659 25.694 68.6559 25.5731 68.6559 24.636C68.6559 24.1826 68.6259 23.7292 68.8958 23.3362C69.1658 22.9735 69.3157 22.9735 69.5857 23.3664C69.6157 23.4571 69.6457 23.578 69.6157 23.6687C69.4957 24.1524 69.6757 24.4547 70.1256 24.6058C70.1556 25.3917 70.7254 25.422 71.2953 25.422C71.4753 25.5731 71.7452 25.5429 71.9252 25.6638C72.0752 25.7545 72.3451 26.0265 72.2551 26.087C71.8652 26.2986 72.0452 26.6915 71.8952 26.8729C71.5053 27.3868 71.9852 27.5077 72.1951 27.6588C72.4351 27.8402 72.5551 28.0216 72.4951 28.3239C72.4651 28.5052 72.4651 28.6866 72.5551 28.868C72.975 29.5935 73.2149 30.4096 73.4549 31.1956C73.5748 31.5583 73.4549 31.9513 73.7848 32.314C74.5946 33.1906 75.2545 34.1882 76.2743 34.8532C76.4242 34.9439 76.5142 35.0043 76.6642 34.9136C76.5442 36.0018 76.2143 37.0296 75.7644 38.0271C75.6144 38.0574 75.5244 37.9667 75.4644 37.876C75.1645 37.3621 74.6846 37.1203 74.1747 36.8785C73.9348 36.7576 73.7848 36.6064 73.7548 36.3646C73.7248 36.1228 73.6348 35.9414 73.3649 35.9414C73.3049 35.9414 73.2449 35.9414 73.2149 35.9112C72.705 35.2764 71.9552 34.8532 71.6552 34.037C71.6852 33.7347 71.7752 33.4324 71.8952 33.1604C72.1351 33.0092 72.2551 33.2511 72.4051 33.3418C72.5551 33.4324 72.645 33.6138 72.855 33.765C72.735 33.3115 72.4951 32.979 72.2551 32.6465C72.0452 32.314 71.8952 31.9513 71.8052 31.5583C71.5053 30.5608 71.1454 29.5935 70.4855 28.7471C70.2755 28.475 70.1556 28.2332 70.3055 27.8402C70.4855 27.417 70.1556 27.0241 69.6757 26.9938C69.5557 26.9938 69.4357 26.9636 69.3457 26.9334C68.9558 26.7218 68.5359 26.4195 68.086 26.8427Z" fill="#F7A084"/>
<path d="M86.2925 41.5639C86.2325 41.5639 86.1725 41.5639 86.0825 41.5941C85.3027 41.6848 84.5528 41.8964 83.773 42.0777C83.743 42.0777 83.683 42.0777 83.653 42.108C83.4431 42.1986 83.2031 42.108 82.9632 42.1986C82.8732 42.1986 82.7832 42.2289 82.5732 42.2289C83.4431 40.5965 84.1029 38.934 84.4329 37.1505C84.4629 37.1808 84.5228 37.1808 84.5528 37.211C84.7628 37.3924 84.9727 37.3017 85.1527 37.2412C85.8726 36.9994 86.4724 36.546 87.0423 36.0623C87.2523 35.8809 87.2523 35.5787 87.3722 35.3368C87.4322 35.1857 87.5522 35.095 87.6722 35.0346C88.1521 34.7927 88.542 34.3695 89.1419 34.43C89.0519 36.6971 88.2121 38.7224 87.0723 40.6268C86.9523 40.8081 86.8324 40.9895 86.7124 41.1709C86.6524 41.322 86.4125 41.3825 86.2925 41.5639Z" fill="#F27F62"/>
<path d="M87.2819 26.5706C87.4319 26.9636 87.8218 27.2357 87.8818 27.6589C88.0618 28.1727 88.3917 28.6262 88.4817 29.1703C87.7918 29.8353 87.4319 30.8631 86.4421 31.2258C86.3221 31.256 86.2321 31.3467 86.1722 31.4374C85.9022 32.1024 85.2124 32.4652 84.8824 33.0697C84.7625 33.3115 84.6125 33.5534 84.2826 33.4022C84.0126 32.4652 83.6827 31.5583 83.3228 30.6817C83.5027 30.2283 83.8327 29.8958 84.1626 29.5632C84.7625 28.9889 85.1224 28.1425 85.9622 27.7798C86.1722 27.7193 86.3521 27.7798 86.5621 27.81C87.102 27.9007 87.102 27.9007 87.132 27.3868C87.132 27.2961 87.1619 27.1752 87.132 27.0845C87.072 26.9032 87.072 26.7218 87.2219 26.5404C87.1919 26.5404 87.2519 26.5404 87.2819 26.5706Z" fill="#FBC4AF"/>
<path d="M82.213 39.0549C81.883 40.1129 81.3432 41.0802 80.7733 42.0173C80.6833 42.1684 80.5933 42.1987 80.4134 42.1987C78.9737 42.108 77.5339 41.8359 76.1542 41.4429C75.8543 41.3523 75.7943 41.2616 75.9743 40.9895C76.5442 40.1431 76.9341 39.2363 77.354 38.3294C77.474 38.3597 77.534 38.4503 77.5939 38.541C78.2238 39.2363 78.9737 39.3572 79.8435 39.1456C80.6533 38.9642 81.4331 38.9642 82.213 39.0549Z" fill="#F27F62"/>
<path d="M75.5543 27.2356C75.5843 27.2961 75.6443 27.3263 75.6743 27.3868C75.7343 27.5077 75.7043 27.6588 75.7343 27.81C76.2741 29.2005 76.6941 30.591 76.784 32.1024C76.784 32.1931 76.784 32.314 76.784 32.4047C76.784 32.707 76.784 33.0395 76.784 33.4022C76.1542 33.1906 75.6743 32.8883 75.4643 32.2535C75.4343 32.1326 75.3743 32.0117 75.2843 31.9513C74.4445 31.5583 74.2346 30.6514 73.7547 29.9562C73.6647 29.8353 73.7247 29.7144 73.7547 29.5632C73.8147 29.3214 73.7247 29.1098 73.5147 28.9889C73.3048 28.8982 73.2148 28.7773 73.3048 28.5657C73.3947 28.3843 73.4247 28.082 73.7247 28.1425C74.2646 28.2332 74.4745 27.8402 74.7445 27.5077C74.8044 27.4472 74.8644 27.3566 74.8044 27.2961C74.7445 27.2356 74.6545 27.2659 74.5645 27.2659C74.4745 27.2659 74.4145 27.3263 74.3246 27.3263C74.1746 27.3566 74.0246 27.2961 73.9346 27.1752C73.8447 27.0543 73.9646 26.9636 74.0246 26.8729C74.0846 26.752 74.2346 26.6613 74.1446 26.5102C74.0546 26.3893 73.9046 26.4195 73.7847 26.4497C73.3348 26.6009 73.2748 26.3288 73.4247 26.0567C73.6347 25.6033 73.5747 25.0894 73.6947 24.636C74.3245 25.3313 74.8644 26.1172 75.4043 26.9031C75.3743 27.0543 75.4943 27.145 75.5543 27.2356Z" fill="#FBC4AF"/>
<path d="M78.1938 34.0068C78.0438 32.3744 77.5339 30.863 76.874 29.3818C77.5039 29.4725 77.7438 29.926 77.8638 30.4701C77.9238 30.7421 77.9838 30.8933 78.2837 30.9235C78.5837 30.9537 78.8236 31.1049 78.8836 31.4374C78.9436 31.6792 79.1536 31.8001 79.3935 31.8606C79.8134 31.9513 80.2333 32.0419 80.6232 31.9512C81.3431 31.8001 82.0929 31.7397 82.7828 31.3769C83.0227 32.2233 83.1127 33.0999 83.0827 34.0068C83.1727 34.2788 82.9927 34.3091 82.7828 34.3091C82.003 34.3997 81.1931 34.3393 80.5333 34.9136C80.3233 35.095 80.0834 35.0345 79.9034 34.8229C79.7834 34.702 79.6634 34.5811 79.6035 34.43C79.4535 34.1277 79.2435 34.037 78.9136 34.1579C78.6437 34.2788 78.4037 34.2184 78.1938 34.0068Z" fill="#FBC4AF"/>
<path d="M82.8129 31.3467C82.6629 31.649 82.4229 31.7699 82.093 31.8001C81.4931 31.8606 80.9233 32.1024 80.2934 32.1024C79.9635 32.1024 79.6335 32.0117 79.3036 31.9815C79.0636 31.9513 78.8537 31.8303 78.8237 31.5583C78.7637 31.0746 78.4338 31.0142 78.0738 31.0444C77.9239 31.0444 77.8039 31.0746 77.8039 30.8933C77.8639 30.1678 77.414 29.7748 76.9041 29.4121C76.5742 28.8377 76.2442 28.2634 75.9143 27.6891C75.8243 27.6286 75.7343 27.5682 75.7943 27.417C75.8243 27.2356 75.8843 27.0543 75.9143 26.8729C76.5142 26.9031 76.7541 27.3566 76.9041 27.8402C76.9941 28.203 77.234 28.4145 77.534 28.6261C78.1638 29.0796 78.7337 29.6237 79.3336 30.1073C79.3936 30.1678 79.4536 30.2887 79.5735 30.2585C80.4733 29.9864 81.4931 30.1678 82.333 29.5935C82.5729 30.1376 82.7229 30.7421 82.8129 31.3467Z" fill="#FBD7C7"/>
<path d="M84.4929 37.211C84.4929 37.1807 84.4629 37.1505 84.4629 37.1203C84.4629 36.3948 84.4929 35.6391 84.4929 34.9136C84.4629 34.3695 84.6728 34.0672 85.2427 33.8859C85.8426 33.6743 86.5025 33.4627 86.9524 32.8883C86.9824 32.8279 86.9524 32.9186 86.9824 32.8581C87.2823 32.2535 87.6422 31.7397 88.3921 31.5885C88.662 31.5281 88.782 31.1653 88.992 30.9537C89.1419 31.4374 89.2019 31.9513 89.2019 32.4651C89.4718 33.2813 88.962 33.7952 88.4821 34.3393C88.2421 34.6113 87.9422 34.7927 87.7922 35.095C87.7022 35.1555 87.5822 35.2461 87.4923 35.3066C86.8624 35.6693 86.2625 36.0321 85.6326 36.4553C85.2727 36.6971 84.9128 37.0296 84.4929 37.211Z" fill="#F7A084"/>
<path d="M77.474 38.541C77.444 38.4503 77.384 38.3899 77.354 38.2992C77.594 37.5133 77.8339 36.7576 78.0739 35.9716C78.6137 36.0321 79.1836 35.9716 79.6635 36.2437C80.5633 36.7273 81.4332 36.4553 82.303 36.1228C82.5129 36.0321 82.7229 35.8205 82.9928 36.0019C82.9629 36.6971 82.7829 37.3621 82.5729 38.0271C82.333 38.3294 82.003 38.4806 81.6131 38.4806C80.9833 38.4806 80.3234 38.5108 79.7235 38.8433C79.4836 38.9642 79.1836 38.9945 78.9137 38.8735C78.4638 38.7224 77.9239 38.8735 77.474 38.541Z" fill="#F7A084"/>
<path d="M82.9932 36.0321C82.4233 36.0925 82.0034 36.5157 81.4335 36.6064C80.7737 36.7273 80.1738 36.7576 79.5739 36.3948C79.274 36.2135 78.9141 36.3041 78.6141 36.2437C78.4341 36.2135 78.2242 36.2135 78.0742 36.0321C78.1342 35.3671 78.2242 34.702 78.1942 34.037C78.5241 34.0975 78.8241 34.1882 79.154 33.9766C79.334 33.8556 79.5139 33.9463 79.6039 34.1579C79.6339 34.2486 79.6939 34.3393 79.7539 34.43C80.2938 35.0346 80.1738 35.1555 80.8337 34.5811C80.9536 34.4904 81.1036 34.3393 81.2236 34.3695C81.7934 34.5207 82.3333 33.9766 82.9032 34.2184C83.0532 34.2788 83.0832 34.1277 83.1132 34.0068C83.1432 34.6718 83.1132 35.3368 82.9932 36.0321Z" fill="#F8AF96"/>
<path d="M88.9917 30.9537C88.8718 31.4374 88.5118 31.8303 88.0319 31.8908C87.762 31.921 87.552 31.9815 87.4921 32.2233C87.1921 33.372 86.1723 33.7045 85.2725 34.0068C84.7326 34.1881 84.6726 34.5207 84.5227 34.8834C84.4327 34.3695 84.3727 33.8859 84.2827 33.372C84.5227 33.3418 84.6726 33.2208 84.7926 33.0092C84.9426 32.6767 85.1225 32.314 85.5425 32.2233C85.6024 32.2233 85.6624 32.1024 85.6924 32.0419C85.8124 31.3769 86.3223 31.1049 86.8022 30.8026C87.2821 30.5003 87.732 30.2585 87.822 29.6237C87.882 29.2912 88.1519 29.14 88.4818 29.14C88.7518 29.7446 88.9018 30.3492 88.9917 30.9537Z" fill="#F8AF96"/>
<path d="M85.9023 27.8705C85.7823 28.0518 85.6623 28.2332 85.4224 28.2634C85.2424 28.2937 85.0625 28.4448 85.0625 28.5657C85.0925 29.1703 84.4326 29.2005 84.2226 29.5935C83.9827 29.9864 83.6827 30.3492 83.3228 30.6817C83.0529 30.1678 82.8129 29.6842 82.543 29.1703C82.8429 28.8075 83.3828 28.6564 83.5028 28.1123C83.5928 27.7798 84.0427 27.7495 84.2226 27.4775C84.2826 27.4775 84.3426 27.4775 84.4026 27.4775C84.8825 27.3868 85.3024 27.6286 85.7523 27.7193C85.8123 27.7193 85.8723 27.7798 85.9023 27.8705Z" fill="#FBD7C7"/>
<path d="M71.7752 34.0068C71.8352 34.3393 72.1051 34.5811 72.3151 34.7625C72.555 34.9439 72.705 35.1555 72.8849 35.3671C73.0649 35.6089 73.2449 35.9112 73.6348 35.8507C73.7248 35.8205 73.8747 35.8809 73.8447 36.0018C73.7248 36.5762 74.1147 36.7878 74.5046 36.9389C75.0745 37.1505 75.3744 37.6342 75.7343 38.0574C75.7044 38.1178 75.6744 38.2085 75.6444 38.269C75.2544 38.2085 74.9545 37.8155 74.5046 38.0574C74.4746 38.0574 74.4146 37.9969 74.3846 37.9365C73.8447 37.0296 73.1249 36.3344 72.1951 35.8809C71.9551 35.76 71.8352 35.5787 71.7152 35.3368C71.5652 35.0648 71.5052 34.7323 71.1753 34.5811C71.2953 34.2788 71.4752 34.0975 71.7752 34.0068Z" fill="#F59073"/>
<path d="M77.4741 38.541C78.014 38.7224 78.5839 38.541 79.1238 38.7829C79.2737 38.8433 79.6637 38.8131 79.9336 38.5713C80.2036 38.2992 80.6535 38.3899 81.0134 38.3597C81.5533 38.3294 82.0932 38.3597 82.5731 38.0272C82.5131 38.3899 82.3931 38.7224 82.2131 39.0549C81.1334 39.1758 80.0536 39.2363 78.9738 39.3874C78.4339 39.4479 77.834 39.1154 77.4741 38.541Z" fill="#F59073"/>
<path d="M83.8027 42.0475C84.5226 41.715 85.3024 41.5034 86.1123 41.5638C86.0523 41.715 85.9023 41.6243 85.8123 41.6848C85.1225 41.8661 84.4626 42.0475 83.8027 42.0475Z" fill="#E9C4B5"/>
<path d="M82.9927 42.1684C83.2026 42.0173 83.4426 42.0475 83.6825 42.0777C83.4726 42.1986 83.2326 42.1684 82.9927 42.1684Z" fill="#DAA696"/>
<path d="M75.7647 27.3868C75.7947 27.4775 75.8247 27.5682 75.8847 27.6588C75.8547 27.6891 75.7947 27.7495 75.7647 27.7798C75.6747 27.6588 75.4948 27.5379 75.7047 27.3566C75.7347 27.3868 75.7347 27.3868 75.7647 27.3868Z" fill="#473A37"/>
<path d="M86.2923 47.3072C86.1124 47.3072 85.9624 47.2468 85.9624 47.0352C86.1424 47.0654 86.2623 47.1258 86.2923 47.3072Z" fill="#A3A2A2"/>
<path d="M91.601 17.7742C91.571 17.4115 91.451 17.079 91.1211 16.8371C90.7912 16.5953 90.5812 16.2628 90.3713 15.8698C90.1313 15.4466 89.7414 15.0839 89.3815 14.6909C89.2615 14.5398 89.1715 14.3887 89.0815 14.2375C89.5914 14.2073 90.0713 14.2375 90.2513 14.9025C90.3113 15.1444 90.6112 15.356 90.8212 15.5071C91.2111 15.7792 91.511 16.0814 91.661 16.5349C91.721 16.7767 91.841 16.686 91.9909 16.686C92.4708 16.9581 92.9507 17.2301 93.4606 17.3813C93.8206 17.8045 94.4804 17.7742 94.8103 18.2579C94.9903 18.5299 95.1703 18.7718 94.9003 19.074C94.8103 19.195 94.7204 19.3461 94.8103 19.4972C94.9303 19.6786 95.1103 19.6181 95.2603 19.5577C95.5602 19.4368 95.8901 19.4972 96.1901 19.4368C96.67 19.3461 97.0299 19.6484 97.1499 20.1018C97.3898 20.9482 97.5998 21.7644 97.8097 22.6107C97.8997 23.0037 97.8397 23.3665 97.8697 23.7594C97.6897 23.8501 97.8697 23.971 97.8397 24.0919C97.8997 24.2128 97.8997 24.3338 97.9597 24.4547C98.5296 24.8476 98.5596 25.3011 98.1097 25.8452C97.8397 26.1475 97.9297 26.6009 97.8697 26.9938C97.9597 27.2357 97.9597 27.4775 97.8697 27.6891C97.8397 27.7798 97.8697 27.9309 97.8097 27.9611C97.2098 28.3843 97.6598 28.8075 97.8097 29.2307C98.3196 29.0191 98.2896 28.4146 98.5296 28.0518C98.5896 27.9612 98.6495 27.6891 98.7695 28.0216C98.6495 28.9285 98.3796 29.7748 98.0197 30.6212C97.8097 30.8026 97.5398 30.8933 97.4198 31.1653C97.3598 31.3165 97.3598 31.4676 97.3598 31.649C97.3598 31.8304 97.2998 31.9815 97.2398 32.1327C96.9399 32.5256 96.67 32.9488 96.43 33.4022C96.0701 33.8254 95.6502 34.2184 95.3202 34.6718C94.9003 35.1857 94.2705 35.4275 93.6406 35.6089C93.4306 35.5484 93.3407 35.3671 93.2207 35.2159C92.9207 34.9137 92.6508 34.9137 92.4708 35.2764C92.2609 35.76 91.9909 36.2135 91.9909 36.7878C91.841 37.211 91.451 37.3924 91.1211 37.6342C90.6112 37.9969 90.1913 38.4201 89.8914 38.9642C89.8014 39.1154 89.7414 39.327 89.5015 39.2665C89.9814 37.9667 90.4613 36.6669 90.4913 35.2462C90.5212 34.5207 90.3713 33.8254 90.3113 33.1C90.7612 33.0395 91.0611 32.7674 91.3311 32.4349C91.781 31.8606 92.2309 31.3165 92.5908 30.7119C92.7708 30.4399 92.9507 30.1678 93.1907 29.9562C93.8206 29.3819 94.0905 28.6262 94.3005 27.81C94.3604 27.538 94.3304 27.2357 94.6004 27.0241C94.5104 25.9056 94.8403 24.8174 94.9003 23.699C94.9303 23.0944 94.7803 22.5805 94.4204 22.0969C93.8505 21.3714 93.4306 20.5855 93.0107 19.7693C92.8907 19.3461 92.7408 18.9531 92.3209 18.7718C92.1409 18.5904 92.0509 18.3183 91.9309 18.0765C91.901 17.9254 91.811 17.7742 91.601 17.7742Z" fill="#F27F62"/>
<path d="M89.5918 39.2665C89.6218 39.2665 89.6218 39.2665 89.6218 39.2363C90.1017 38.1783 91.0315 37.5737 91.9013 36.8785C91.9313 36.8482 91.9613 36.818 91.9913 36.7576C92.5312 36.3041 93.0111 35.76 93.6709 35.488C94.9007 35.1857 95.5905 34.1579 96.3704 33.3115C96.6403 33.1604 96.6703 33.1604 96.7603 33.2813C95.8305 34.9439 94.6307 36.3948 93.191 37.6946C92.0513 38.7224 90.8215 39.5688 89.4718 40.2943C89.3218 40.3849 89.2019 40.4756 88.9619 40.4756C89.2019 40.0524 89.3818 39.6595 89.5918 39.2665Z" fill="#FBD7C7"/>
<path d="M88.7817 28.868C89.2017 28.5959 89.7115 28.4146 89.6216 27.7193C89.5616 27.3566 89.9815 27.2961 90.2514 27.1752C90.8813 26.9334 90.8813 26.9334 90.5814 26.3288C90.7613 26.1474 90.9713 26.1777 91.1812 26.1777C91.7211 26.2079 92.261 26.1777 92.7709 26.4497C92.5909 27.0845 92.171 27.5682 91.7511 28.0518C91.0613 28.8982 90.3414 29.7446 89.5316 30.5003C89.3216 29.9562 89.0517 29.4121 88.7817 28.868Z" fill="#F8AF96"/>
<path d="M94.6907 27.0543C94.5107 27.9611 94.3607 28.9284 93.7309 29.6539C93.251 30.2282 92.7711 30.8328 92.3212 31.4676C91.8713 32.0722 91.4813 32.7674 90.7915 33.1604C90.6415 33.2511 90.5215 33.3418 90.3716 33.1302C90.3116 32.8581 90.2516 32.5861 90.1616 32.314C90.7615 32.0722 91.3314 31.6187 91.5713 31.1351C91.8413 30.6212 92.2312 30.3794 92.6211 30.0469C93.131 29.5632 93.4009 28.8982 93.7009 28.2634C94.0008 27.7798 94.2708 27.3566 94.6907 27.0543Z" fill="#F59073"/>
<path d="M98.5897 19.7693C98.5597 19.8902 98.5297 19.9809 98.4397 19.7995C98.2897 19.4972 98.1698 19.1949 98.0198 18.8927C97.8398 18.5299 97.6899 18.1974 97.3299 17.9556C96.82 17.5928 96.85 16.8371 97.2699 16.3233C97.8998 17.4115 98.3197 18.5602 98.5897 19.7693Z" fill="#F07F61"/>
<path d="M87.7918 35.1252C87.7618 34.9136 87.8817 34.7927 88.0017 34.6416C88.3616 34.2788 88.6916 33.8859 89.0215 33.5231C89.3214 33.2208 89.1115 32.8279 89.2015 32.4651C89.3214 33.0999 89.3214 33.7649 89.2015 34.3997C88.6916 34.5811 88.2417 34.8229 87.7918 35.1252Z" fill="#F38F72"/>
<path d="M97.3901 31.0747C97.4801 30.7421 97.7501 30.6212 98.08 30.5608C97.87 31.1653 97.6601 31.7397 97.3001 32.2838C97.2102 32.2233 97.2702 32.1326 97.1802 32.0722C97.2102 31.8908 97.2402 31.7397 97.2702 31.5583C97.4201 31.4374 97.2702 31.2258 97.3901 31.0747Z" fill="#F08E71"/>
<path d="M97.1802 32.1024C97.2702 32.1629 97.2702 32.2233 97.3002 32.314C97.1802 32.6767 97.0003 32.979 96.7903 33.2813C96.6703 33.2813 96.5204 33.2813 96.4004 33.3115C96.6703 32.9186 96.8203 32.4349 97.1802 32.1024Z" fill="#EF9074"/>
<path d="M86.292 41.5638C86.352 41.2918 86.5919 41.2313 86.7719 41.1709C86.7119 41.4127 86.502 41.5034 86.292 41.5638Z" fill="#E2BBAC"/>
<path d="M75.4947 21.5225C75.3147 21.2504 75.1648 20.9784 75.4047 20.6761C75.5247 20.525 75.3747 20.132 75.7646 20.1925C75.8846 20.4947 76.2146 20.5552 76.4545 20.8575C76.0946 20.8877 75.9146 21.0691 75.8846 21.4016C75.8546 21.7039 75.6147 21.4318 75.4947 21.5225Z" fill="#FBD7C8"/>
<path d="M75.2846 24.243C75.1347 24.3035 74.9247 24.4546 74.8347 24.2128C74.7148 24.0012 74.8947 23.9408 75.0747 23.9105C75.2247 23.8803 75.1947 23.7292 75.1947 23.6385C75.3446 23.8199 75.2547 24.0315 75.2846 24.243Z" fill="#FBD9CA"/>
<path d="M76.0644 26.0567C75.9444 26.0265 75.7944 25.9963 75.8544 25.8149C75.9444 25.6033 75.7944 25.422 75.7944 25.2406C76.0644 25.301 76.5443 25.2708 76.0344 25.7242C75.9444 25.8149 76.0644 25.9358 76.0644 26.0567Z" fill="#FBDACB"/>
<path d="M93.4607 17.351C92.8608 17.3813 92.3509 17.1697 91.991 16.6558C91.6311 15.5978 91.991 14.7514 92.8608 14.5398C93.5807 14.3584 94.3005 14.7514 94.5405 15.4164C94.7804 16.1419 94.4505 16.9581 93.7306 17.2301C93.6406 17.2906 93.5507 17.3208 93.4607 17.351Z" fill="#231F20"/>
<path d="M91.511 13.3307C91.8409 12.4843 91.2411 12.0913 90.6112 11.6983C90.1613 11.4263 89.6514 11.2449 89.4115 10.7008C89.3515 10.5497 89.2315 10.3985 89.4115 10.2474C89.5914 10.0962 89.7114 10.2474 89.8614 10.3381C91.0611 11.0333 92.0209 11.9704 92.7108 13.1795C93.0107 13.6632 92.6208 13.7539 92.4108 13.9352C92.1409 14.1771 91.9009 14.2375 91.721 13.8445C91.631 13.6934 91.451 13.5725 91.511 13.3307Z" fill="#F28062"/>
<path d="M88.7819 13.8445C88.722 13.8748 88.632 13.9352 88.602 13.905C87.9721 13.5423 87.1623 13.512 86.7424 12.7865C86.5924 12.5145 86.2925 12.3331 86.0825 12.1215C86.2925 11.8192 86.5324 11.8495 86.8024 12.0308C86.9523 12.1518 87.1023 12.2727 87.3123 12.2122C87.9121 12.0913 88.362 12.3936 88.8119 12.7261C89.1119 12.9377 89.2019 13.1191 88.9919 13.4213C88.9019 13.5725 88.8419 13.7236 88.7819 13.8445Z" fill="#F28062"/>
<path d="M97.81 24.1221C97.75 24.0012 97.72 23.8803 97.66 23.7594C97.63 23.6687 97.63 23.578 97.72 23.578C97.78 23.578 97.81 23.6687 97.87 23.7292C97.87 23.8199 97.87 23.9105 97.9 24.0012C97.93 24.1221 97.9 24.1524 97.81 24.1221Z" fill="#FACCBB"/>
<path d="M97.8999 27.6588C97.8999 27.417 97.8999 27.1752 97.8999 26.9636C98.0499 27.1752 98.0499 27.417 97.8999 27.6588Z" fill="#F38973"/>
<path d="M97.8101 24.1221C97.8401 24.0919 97.87 24.0617 97.9 24.0315C98.02 24.1524 97.99 24.3035 97.99 24.4547C97.87 24.364 97.8401 24.2431 97.8101 24.1221Z" fill="#F8B7A5"/>
<path d="M69.4957 23.4269C69.3457 23.0339 69.1957 23.1246 69.0158 23.3967C68.7758 23.7594 68.8058 24.1826 68.8058 24.6058C68.8058 24.8174 68.8358 24.9988 68.8058 25.2104C68.7458 25.8149 68.2959 26.0265 67.6961 25.7242C67.6361 25.6033 67.5461 25.4522 67.4861 25.3313C67.3961 24.8174 67.3061 24.3337 67.1862 23.8199C67.1262 23.7594 67.0362 23.699 67.0362 23.6385C66.9462 23.2153 66.7063 22.9432 66.2863 22.8223C66.1964 22.7921 66.1364 22.7014 66.0764 22.6107C66.0764 22.5805 66.0764 22.5805 66.0764 22.5503C65.6865 21.9759 65.6865 21.4016 66.1064 20.8273C66.4663 20.3134 66.0764 19.7391 66.1964 19.1647C66.3163 18.5904 66.4963 18.0463 67.0962 17.744C67.3061 17.8347 67.5161 17.9254 67.726 18.0463C68.026 18.1974 68.176 18.4997 68.086 18.7415C67.786 19.4065 67.906 20.132 67.726 20.797C67.6961 20.918 67.6361 21.0691 67.6361 21.19C67.6361 21.3714 67.3661 21.5527 67.5461 21.6737C67.756 21.8248 68.026 21.9155 68.2959 21.8248C68.4759 21.7643 68.6559 21.6737 68.8358 21.6737C69.1657 21.6434 69.5257 21.6737 69.5557 22.1573C69.5557 22.3387 69.6456 22.4294 69.8256 22.4596C70.2755 22.5503 70.6954 22.7317 71.1453 22.641C71.4153 23.3664 71.4153 23.3664 70.6654 23.971C70.5755 24.0617 70.4855 24.0617 70.3955 24.0617C69.9456 24.0012 69.7056 23.699 69.4957 23.4269Z" fill="#FBD7C7"/>
<path d="M71.3552 11.2147C71.5352 11.4565 71.5352 11.8192 71.7751 12.0308C71.7151 12.182 71.6851 12.3634 71.6252 12.5145C71.5352 12.7866 71.3552 12.9377 71.0553 12.7866C70.8153 12.6959 70.6054 12.6354 70.4554 12.9075C70.1555 13.4818 69.6156 13.6934 69.0757 13.8445C69.5856 12.7261 70.2154 11.6983 70.9653 10.731C71.1153 10.8822 71.1752 11.0938 71.3552 11.2147Z" fill="#FBD7C7"/>
<path d="M67.0662 17.7742C66.6463 18.1672 66.4363 18.7113 66.1664 19.1949C66.0164 18.9531 65.7765 18.7717 65.7465 18.409C65.6865 17.3812 65.9864 17.079 67.1562 17.0487C67.3961 17.351 67.2462 17.5626 67.0662 17.7742Z" fill="#F8AF97"/>
<path d="M67.606 16.4744C67.7259 15.9605 68.0259 15.5373 68.2058 15.0537C68.2958 14.963 68.4158 14.963 68.5058 15.0537C68.3258 15.3862 68.7157 15.4466 68.8357 15.628C68.9557 15.8094 69.1956 15.9303 69.0757 16.1721C68.9557 16.4442 68.7457 16.5953 68.4458 16.5651C68.1458 16.5348 67.8759 16.5046 67.606 16.4744Z" fill="#FBD7C8"/>
<path d="M68.4761 15.0839C68.3861 15.0839 68.2661 15.0839 68.1761 15.0839C68.1461 14.8118 67.9962 14.6305 67.8162 14.4491C67.7262 14.3584 67.6363 14.2375 67.7262 14.0864C67.8162 13.9352 67.9062 13.8748 68.0862 13.9352C68.3561 13.9957 68.626 14.0259 68.896 14.0561C68.896 14.4491 68.956 14.8723 68.4761 15.0839Z" fill="#F8B097"/>
<path d="M70.2755 18.8927C70.2455 19.2554 70.2155 19.6484 69.8256 19.6484C69.5257 19.6786 69.5857 19.3159 69.5557 19.1043C69.5557 18.7718 69.6756 18.4695 70.0056 18.4392C70.3955 18.409 70.2155 18.7415 70.2755 18.8927Z" fill="#FBD9CA"/>
<path d="M90.5812 25.7545C90.2812 25.5429 90.5212 25.301 90.5812 25.0894C90.7311 24.6662 90.5212 24.364 90.2212 24.1524C89.8913 23.9105 89.6514 24.2128 89.4114 24.3337C89.2615 24.3942 89.2015 24.5453 89.3514 24.6965C89.4414 24.7872 89.5314 24.9081 89.4114 24.9988C89.2315 25.1499 88.9915 25.2104 88.7516 25.1801C88.6016 25.1499 88.5716 25.029 88.6016 24.9081C88.6016 24.6662 88.5116 24.4547 88.3616 24.2733C88.2417 24.1221 88.2717 24.0617 88.3616 23.9105C88.5116 23.6989 88.7516 23.4571 88.3017 23.1851C88.0617 23.0339 87.8517 22.6712 87.9717 22.3084C88.0617 22.0062 87.9417 21.855 87.6418 21.855C87.3419 21.855 87.3119 21.6434 87.2819 21.4016C87.2519 21.0389 87.3419 20.6157 86.832 20.4645C86.772 20.4343 86.772 20.2529 86.772 20.132C87.1619 20.0716 87.3718 19.8297 87.5218 19.467C87.4318 19.4368 87.3419 19.4368 87.2819 19.4065C87.1019 19.3159 86.802 19.2554 86.892 19.0438C86.9819 18.802 87.2219 18.5601 87.5518 18.6206C87.8517 18.6811 87.8518 18.9229 87.7918 19.1345C87.7318 19.3159 87.7618 19.4065 87.9717 19.4065C88.7815 19.4065 89.4114 19.8297 90.1013 20.1622C90.2812 20.2529 90.4312 20.3738 90.2812 20.6761C90.1613 20.9482 90.3712 21.3109 90.5812 21.4318C91.211 21.7946 91.391 22.4596 91.631 23.0339C91.6909 23.1851 91.7809 23.2757 91.9009 23.306C92.4108 23.3967 92.5008 23.6989 92.4408 24.1524C91.6609 24.3337 91.0311 24.6965 90.8211 25.5429C90.7311 25.6033 90.6712 25.694 90.5812 25.7545Z" fill="#F8AF96"/>
<path d="M90.5815 25.7545C90.7315 24.9081 91.2114 24.364 92.0212 24.1221C92.1712 24.0919 92.2612 24.0617 92.3811 24.1524C92.5911 24.5453 92.4711 24.9988 92.5011 25.3917C92.5911 25.2708 92.6811 25.1197 92.861 25.0895C93.3709 25.422 93.3709 25.8754 92.891 26.4497C92.861 26.4497 92.831 26.4497 92.801 26.48C92.0512 26.48 91.3314 26.2986 90.5815 26.359C90.1616 26.1474 90.6115 25.9358 90.5815 25.7545Z" fill="#FBE1D3"/>
<path d="M92.8911 26.4497C93.0111 26.0265 93.401 25.5731 92.8911 25.1499C92.8311 25.0894 92.8611 25.029 92.9211 24.9685C93.191 24.7267 93.371 24.364 93.7009 24.1524C93.9409 24.0012 94.0308 24.0315 94.1208 24.364C94.2108 24.7569 94.2708 25.0894 94.2108 25.4824C94.1208 26.0265 93.9409 26.359 93.371 26.3893C93.221 26.3893 93.0711 26.4799 92.8911 26.4497Z" fill="#FBDECF"/>
<path d="M92.3809 18.802C93.0107 18.8927 93.0707 18.9833 93.0707 19.7995C92.5008 19.7088 92.4408 19.2554 92.3809 18.802Z" fill="#F59173"/>
<path d="M92.8908 24.9383C92.8908 24.9988 92.8908 25.0592 92.8608 25.1197C92.7108 25.3011 92.5608 25.4522 92.3809 25.7242C92.3809 25.1499 92.3809 24.636 92.3809 24.1222C92.6808 24.3338 92.7108 24.6663 92.8908 24.9383Z" fill="#F8AF97"/>
<path d="M66.0763 22.6107C66.7062 22.7619 67.1561 23.0944 67.1561 23.8199C65.8064 23.8803 66.1063 23.8501 66.0763 22.6107Z" fill="#FBC4AF"/>
<path d="M64.6665 26.1474C64.6665 25.8451 64.6665 25.5429 64.6665 25.2406C64.8465 25.5429 64.8465 25.8451 64.6665 26.1474Z" fill="#F49780"/>
<path d="M65.7765 26.1474C65.7765 26.359 65.7765 26.5404 65.7765 26.752C65.6266 26.5404 65.6266 26.359 65.7765 26.1474Z" fill="#F4967F"/>
<path d="M66.7663 29.1703C66.7663 29.3819 66.7663 29.5632 66.7663 29.7748C66.6163 29.5632 66.6163 29.3819 66.7663 29.1703Z" fill="#F49881"/>
<path d="M70.2757 24.0315C70.3657 24.0315 70.4857 24.0315 70.5757 24.0315C70.7256 24.2733 71.0555 24.2128 71.2355 24.4547C71.5055 24.7872 71.2355 25.1197 71.2655 25.4522C71.1455 25.4824 71.0256 25.5429 70.9056 25.5429C70.2457 25.6033 70.0958 25.3917 70.0658 24.636C70.0058 24.4547 70.1257 24.3337 70.2457 24.2733C70.5157 24.2128 70.1557 24.0919 70.2757 24.0315Z" fill="#FBC4AF"/>
<path d="M85.9025 24.5453C85.9925 24.2431 86.2024 24.1221 86.4723 24.0315C86.8023 24.4547 87.0122 24.9383 87.3722 25.3313C87.4921 25.4824 87.2822 25.5126 87.1622 25.5429C86.9822 25.5731 86.7423 25.422 86.6823 25.7545C86.4424 25.8149 86.3824 25.5731 86.2324 25.4824C86.0824 25.2406 85.9025 25.029 85.8125 24.7569C85.8125 24.636 85.8425 24.5756 85.9025 24.5453Z" fill="#F9E3D8"/>
<path d="M86.2921 25.422C86.5021 25.422 86.5021 25.694 86.682 25.7242C86.682 25.8149 86.712 25.8754 86.772 25.9358C87.0719 26.0265 87.1919 26.2381 87.1619 26.5404C87.2219 26.6915 87.0419 26.8729 87.1619 27.0241C87.0119 27.145 86.892 27.0543 86.742 26.9636C86.592 26.4799 86.2621 26.2079 85.7822 26.087C85.5722 26.0265 85.3323 25.9358 85.4223 25.6033C85.4523 25.5126 85.4823 25.3917 85.5423 25.301C85.8422 25.1801 86.0521 25.422 86.2921 25.422Z" fill="#FAD7C7"/>
<path d="M87.1922 26.5706C87.0722 26.359 86.9222 26.1474 86.8022 25.9661C86.9522 25.8754 87.6121 26.0265 87.6421 26.2079C87.7021 26.4497 87.4921 26.5404 87.3121 26.6009C87.2522 26.5706 87.2222 26.5706 87.1922 26.5706Z" fill="#F4D1C1"/>
<path d="M86.2923 23.4269C86.1123 23.2153 85.6624 23.1548 85.9024 22.7014C86.5622 22.6712 86.3223 23.0944 86.2923 23.4269Z" fill="#FBD8C9"/>
<path d="M75.5545 27.2357C75.3445 27.2054 75.2546 27.1147 75.3745 26.9334C75.5245 26.9636 75.5545 27.0845 75.5545 27.2357Z" fill="#745C54"/>
<path d="M85.4825 25.6336C85.5725 26.0568 85.9924 26.0265 86.2924 26.1474C86.7123 26.2986 86.8022 26.5706 86.7722 26.9636C86.7123 27.0543 86.5323 26.9636 86.5323 27.2054C86.5623 27.6891 86.2924 27.8402 85.7525 27.7495C85.2726 27.7495 84.8227 27.5984 84.3428 27.4473C84.5527 26.9636 84.8527 26.5706 85.2126 26.2079C85.3326 26.087 85.3626 25.9056 85.3626 25.7545C85.4225 25.694 85.4525 25.6638 85.4825 25.6336Z" fill="#FCE8DE"/>
<path d="M86.2923 25.422C86.0224 25.694 85.8424 25.2708 85.6024 25.3313C85.5424 25.2708 85.5124 25.1801 85.4525 25.1499C84.9725 24.636 84.9726 24.636 85.4825 24.2431C85.5124 24.2128 85.5124 24.1826 85.5124 24.1524C85.5724 24.2128 85.6324 24.3035 85.6924 24.364C85.8424 24.4546 85.8424 24.6058 85.9024 24.7267C86.1123 24.9081 86.2323 25.1499 86.2923 25.422Z" fill="#FBEEE7"/>
<path d="M81.2835 18.0765C81.2535 18.1067 81.2535 18.137 81.2235 18.1672C81.0435 18.5904 80.8036 18.7113 80.4736 18.2881C80.5636 18.1974 80.6236 18.137 80.7136 18.0463C80.9235 17.7138 81.1035 17.7742 81.2835 18.0765Z" fill="#FBC4AF"/>
<path d="M83.6826 13.24C83.8626 13.24 84.0126 13.24 84.1925 13.24C84.0126 13.3911 83.8626 13.3911 83.6826 13.24Z" fill="#F49982"/>
<path d="M85.8726 24.7267C85.7226 24.636 85.7526 24.4849 85.6626 24.364C85.6926 24.3337 85.7226 24.2733 85.7526 24.243C85.8126 24.3337 85.8426 24.4244 85.9025 24.5453C85.9025 24.6058 85.8726 24.6662 85.8726 24.7267Z" fill="#231F20"/>
<path d="M68.0859 26.8427C68.3559 26.3893 68.6858 26.359 69.1357 26.6311C69.4057 26.7822 69.7356 26.9636 70.0655 26.7822C70.0955 26.752 70.2455 26.8125 70.2455 26.8427C70.3055 27.2054 70.7854 27.5077 70.4554 27.9309C70.3055 28.1123 70.3355 28.2634 70.4854 28.4448C71.2353 29.4121 71.7452 30.5305 72.0151 31.7094C72.1351 32.2535 72.555 32.6767 72.795 33.1604C72.9149 33.4022 73.0649 33.644 73.0649 34.0068C72.585 33.7952 72.405 33.2813 71.9851 33.0999C71.9551 33.0999 71.8951 33.0697 71.8951 33.0395C71.6852 32.4349 71.2053 32.1024 70.6654 31.8606C70.6354 31.5583 70.5154 31.3769 70.1855 31.3769C69.7356 30.1678 68.8358 29.14 68.4759 27.8704C68.3859 27.5379 68.2059 27.2054 68.0859 26.8427Z" fill="#F59073"/>
<path d="M70.6656 31.8001C71.3854 31.9513 71.8353 32.3745 71.9853 33.1C71.9853 33.4325 71.8953 33.7045 71.8053 34.0068C71.6254 34.2184 71.4454 34.3998 71.2055 34.5509C70.6056 34.7625 70.0657 34.7323 69.5858 34.2789C69.1659 33.8859 69.0759 33.4022 69.1959 32.8581C69.3758 32.2536 69.8258 31.9513 70.4256 31.8001C70.4856 31.7094 70.5756 31.7094 70.6656 31.8001Z" fill="#231F20"/>
<path d="M70.6658 31.8001C70.5758 31.8001 70.4858 31.8001 70.3958 31.8001C70.1259 31.7699 70.1859 31.5583 70.1859 31.3769C70.3658 31.0746 70.5158 31.3467 70.6358 31.4072C70.7857 31.4978 70.8457 31.649 70.6658 31.8001Z" fill="#F49F84"/>
<path d="M70.2756 24.0315C70.6355 24.364 70.0656 24.4244 70.0656 24.636C69.3758 24.5151 69.3758 24.5151 69.4657 23.8199C69.4657 23.699 69.4657 23.5478 69.4657 23.4269C69.8257 23.5176 70.0056 23.8501 70.2756 24.0315Z" fill="#F8B098"/>
<path d="M84.4927 37.211C84.6726 36.9994 84.8226 36.7878 85.0026 36.6064C85.0326 36.5762 85.0626 36.4855 85.0925 36.4855C85.8124 36.4855 86.1123 35.8205 86.6822 35.5484C86.9521 35.4275 87.2221 35.3671 87.492 35.3066C87.492 35.7298 87.3421 36.0321 86.9821 36.3041C86.3823 36.7273 85.7824 37.1808 85.0626 37.3924C84.8526 37.4528 84.5827 37.6039 84.4927 37.211Z" fill="#F59073"/>
<path d="M85.7822 27.7496C86.2321 27.7496 86.5321 27.5984 86.4421 27.0543C86.4121 26.9334 86.4421 26.9334 86.772 26.9636C86.892 26.9938 87.042 27.0241 87.1619 27.0543C87.1619 27.0845 87.1919 27.1148 87.1919 27.145C87.102 28.0821 87.102 28.0821 86.1422 27.9007C86.0522 27.8705 85.9322 27.9007 85.8422 27.9007C85.8422 27.8402 85.8122 27.81 85.7822 27.7496Z" fill="#FBE5D8"/>
<path d="M93.6709 35.488C93.101 35.9112 92.6211 36.4553 91.9912 36.7575C91.9012 36.425 92.3511 35.0043 92.5911 34.8834C92.831 34.7625 93.101 34.7625 93.3109 35.0043C93.4609 35.1857 93.5509 35.3368 93.6709 35.488Z" fill="#F16D50"/>
<path d="M97.3899 31.0747C97.3599 31.256 97.4499 31.4374 97.2999 31.5885C97.2999 31.4072 97.2399 31.2258 97.3899 31.0747Z" fill="#F59C85"/>
<path d="M3.59925 37.6644C6.02874 37.6342 7.16851 36.6064 7.16851 34.43V30.2887C7.16851 28.203 6.14872 27.2357 3.92918 27.2357H3.47927C3.08936 27.2357 2.8794 26.9636 2.8794 26.6915V15.8094C2.8794 15.3862 3.14934 15.0839 3.56926 15.0839C3.98917 15.0839 4.25911 15.3862 4.25911 15.8094V18.4695H7.13851V15.8094C7.13851 13.6027 5.99875 12.575 3.53926 12.5447C1.13976 12.575 0 13.6027 0 15.8094V26.6915C0 28.7773 1.01979 29.7446 3.23932 29.7446H3.71922C4.07915 29.7446 4.28911 30.0167 4.28911 30.2887V34.43C4.28911 34.8532 4.01916 35.1252 3.62924 35.1555H3.59925H3.56926C3.17934 35.1252 2.90939 34.8532 2.90939 34.43V31.256H0V34.43C0 36.6064 1.13976 37.6342 3.59925 37.6644Z" fill="white"/>
<path d="M17.3665 12.5447H9.59814V15.0839H12.0276V37.6644H14.907V15.0839H17.3665V12.5447Z" fill="white"/>
<path d="M27.1742 37.6644H28.134V35.3671H27.9241C27.5341 35.3671 27.2642 35.095 27.2642 34.702V30.2585C27.2642 29.4423 26.9343 29.0191 26.1844 28.8982L23.485 28.4448L26.1844 27.9914C26.9643 27.8704 27.2642 27.4473 27.2642 26.6311V15.8094C27.2642 13.6027 26.1244 12.5447 23.695 12.5447H20.0957V37.6342H22.9751V30.4399C22.9751 30.0167 23.275 29.7144 23.665 29.7144C24.0549 29.7144 24.3548 30.0167 24.3548 30.4399V35.0648C24.3848 36.818 25.2546 37.6644 27.1742 37.6644ZM23.0051 26.4799V15.0839H23.695C24.1149 15.0839 24.3848 15.3862 24.3848 15.8094V26.4799C24.3848 26.9031 24.1149 27.2054 23.695 27.2054C23.275 27.2054 23.0051 26.9334 23.0051 26.4799Z" fill="white"/>
<path d="M37.5521 18.4695V15.8094C37.5521 13.6027 36.4123 12.575 33.9828 12.5447C31.5233 12.575 30.4136 13.6027 30.4136 15.8094V34.3997C30.4136 36.6064 31.5533 37.6342 34.0128 37.6342C36.4423 37.6039 37.5821 36.5762 37.5821 34.3997V31.2258H34.7027V34.3997C34.7027 34.8229 34.4327 35.095 34.0428 35.1252H34.0128H33.9828C33.5929 35.095 33.323 34.8229 33.323 34.3997V29.7446H35.7825V27.2054H33.323V15.8094C33.323 15.3862 33.5929 15.0839 34.0128 15.0839C34.4327 15.0839 34.7027 15.3862 34.7027 15.8094V18.4695H37.5521Z" fill="white"/>
<path d="M47.1502 18.4695V15.8094C47.1502 13.6027 46.0105 12.575 43.581 12.5447C41.1215 12.575 40.0117 13.6027 40.0117 15.8094V34.3997C40.0117 36.6064 41.1515 37.6342 43.611 37.6342C46.0405 37.6039 47.1802 36.5762 47.1802 34.3997V31.2258H44.3008V34.3997C44.3008 34.8229 44.0309 35.095 43.641 35.1252H43.611H43.581C43.1911 35.095 42.9211 34.8229 42.9211 34.3997V29.7446H45.3806V27.2054H42.9211V15.8094C42.9211 15.3862 43.1911 15.0839 43.611 15.0839C44.0309 15.0839 44.3008 15.3862 44.3008 15.8094V18.4695H47.1502Z" fill="white"/>
<path d="M57.6483 12.5447H49.8799V15.0839H52.3094V37.6644H55.1888V15.0839H57.6483V12.5447Z" fill="white"/>
<path d="M112.806 27.2054H110.347V15.0839H111.037C111.457 15.0839 111.727 15.3862 111.727 15.8094V18.4695H114.606V15.8094C114.606 13.6027 113.466 12.5447 111.037 12.5447H107.438V37.6342H110.317V29.7446H112.776V27.2054H112.806Z" fill="white"/>
<path d="M120.635 12.5447C118.175 12.575 117.065 13.6027 117.065 15.8094V34.3997C117.065 36.6064 118.205 37.6342 120.665 37.6342C123.094 37.6039 124.234 36.5762 124.234 34.3997V15.8094C124.204 13.6027 123.064 12.575 120.635 12.5447ZM121.325 34.3997C121.325 34.8229 121.055 35.095 120.665 35.1252H120.635H120.605C120.215 35.095 119.945 34.8229 119.945 34.3997V15.8094C119.945 15.3862 120.215 15.0839 120.635 15.0839C121.055 15.0839 121.325 15.3862 121.325 15.8094V34.3997Z" fill="white"/>
<path d="M130.233 12.5447C127.773 12.575 126.664 13.6027 126.664 15.8094V34.3997C126.664 36.6064 127.803 37.6342 130.263 37.6342C132.692 37.6039 133.832 36.5762 133.832 34.3997V15.8094C133.802 13.6027 132.662 12.575 130.233 12.5447ZM130.923 34.3997C130.923 34.8229 130.653 35.095 130.263 35.1252H130.233H130.203C129.813 35.095 129.543 34.8229 129.543 34.3997V15.8094C129.543 15.3862 129.813 15.0839 130.233 15.0839C130.653 15.0839 130.923 15.3862 130.923 15.8094V34.3997Z" fill="white"/>
<path d="M144 34.3997V15.8094C144 13.6027 142.86 12.5447 140.431 12.5447H136.832V37.6342H140.431C142.89 37.6342 144 36.6064 144 34.3997ZM139.741 35.1252V15.0839H140.431C140.851 15.0839 141.121 15.3862 141.121 15.8094V34.3997C141.121 34.8229 140.851 35.095 140.461 35.1252H140.191H139.741Z" fill="white"/>
<path d="M109.117 44.6169C108.937 44.8285 109.027 44.768 108.907 44.8587C108.697 44.9796 108.457 45.1006 108.218 45.1308C108.188 45.1912 108.038 45.1912 107.948 45.2215C107.918 45.2215 107.948 45.1912 107.918 45.1912C107.918 45.2819 107.738 45.1912 107.648 45.1308C107.618 45.161 107.588 45.2215 107.558 45.2215C107.498 45.2215 107.498 45.1912 107.468 45.2215C107.408 45.1912 107.408 45.1308 107.348 45.1308C107.348 45.1006 107.348 45.0401 107.288 45.0401C107.318 45.0099 107.258 44.9494 107.228 44.889C107.228 44.8285 107.228 44.768 107.288 44.7378C107.288 44.7076 107.288 44.6774 107.258 44.6471C107.318 44.5867 107.288 44.4658 107.378 44.4053V44.3751C107.498 44.1635 107.438 44.1333 107.528 43.8914C107.528 43.7403 107.618 43.6798 107.588 43.5287C107.528 43.5287 107.498 43.5891 107.498 43.6496C107.468 43.6798 107.408 43.6798 107.348 43.6798C107.168 43.6194 107.078 43.4682 106.988 43.3171C107.078 43.1055 107.348 43.0148 107.588 42.9846C107.618 42.9846 107.588 42.9846 107.618 42.9846C107.768 42.9241 107.948 42.8939 108.188 42.8939C108.248 42.8637 108.368 42.8939 108.427 42.8637C108.457 42.8939 108.517 42.8939 108.547 42.9241C108.577 42.9241 108.517 42.8939 108.547 42.8939C108.667 42.8939 108.697 43.0148 108.787 43.0148C108.847 43.1055 108.997 43.166 108.997 43.2869C108.997 43.3171 109.027 43.3171 109.027 43.3171C109.027 43.6194 108.787 43.7403 108.667 43.9217C108.757 44.0426 108.937 44.103 109.027 44.2542L109.057 44.2844C109.087 44.3751 109.177 44.496 109.117 44.5262C109.117 44.5565 109.117 44.6169 109.117 44.6169ZM107.768 43.4682C107.858 43.5287 107.948 43.5891 108.008 43.6798C108.188 43.5891 108.338 43.4682 108.457 43.3171C108.218 43.3171 107.948 43.3775 107.768 43.4682ZM108.667 44.2844C108.368 44.103 108.158 44.2542 107.948 44.2844C107.888 44.4355 107.828 44.5867 107.798 44.768C108.098 44.7378 108.278 44.5867 108.517 44.496C108.517 44.4053 108.667 44.4053 108.667 44.2844Z" fill="#F06145"/>
<path d="M110.257 44.3146C110.227 44.3751 110.197 44.4053 110.167 44.4658C110.137 44.5262 110.107 44.5565 110.077 44.6169C110.047 44.7076 109.987 44.8285 109.897 44.9192C109.897 44.9494 109.867 45.0099 109.837 45.0401C109.837 45.0401 109.807 45.0703 109.807 45.1006V45.1308C109.777 45.161 109.747 45.1912 109.747 45.2215L109.717 45.2517L109.687 45.2819H109.657C109.477 45.2517 109.387 45.161 109.327 45.0099V44.9796C109.327 44.9494 109.357 44.9192 109.357 44.889C109.387 44.8285 109.387 44.7378 109.447 44.7076C109.447 44.6774 109.477 44.6169 109.567 44.4658C109.627 44.3449 109.657 44.2844 109.687 44.2542C109.657 44.2239 109.627 44.1937 109.597 44.1635V44.1333C109.567 44.0426 109.507 43.9217 109.477 43.8007C109.477 43.7705 109.477 43.7101 109.447 43.6798C109.447 43.6194 109.417 43.5891 109.417 43.4985C109.417 43.4985 109.417 43.4682 109.387 43.4682V43.438V43.4078C109.417 43.3776 109.387 43.3171 109.387 43.2566C109.357 43.166 109.327 43.0148 109.447 42.9241L109.477 42.8939L109.507 42.9241C109.537 42.9544 109.597 42.9544 109.627 42.9846C109.687 43.0148 109.717 43.045 109.777 43.0753L109.807 43.1055V43.1357V43.166H109.837V43.1962V43.2264C109.837 43.2566 109.837 43.2869 109.837 43.2869L109.867 43.3171V43.3473C109.867 43.4078 109.867 43.4682 109.897 43.5287C109.927 43.5891 109.927 43.6496 109.927 43.7101L109.957 43.6798C109.957 43.6798 109.987 43.6798 109.987 43.6496L110.197 43.3473V43.3171L110.227 43.2869C110.257 43.2566 110.257 43.2566 110.287 43.2264C110.317 43.1962 110.347 43.166 110.377 43.1055L110.407 43.0753H110.437C110.527 42.9544 110.617 42.8637 110.767 42.8637H110.827L110.857 42.9241C110.887 42.9846 110.947 43.0148 111.007 43.0753H111.037C111.037 43.1055 111.037 43.1357 111.037 43.1357V43.166V43.1962C111.007 43.2869 110.947 43.3171 110.887 43.3775C110.857 43.4078 110.797 43.438 110.797 43.4985V43.5287H110.767C110.707 43.5589 110.677 43.5891 110.677 43.6496V43.6798H110.647C110.647 43.6798 110.617 43.6798 110.587 43.7705C110.557 43.8007 110.557 43.8007 110.527 43.831C110.527 43.831 110.527 43.8612 110.497 43.8914C110.467 43.9217 110.437 43.9519 110.437 43.9821C110.407 44.0123 110.407 44.0728 110.377 44.103V44.1333L110.347 44.1635C110.287 44.2239 110.287 44.2542 110.257 44.3146Z" fill="#F06145"/>
<path d="M114.756 43.0148C114.606 43.1962 114.216 43.3171 113.886 43.4078C113.886 43.438 113.856 43.4985 113.826 43.5287C113.736 43.7705 113.646 43.9821 113.646 44.2542C113.676 44.2542 113.706 44.2542 113.736 44.2542C113.766 44.2542 113.796 44.2542 113.856 44.2542C114.096 44.1332 114.366 44.1332 114.666 44.1332C114.786 44.1332 114.876 44.1332 114.966 44.1332H114.996C115.026 44.1635 115.026 44.1635 115.086 44.1635C115.116 44.1635 115.116 44.1635 115.146 44.1635H115.176C115.236 44.2239 115.326 44.2844 115.416 44.2844C115.506 44.3146 115.596 44.3448 115.656 44.4053L115.686 44.6471L115.716 44.6774V44.7076C115.716 44.7378 115.716 44.768 115.686 44.768C115.686 44.768 115.686 44.768 115.686 44.7983V44.8285H115.656C115.596 44.8285 115.566 44.8587 115.506 44.9192H115.476C115.446 44.9192 115.446 44.9192 115.416 44.9192C115.356 44.9192 115.296 44.9192 115.206 44.9494H115.176C115.086 44.9192 114.996 44.889 114.876 44.889C114.786 44.889 114.696 44.889 114.606 44.9192C114.516 44.9192 114.426 44.9494 114.306 44.9494H114.276C114.246 44.9494 114.216 44.9796 114.186 44.9796C113.976 45.0401 113.706 45.1308 113.436 45.1308C113.256 45.1308 113.106 45.0703 112.986 44.9796V44.9494C112.986 44.9192 112.956 44.9192 112.956 44.889C112.926 44.8587 112.926 44.8285 112.896 44.768C112.716 44.5564 112.686 44.1635 112.776 43.8914C112.776 43.8612 112.776 43.831 112.806 43.8007C112.806 43.7705 112.806 43.7403 112.836 43.7101C112.776 43.7403 112.746 43.7403 112.716 43.7705C112.476 43.8007 112.416 43.6798 112.297 43.5589C112.297 43.4985 112.267 43.3775 112.207 43.3473C112.237 43.3171 112.267 43.2264 112.237 43.1962C112.416 43.1055 112.716 43.045 112.836 42.9543C112.926 42.9241 113.016 42.8939 113.106 42.8637C113.136 42.7427 113.196 42.6521 113.226 42.5311C113.346 42.1684 113.466 41.8359 113.556 41.4429V41.4127H113.586H113.616C113.616 41.4127 113.646 41.4127 113.676 41.3825H113.706C113.796 41.4429 114.036 41.5336 114.156 41.5336H114.186H114.216C114.216 41.5638 114.246 41.5638 114.276 41.5941C114.366 41.6848 114.426 41.7754 114.396 41.9568V41.987C114.366 42.0173 114.366 42.0173 114.336 42.0173C114.306 42.1684 114.246 42.2893 114.216 42.38C114.186 42.4405 114.156 42.5009 114.126 42.5916C114.276 42.5614 114.456 42.5614 114.546 42.7125C114.726 42.773 114.726 42.8939 114.756 43.0148Z" fill="#F06145"/>
<path d="M116.076 42.7125C116.076 42.6823 116.076 42.6521 116.046 42.6521C116.076 42.5311 116.106 42.4102 116.106 42.3195C116.106 42.2289 116.136 42.1382 116.166 42.0777C116.286 42.0475 116.316 41.9568 116.346 41.9266C116.436 41.9266 116.466 41.9568 116.526 42.0475C116.556 42.1079 116.616 42.1986 116.736 42.2591C116.766 42.3195 116.796 42.38 116.826 42.4707C116.886 42.6218 116.946 42.773 116.946 42.8939C116.796 43.1962 116.796 43.71 116.886 43.9821L116.916 44.0426H116.946L117.035 44.0123C117.515 43.8914 117.755 43.7403 118.085 43.3473C118.415 42.9846 118.565 42.38 118.595 41.9568C118.655 41.9266 118.685 41.8963 118.685 41.8057V41.7754V41.7452C118.655 41.715 118.685 41.6847 118.685 41.6545C118.715 41.5941 118.775 41.5336 118.835 41.4731C118.955 41.5638 119.045 41.6545 119.135 41.7452C119.135 41.9266 119.195 42.0475 119.225 42.1382C119.255 42.2591 119.315 42.3498 119.315 42.5009C119.255 42.7125 119.225 42.8637 119.195 43.045V43.1055C119.075 43.3171 118.955 43.5287 118.895 43.6798C118.865 43.7403 118.835 43.7705 118.805 43.831C118.805 43.8612 118.775 43.9216 118.745 43.9216L118.625 43.8612H118.595V43.8914V44.0123C118.595 44.0123 118.595 44.0426 118.565 44.0426H118.505H118.475L118.445 44.103C118.145 44.6169 117.815 44.768 117.155 45.0401C117.035 45.0099 116.946 45.0099 116.856 45.0099C116.766 45.0099 116.676 45.0099 116.586 44.9796C116.556 44.9192 116.526 44.889 116.466 44.889C116.466 44.889 116.466 44.889 116.436 44.889C116.346 44.8285 116.286 44.7076 116.196 44.5564C116.166 44.496 116.136 44.4053 116.076 44.3146L116.166 44.2844H116.196L116.166 44.2542L116.046 44.1332C116.016 44.1332 116.016 44.103 115.986 44.0728V43.9821C115.956 43.438 115.956 42.9846 116.046 42.6521L116.076 42.7125Z" fill="#F06145"/>
<path d="M119.345 42.7125C119.375 42.5916 119.375 42.5614 119.375 42.4707C119.495 42.1382 119.885 42.0173 120.155 41.9266C120.155 41.8964 120.125 41.9266 120.125 41.8661C120.845 41.7452 121.535 41.2918 122.375 41.5336C122.435 41.6848 122.585 41.8057 122.585 41.9568C122.675 42.0173 122.705 42.108 122.675 42.2289C122.615 42.2893 122.525 42.3195 122.435 42.38C122.135 42.3195 121.835 42.3498 121.595 42.38C121.445 42.2289 121.205 42.4405 121.025 42.4102C120.935 42.4707 120.815 42.5009 120.695 42.5009C120.695 42.5311 120.725 42.5311 120.725 42.5916C120.815 42.7125 121.055 42.6521 121.115 42.8032C121.355 42.8032 121.445 43.045 121.445 43.1962C121.475 43.2566 121.505 43.2264 121.535 43.2566C121.565 43.3473 121.685 43.4682 121.745 43.5891C121.745 43.7705 121.775 43.9217 121.715 44.0728C121.475 44.6471 120.845 44.9796 120.275 45.161C120.245 45.161 120.215 45.161 120.215 45.1308C120.095 45.2517 119.915 45.161 119.735 45.1912C119.675 45.1308 119.645 45.1006 119.615 45.0099C119.585 45.0099 119.585 44.9494 119.555 44.9494C119.555 44.9192 119.555 44.9192 119.555 44.889C119.615 44.8587 119.525 44.8587 119.525 44.8285C119.585 44.7076 119.435 44.4658 119.615 44.3751C120.155 44.4355 120.545 44.1332 120.905 43.9519C120.935 43.831 121.085 43.7705 121.115 43.6496C121.115 43.5891 121.085 43.6194 121.085 43.5589C121.055 43.5287 121.025 43.5589 121.025 43.5589C120.875 43.4682 120.665 43.438 120.545 43.3473C120.455 43.3775 120.395 43.3473 120.275 43.3171C120.005 43.3171 119.765 43.2869 119.525 43.1659C119.525 43.1357 119.495 43.1055 119.435 43.1055C119.375 43.045 119.345 42.9846 119.315 42.9241C119.375 42.8334 119.405 42.773 119.345 42.7125Z" fill="#F06145"/>
<path d="M122.345 44.2844C122.375 44.2844 122.345 44.2542 122.375 44.2542C122.375 44.2844 122.375 44.2844 122.405 44.2844C122.405 44.2542 122.375 44.2542 122.375 44.2542C122.375 44.2239 122.375 44.2239 122.375 44.1937C122.375 44.1333 122.405 44.1333 122.435 44.1333C122.495 43.3473 122.885 42.8637 123.035 42.1382C123.215 41.9568 123.215 41.6545 123.484 41.5034C123.604 41.5034 123.664 41.5941 123.784 41.5638C123.814 41.5941 123.844 41.6545 123.844 41.6848C123.874 41.6848 123.904 41.6848 123.934 41.6848C124.084 41.8057 124.234 42.1684 123.994 42.2893C124.024 42.3498 123.934 42.3498 123.994 42.4102C123.844 42.5312 123.754 42.773 123.754 42.9544C123.934 42.773 124.234 42.5916 124.414 42.4405C124.414 42.4405 124.444 42.4707 124.444 42.4405C124.654 42.1986 124.894 42.0777 125.164 41.8964C125.224 41.8661 125.254 41.8964 125.284 41.8964C125.284 41.8661 125.254 41.8661 125.254 41.8057C125.374 41.7754 125.434 41.715 125.554 41.6848C125.614 41.7452 125.674 41.8661 125.794 41.8661C125.854 42.0475 126.034 41.987 126.064 42.2289C126.034 42.2893 126.004 42.3498 125.974 42.4405C125.674 42.7125 125.344 42.8334 124.984 43.1055C124.894 43.2264 124.744 43.2566 124.684 43.4078C124.654 43.4078 124.654 43.4078 124.624 43.4078C124.594 43.4682 124.534 43.4682 124.534 43.5287C124.774 44.0426 125.284 44.0123 125.884 44.0123C125.914 44.0123 125.884 43.9821 125.944 43.9821C126.124 44.0426 126.184 44.1635 126.334 44.2844C126.334 44.5867 126.154 44.768 125.884 44.889C125.524 44.889 125.254 44.889 124.984 44.768C124.954 44.768 124.954 44.7076 124.924 44.7076C124.864 44.6774 124.804 44.7076 124.744 44.6774C124.684 44.6471 124.534 44.5565 124.414 44.4658C124.264 44.3751 124.144 44.2542 124.054 44.1333C124.024 44.103 123.994 44.103 123.964 44.103C123.514 44.3751 123.425 45.0099 122.945 45.2215C122.795 45.2215 122.765 45.1006 122.645 45.0703C122.645 44.889 122.465 44.768 122.555 44.6169C122.525 44.5867 122.495 44.5564 122.435 44.5564C122.435 44.4658 122.285 44.4053 122.345 44.2844Z" fill="#F06145"/>
<path d="M126.064 44.6169C126.064 44.5262 126.124 44.496 126.154 44.4658C126.454 44.4355 126.634 44.3751 126.904 44.3751H126.934C126.994 44.1937 127.084 44.0123 127.144 43.831C127.234 43.4985 127.414 43.2869 127.444 43.0148C127.534 42.8032 127.594 42.6218 127.624 42.3498C127.384 42.38 127.234 42.4102 127.174 42.4405C126.904 42.4102 126.904 42.2591 126.814 42.0777C126.844 42.0173 126.814 41.8661 126.754 41.8359C126.814 41.8359 126.844 41.715 126.814 41.6848C127.024 41.6243 127.324 41.6545 127.474 41.5638C127.804 41.5638 128.194 41.5336 128.523 41.5034C128.733 41.5638 129.183 41.4732 129.273 41.7754C129.453 41.8057 129.423 41.9568 129.423 42.0777C129.213 42.2289 128.763 42.2591 128.373 42.2591C128.314 42.6823 128.014 43.5287 128.014 43.6496C127.894 43.9519 127.864 44.0426 127.744 44.2844C127.744 44.2844 127.924 44.2844 128.074 44.2844C128.104 44.4355 128.284 44.3751 128.284 44.496C128.523 44.5564 128.373 44.768 128.284 44.889C128.224 44.889 128.164 44.9192 128.134 44.9796C127.954 44.9494 127.744 44.9796 127.594 45.0099C127.564 45.0099 127.594 45.0401 127.564 45.0703C127.174 44.9494 126.724 45.1912 126.244 45.1912C126.154 45.1006 126.124 44.8285 126.064 44.6169Z" fill="#F06145"/>
<path d="M130.923 44.4658C130.803 43.5891 131.373 43.045 131.763 42.5312C131.853 42.5614 131.853 42.4405 131.943 42.4102C132.003 42.2893 132.123 42.2591 132.183 42.1684C132.303 42.1382 132.363 42.0173 132.483 41.987C132.483 41.9568 132.483 41.9568 132.483 41.9266C132.633 41.8661 132.663 41.7754 132.753 41.6545C132.813 41.6545 132.843 41.6545 132.933 41.6545C132.993 41.5638 133.023 41.5034 133.113 41.4429C133.203 41.5034 133.322 41.4732 133.412 41.5638C133.412 41.715 133.592 41.715 133.622 41.8661C133.652 41.8661 133.652 41.8359 133.682 41.8661C133.712 41.987 133.742 41.987 133.772 42.0777C133.742 42.1684 133.742 42.2591 133.652 42.2893C133.652 42.3498 133.712 42.3196 133.712 42.3498C133.712 42.38 133.712 42.4102 133.712 42.4102C133.892 42.7125 134.012 43.0753 134.222 43.3775C134.192 43.5589 134.342 43.7101 134.372 43.8914C134.402 44.103 134.312 44.4355 134.132 44.5262C134.042 44.6471 133.862 44.7076 133.712 44.8285C133.712 44.8285 133.682 44.8285 133.682 44.7983C133.622 44.889 133.502 44.889 133.382 44.9192C133.203 45.0099 132.903 45.1308 132.693 45.1308C132.453 45.2215 132.273 45.2517 131.973 45.1912C131.463 45.2517 131.103 44.889 130.923 44.4658ZM131.703 44.2239C131.973 44.4355 132.453 44.2844 132.753 44.2542C132.753 44.2239 132.753 44.1937 132.783 44.2239C133.053 44.1937 133.263 44.0426 133.532 43.9217C133.562 43.831 133.622 43.8007 133.622 43.6798C133.592 43.6194 133.592 43.5891 133.592 43.5287C133.412 43.2869 133.323 42.9846 133.173 42.7427C133.173 42.773 133.113 42.8334 133.053 42.773C133.023 42.8939 132.903 42.8637 132.813 42.8032C132.603 42.9846 132.363 43.1357 132.183 43.3775C132.153 43.4078 132.153 43.3775 132.123 43.3775C131.973 43.6798 131.703 43.831 131.703 44.2239Z" fill="#F06145"/>
<path d="M134.612 42.7125C134.642 42.5916 134.642 42.5614 134.642 42.4707C134.762 42.1382 135.152 42.0173 135.422 41.9266C135.422 41.8964 135.392 41.9266 135.392 41.8661C136.112 41.7452 136.802 41.2918 137.641 41.5336C137.701 41.6848 137.851 41.8057 137.851 41.9568C137.941 42.0173 137.971 42.108 137.941 42.2289C137.881 42.2893 137.791 42.3195 137.701 42.38C137.401 42.3195 137.102 42.3498 136.862 42.38C136.712 42.2289 136.472 42.4405 136.292 42.4102C136.202 42.4707 136.082 42.5009 135.962 42.5009C135.962 42.5311 135.992 42.5311 135.992 42.5916C136.082 42.7125 136.322 42.6521 136.382 42.8032C136.622 42.8032 136.712 43.045 136.712 43.1962C136.742 43.2566 136.772 43.2264 136.802 43.2566C136.832 43.3473 136.952 43.4682 137.012 43.5891C137.012 43.7705 137.042 43.9216 136.982 44.0728C136.742 44.6471 136.112 44.9796 135.542 45.161C135.512 45.161 135.482 45.161 135.482 45.1308C135.362 45.2517 135.182 45.161 135.002 45.1912C134.942 45.1308 134.912 45.1005 134.882 45.0099C134.852 45.0099 134.852 44.9494 134.822 44.9494C134.822 44.9192 134.822 44.9192 134.822 44.8889C134.882 44.8587 134.792 44.8587 134.792 44.8285C134.852 44.7076 134.702 44.4658 134.882 44.3751C135.422 44.4355 135.812 44.1332 136.172 43.9519C136.202 43.831 136.352 43.7705 136.382 43.6496C136.382 43.5891 136.352 43.6194 136.352 43.5589C136.322 43.5287 136.292 43.5589 136.292 43.5589C136.142 43.4682 135.932 43.438 135.812 43.3473C135.722 43.3775 135.662 43.3473 135.542 43.3171C135.272 43.3171 135.032 43.2869 134.792 43.1659C134.792 43.1357 134.762 43.1055 134.702 43.1055C134.642 43.045 134.612 42.9846 134.582 42.9241C134.642 42.8334 134.672 42.773 134.612 42.7125ZM136.802 40.8686C136.622 41.0197 136.232 41.4429 135.902 41.4429C135.812 41.3522 135.692 41.2616 135.782 41.1407C135.602 40.8686 135.902 40.8988 135.932 40.7175C136.082 40.5663 136.262 40.3849 136.412 40.2036C136.562 40.1733 136.652 39.992 136.802 39.9013C136.832 39.9315 136.892 39.992 136.922 39.9617C136.922 40.0222 137.012 40.1129 137.072 40.1431C137.132 40.3245 137.251 40.4454 137.162 40.5965C137.132 40.6268 137.012 40.7175 136.802 40.8686Z" fill="#F06145"/>
<path d="M137.551 43.3775C137.671 43.0148 137.911 42.8032 138.121 42.5311C138.151 42.5311 138.151 42.5311 138.181 42.5614C138.241 42.4102 138.391 42.38 138.481 42.2591C138.811 42.1986 138.961 41.9266 139.261 41.8661C139.381 41.7452 139.621 41.715 139.711 41.5638C139.741 41.6243 139.831 41.5941 139.891 41.5638C139.951 41.5638 140.011 41.6848 140.041 41.5941C140.101 41.5941 140.041 41.6545 140.041 41.6545C140.101 41.6545 140.131 41.715 140.221 41.715C140.251 41.7452 140.221 41.7754 140.221 41.8057C140.701 41.9568 140.401 42.5009 140.071 42.5916C139.711 42.6823 139.381 42.773 139.141 43.0148C138.781 43.1055 138.571 43.4078 138.331 43.6194C138.331 43.71 138.271 43.7705 138.241 43.831C138.241 43.9519 138.301 44.0426 138.331 44.103C138.841 44.2542 139.441 44.2844 140.011 44.2844C140.131 44.4355 140.341 44.5262 140.311 44.7983C140.191 44.9192 140.071 45.0099 139.921 45.1005C139.801 45.1005 139.591 45.0703 139.441 45.1308C139.021 45.1005 138.571 45.0099 138.211 44.8889C138.151 44.7983 138.061 44.7076 137.941 44.6773C137.611 44.4355 137.521 43.831 137.551 43.3775Z" fill="#F06145"/>
<path d="M140.371 44.6169C140.371 44.5262 140.431 44.496 140.461 44.4658C140.761 44.4355 140.94 44.3751 141.21 44.3751H141.24C141.3 44.1937 141.39 44.0123 141.45 43.831C141.54 43.4985 141.72 43.2869 141.75 43.0148C141.84 42.8032 141.9 42.6218 141.93 42.3498C141.69 42.38 141.54 42.4102 141.48 42.4405C141.21 42.4102 141.21 42.2591 141.12 42.0777C141.15 42.0173 141.12 41.8661 141.06 41.8359C141.12 41.8359 141.15 41.715 141.12 41.6848C141.33 41.6243 141.63 41.6545 141.78 41.5638C142.11 41.5638 142.5 41.5336 142.83 41.5034C143.04 41.5638 143.49 41.4732 143.58 41.7754C143.76 41.8057 143.73 41.9568 143.73 42.0777C143.52 42.2289 143.07 42.2591 142.68 42.2591C142.62 42.6823 142.32 43.5287 142.32 43.6496C142.2 43.9519 142.17 44.0426 142.05 44.2844C142.05 44.2844 142.23 44.2844 142.38 44.2844C142.41 44.4355 142.59 44.3751 142.59 44.496C142.83 44.5564 142.68 44.768 142.59 44.889C142.53 44.889 142.47 44.9192 142.44 44.9796C142.26 44.9494 142.05 44.9796 141.9 45.0099C141.87 45.0099 141.9 45.0401 141.87 45.0703C141.48 44.9494 141.03 45.1912 140.551 45.1912C140.461 45.1006 140.401 44.8285 140.371 44.6169Z" fill="#F06145"/>
</svg>
