<svg width="239" height="81" viewBox="0 0 239 81" fill="none" xmlns="http://www.w3.org/2000/svg">
<path d="M123.458 0.0499878C123.458 0.099957 123.458 0.149926 123.458 0.199895C123.408 0.299834 123.358 0.399772 123.308 0.49971C123.109 1.24925 122.91 1.34919 122.213 1.04937C121.964 0.949433 121.765 0.849494 121.566 0.749556C121.267 0.599649 121.018 0.649618 120.819 0.849494C120.72 0.899463 120.62 0.949433 120.521 0.949433C120.322 0.899463 120.222 0.799525 120.073 0.699587C120.023 0.649618 119.973 0.599649 119.923 0.549679C119.824 0.399772 119.724 0.249864 119.874 0.0499878C121.018 0.0499878 122.213 0.0499878 123.458 0.0499878Z" fill="#F8F8F8"/>
<path d="M119.824 0.0499878C119.873 0.199895 119.923 0.399772 119.973 0.549679C119.774 0.699587 119.624 0.599648 119.475 0.449741C119.376 0.349803 119.226 0.249864 119.326 0.0499878C119.475 0.0499878 119.624 0.0499878 119.824 0.0499878Z" fill="#ECECEC"/>
<path d="M119.326 0.0499692C119.376 0.149907 119.426 0.249846 119.475 0.349784C119.525 0.399753 119.525 0.449722 119.525 0.449722C119.525 0.499692 119.475 0.499692 119.475 0.499692C119.226 0.399753 119.127 0.149907 118.978 0C119.077 0.0499692 119.177 0.0499692 119.326 0.0499692Z" fill="#6A6969"/>
<path d="M119.475 0.549627C119.475 0.499658 119.475 0.449688 119.475 0.34975C119.625 0.399719 119.824 0.449688 119.973 0.549627C120.123 0.699534 120.272 0.849442 120.471 0.94938C121.168 1.3991 121.765 2.0487 122.512 2.44845C122.711 2.64833 122.91 2.84821 123.159 2.94815C123.358 3.04808 123.607 3.14802 123.806 3.24796C123.856 3.24796 123.906 3.29793 123.906 3.29793C123.956 3.29793 124.005 3.29793 123.906 3.24796C123.159 2.6983 122.363 2.24858 121.666 1.64895C121.367 1.3991 121.068 1.19923 120.919 0.799472C120.969 0.449688 121.317 0.599596 121.467 0.449688C121.716 0.549627 121.964 0.749503 122.213 0.799472C122.562 0.849442 123.309 1.54901 123.01 0.34975C122.91 -0.0500031 123.309 0.199843 123.458 0.149873C123.508 0.34975 123.657 0.299781 123.806 0.299781C124.055 0.399719 124.304 0.34975 124.503 0.599596C125.897 0.799472 126.843 1.84882 128.137 2.29855C129.183 2.59836 130.178 2.64833 131.224 2.74827C138.691 3.39787 145.81 5.34667 152.381 8.94444C153.924 9.79392 155.318 10.8932 156.662 11.9926C156.612 12.3423 156.313 12.5422 156.065 12.7421C154.87 13.8914 153.824 15.1906 152.48 16.19C151.435 15.7902 150.539 15.0407 149.593 14.491C148.797 14.0413 147.95 13.6415 147.104 13.1918C146.755 12.9919 146.407 12.892 146.009 13.1918C145.611 13.4417 145.411 13.8414 145.113 14.1912C144.665 14.6409 144.266 15.1906 143.918 15.7402C143.072 16.9895 142.574 18.3386 142.723 19.8377C142.922 21.7365 144.018 23.0857 145.312 24.285C145.959 24.9346 146.755 25.3843 147.552 25.834C148.199 26.2338 148.249 26.5336 147.652 27.0333C147.204 27.3831 146.855 27.7828 146.407 28.1326C144.714 29.4818 143.47 31.1307 142.474 33.0795C142.076 33.979 141.777 34.9784 141.728 35.9778C141.728 36.4774 141.678 37.0271 141.827 37.5268C141.877 38.1764 142.225 38.7261 142.126 39.3757C142.076 39.5256 141.976 39.6255 141.827 39.6255C141.08 39.0259 140.881 38.0765 140.583 37.277C140.334 36.5774 140.184 35.8778 140.135 35.1782C140.184 34.1289 139.985 33.0795 140.334 32.0802C140.533 31.5805 140.632 31.0808 140.881 30.6311C141.528 29.3319 142.425 28.1326 143.37 27.0333C143.719 26.5836 143.271 26.3837 143.022 26.1838C141.877 25.0845 140.981 23.8353 140.334 22.3861C140.085 21.6866 139.836 20.987 139.786 20.2874C139.537 17.8889 140.284 15.7402 141.628 13.7915C141.927 13.2918 142.375 12.892 142.723 12.4423C143.072 12.0425 143.072 11.7927 142.474 11.6927C140.832 11.343 139.189 10.9432 137.546 10.8932C136.7 10.6934 135.853 10.5934 135.206 11.3929C134.609 12.1425 133.862 12.842 133.414 13.7415C133.364 13.7915 133.315 13.8914 133.315 13.9414C132.966 14.3911 132.767 14.8908 132.518 15.4404C132.418 15.7402 132.319 16.0401 132.269 16.3399C131.722 18.7884 132.468 20.8371 134.26 22.5361C134.509 22.7859 134.758 23.0357 135.007 23.2856C135.356 23.6853 135.754 23.9852 136.202 24.235C136.55 24.4849 136.949 24.6847 137.347 24.9346C138.094 25.4842 138.143 25.5842 137.446 26.1838C136.351 27.1332 135.306 28.1826 134.26 29.2319C133.962 29.5317 133.663 29.8815 133.414 30.2313C133.165 30.5311 132.966 30.8309 132.767 31.1307C132.618 31.3306 132.468 31.5805 132.369 31.7803C132.07 32.38 131.722 32.9296 131.572 33.5792C131.373 34.1289 131.224 34.6786 131.174 35.2782C130.975 36.7273 131.323 38.1264 131.622 39.5256C131.572 39.7254 131.522 39.8753 131.323 39.9253C131.025 39.8254 130.875 39.5256 130.726 39.2757C128.685 35.1782 128.834 31.2807 131.722 27.5829C131.871 27.3831 132.07 27.2332 132.17 27.0333C133.115 25.9839 133.115 25.9839 132.02 24.8346C131.722 24.3349 131.274 23.9352 130.925 23.4855C130.079 22.3362 129.531 21.037 129.133 19.6378C128.984 18.8383 128.784 18.0388 128.984 17.1894C129.133 15.3905 129.83 13.7415 130.825 12.2424C131.074 11.8427 131.423 11.4429 131.722 10.9932C130.875 11.1431 130.079 11.243 129.282 11.4429C128.436 11.6428 127.59 11.8427 126.743 12.0925C126.345 12.1924 125.897 12.3423 125.499 12.4923C124.653 12.7921 124.205 13.4916 123.657 14.1412C122.91 15.1906 122.213 16.2399 122.064 17.5391C121.765 19.5879 122.661 21.1869 123.956 22.636C124.752 23.5354 125.748 24.185 126.743 24.8346C127.789 25.4842 127.789 25.6341 126.843 26.4336C126.694 26.5836 126.495 26.6835 126.345 26.8834C125.997 27.2332 125.648 27.483 125.3 27.7828C124.503 28.5324 123.806 29.3319 123.109 30.2313C121.815 32.0302 120.969 34.029 121.118 36.3275C121.168 37.127 121.516 37.8766 121.566 38.6761C121.516 38.876 121.467 39.0259 121.218 39.0259C120.919 38.9259 120.819 38.6761 120.67 38.4262C119.774 36.5774 119.177 34.6786 119.326 32.6298C119.724 30.2313 120.819 28.1826 122.512 26.4836C122.91 26.0839 122.91 25.884 122.462 25.4842C120.819 23.9852 119.674 22.1363 119.077 19.9876C118.878 19.438 118.928 18.8883 118.928 18.3386C118.928 17.3892 119.226 16.4898 119.426 15.5404C118.928 15.8402 118.53 16.14 118.081 16.4398C118.032 16.4898 117.932 16.5398 117.882 16.5897C114.597 18.9383 112.008 21.8865 109.917 25.2844C109.668 25.6841 109.519 26.2338 109.021 26.4336C107.976 25.834 107.279 24.8346 106.433 24.0351C105.387 23.0357 105.387 23.0357 104.342 24.0351C104.093 24.285 103.894 24.7347 103.396 24.5348C105.487 20.1875 108.424 16.4898 112.108 13.3417C115.294 10.5934 118.878 8.49472 122.86 7.04562C123.408 6.84574 123.956 6.49596 124.453 6.19614C124.802 6.04623 124.852 5.84636 124.503 5.59651C124.105 5.34667 123.707 5.09682 123.259 4.89694C121.467 4.09744 120.322 2.59836 119.027 1.24919C118.978 1.19923 118.928 1.04932 118.878 0.94938C118.878 0.899411 118.878 0.849442 118.928 0.799472C119.226 0.749503 119.376 0.699534 119.475 0.549627Z" fill="#231F20"/>
<path d="M103.495 24.385C104.192 24.0352 104.591 23.3856 105.138 22.8859C105.337 22.686 105.487 22.5361 105.736 22.8359C106.831 23.9852 108.075 25.0346 109.071 26.2838C109.27 26.7335 108.971 27.0333 108.822 27.3831C108.026 29.0821 107.378 30.781 106.881 32.5799C106.333 34.7286 106.034 36.8773 105.935 39.0759C105.686 44.2227 106.731 49.0697 109.071 53.6169C112.108 59.4633 116.588 63.8606 122.512 66.7588C123.159 67.0586 123.458 66.9087 123.806 66.3591C124.404 65.3597 124.951 64.2604 125.499 63.211C125.549 63.0611 125.648 62.9112 125.698 62.7613C126.395 61.1123 126.893 59.4133 127.142 57.6644C127.241 56.3153 127.639 55.0161 127.39 53.6669C127.291 51.2184 126.743 48.8699 125.847 46.6212C125.797 46.4214 125.748 46.2715 125.748 46.0716C125.748 45.9217 125.847 45.8217 125.947 45.7718C126.345 45.8217 126.494 46.1215 126.644 46.4214C127.092 47.1709 127.49 47.9204 127.888 48.67C129.083 51.1185 129.88 53.6669 130.079 56.3652C130.178 57.4146 130.029 58.4639 129.88 59.5133C129.631 60.8624 129.183 62.1616 128.685 63.4608C128.038 64.9599 127.39 66.409 126.544 67.7582C126.295 68.2079 126.395 68.3578 126.843 68.5077C128.884 69.0574 130.975 69.5571 133.066 69.6071C133.613 69.6071 133.962 69.4571 134.26 68.9575C135.057 67.5583 135.754 66.1092 136.351 64.6101C136.6 64.0105 136.849 63.4608 136.948 62.8112C137.247 61.7619 137.496 60.6626 137.645 59.5632C137.795 58.4639 137.795 57.3646 137.795 56.2653C137.745 54.8661 137.695 53.417 137.347 52.0679C137.197 51.0185 136.849 50.0191 136.5 49.0198C136.252 48.3202 136.003 47.6206 135.555 46.971C135.355 46.7212 135.256 46.4214 135.405 46.1215C135.804 45.8717 135.953 46.2215 136.102 46.4713C136.451 47.021 136.799 47.5707 137.098 48.1703C137.596 49.0198 138.044 49.8692 138.492 50.7687C139.139 52.2678 139.686 53.8168 140.134 55.3658C140.284 56.2153 140.433 57.0148 140.533 57.8643C140.533 58.9636 140.583 60.1129 140.483 61.2122C140.035 63.9605 139.039 66.5589 137.795 69.0074C137.695 69.1573 137.446 69.3572 137.845 69.5071C138.193 69.5071 138.591 69.5571 138.94 69.4072C139.039 69.3572 139.089 69.3572 139.189 69.3572C139.985 69.2573 140.782 69.1074 141.528 68.9575C141.877 68.8575 142.225 68.7076 142.574 68.9575C143.171 69.4072 143.37 70.0568 143.37 70.7563C143.37 72.0555 143.37 73.4047 143.37 74.7039C143.37 75.0537 143.37 75.4035 143.121 75.7033C142.972 75.8532 142.823 76.0031 142.624 76.153C144.515 77.0525 145.71 78.6515 147.104 80.2005C146.656 80.3005 146.506 80.0006 146.258 80.0006C146.108 80.0506 146.058 80.2005 145.959 80.2505C145.909 80.2505 145.81 80.2505 145.76 80.2005C144.864 79.6509 144.167 78.8014 143.221 78.3017C143.072 78.1018 142.872 77.9519 142.624 77.9019C142.325 77.852 142.126 77.7021 141.777 77.4022C142.026 77.9519 142.375 78.1018 142.723 78.2517C143.42 78.6015 144.067 79.0013 144.665 79.5509C145.063 79.9507 145.113 80.2505 144.416 80.3005C144.167 80.2005 143.918 80.1006 143.669 79.9507C143.42 79.8008 143.121 79.6509 142.823 79.8008C142.524 80.0006 142.922 80.3005 142.773 80.6003C142.375 80.7002 142.126 80.3504 141.727 80.3504C141.479 80.3504 141.279 80.1006 141.031 80.0506C139.935 79.9507 139.238 79.0512 138.243 78.7014C136.202 78.0019 134.061 77.6521 131.97 77.0525C125.947 75.2536 120.172 73.005 114.995 69.4072C106.582 63.5108 101.554 55.3658 100.061 45.1721C99.0151 37.9766 100.16 31.1308 103.296 24.5848C103.396 24.4849 103.446 24.4349 103.495 24.385Z" fill="#231F20"/>
<path d="M143.221 78.2017C144.216 78.7014 145.063 79.351 145.71 80.2005C145.262 80.3004 144.864 80.6003 144.366 80.3504C144.465 80.0506 144.714 80.3004 144.864 80.1505C144.017 78.7514 142.026 78.7514 141.229 77.0524C141.926 77.0524 142.126 77.752 142.673 77.702C142.822 77.9519 143.022 78.1018 143.221 78.2017Z" fill="#F0F0F0"/>
<path d="M145.71 80.2005C145.76 80.2005 145.81 80.2005 145.859 80.2005C146.158 80.1006 146.208 80.4004 146.307 80.5503C146.457 80.6002 146.606 80.7002 146.656 80.9001C145.909 81.2998 145.959 80.6002 145.71 80.2005Z" fill="#EDEDED"/>
<path d="M141.03 80.1006C141.329 80.1006 141.528 80.2005 141.727 80.4004C141.329 80.7002 141.229 80.2505 141.03 80.1006Z" fill="#A5A5A5"/>
<path d="M143.071 75.7532C143.071 74.2542 143.022 72.7551 143.071 71.306C143.121 70.4065 142.922 69.657 142.375 68.9574C142.474 68.7575 142.673 68.7076 142.823 68.6576C142.922 68.6076 143.022 68.6076 143.121 68.5577C143.519 68.4577 143.768 68.2578 143.968 67.9081C145.511 65.3596 146.805 62.7113 147.452 59.8131C147.651 58.8137 147.801 57.8643 147.85 56.8649C147.95 55.8655 148 54.8161 147.85 53.8168C147.751 53.0173 147.701 52.1678 147.552 51.3683C147.353 50.3689 147.104 49.3195 146.755 48.3701C146.556 47.4707 145.909 46.7211 145.859 45.7717C146.257 45.5719 146.407 45.9216 146.556 46.1215C146.905 46.6212 147.203 47.1709 147.502 47.7205C147.95 48.62 148.398 49.5194 148.846 50.4189C149.244 51.3683 149.643 52.3677 149.891 53.367C149.991 53.8168 150.14 54.3165 150.24 54.7662C150.937 57.9142 150.489 60.9124 149.294 63.8106C149.195 64.1104 149.045 64.4102 148.946 64.76C148.747 65.3596 148.348 65.9093 148.099 66.6588C150.14 65.5595 152.032 64.3603 153.774 62.9111C155.915 61.1622 157.757 59.1135 159.3 56.8649C159.748 56.2653 160.097 55.5657 160.495 54.9661C160.843 54.4164 161.092 53.8667 161.341 53.3171C161.839 52.3677 162.237 51.4182 162.586 50.4189C163.084 49.0197 163.532 47.6206 163.78 46.1215C164.677 41.6743 164.527 37.277 163.482 32.8797C162.984 30.8809 162.287 28.9821 161.341 27.1832C159.4 23.0358 156.463 19.6878 152.928 16.8896C152.779 16.6897 152.43 16.6397 152.48 16.24C153.774 14.7909 155.168 13.3917 156.612 12.0925C160.594 15.0407 163.681 18.7384 166.07 23.0857C168.808 28.0327 170.202 33.3294 170.451 39.0259C171.049 54.0666 161.939 67.9081 147.801 73.4047C146.208 74.0043 144.664 74.9037 143.071 75.7532Z" fill="#231F20"/>
<path d="M146.357 80.5503C146.208 80.4503 146.059 80.3504 145.909 80.2005C145.959 80.0006 145.959 79.8008 146.208 80.0006C146.258 80.2005 146.307 80.3504 146.357 80.5503Z" fill="#231F20"/>
<path d="M124.453 0.699536C124.204 0.649566 123.955 0.599597 123.756 0.399721C124.155 0.249813 124.403 0.299782 124.453 0.699536Z" fill="#A3A2A2"/>
<path d="M123.757 3.39791C123.508 3.34794 123.309 3.248 123.11 3.04812C122.91 2.84825 122.612 2.79828 122.462 2.54843C121.566 2.29859 121.019 1.54905 120.322 0.999388C120.322 0.89945 120.322 0.799512 120.471 0.849481C120.521 0.799512 120.62 0.699573 120.67 0.649604C120.82 0.599635 120.919 0.749543 120.969 0.849481C121.965 1.84886 123.309 2.34855 124.304 3.34794C124.105 3.54781 123.956 3.49785 123.757 3.39791Z" fill="#F2F2F2"/>
<path d="M120.969 0.899463C120.869 0.849494 120.769 0.749556 120.67 0.699586C120.869 0.299833 121.218 0.599648 121.466 0.549679C121.417 0.849494 121.018 0.599648 120.969 0.899463Z" fill="#B0B0B0"/>
<path d="M120.471 0.899465C120.421 0.949435 120.371 0.999404 120.322 1.04937C120.122 0.949434 119.973 0.799527 119.973 0.59965C120.222 0.549681 120.371 0.64962 120.471 0.899465Z" fill="#D9D8D9"/>
<path d="M135.405 46.0716C135.306 46.7212 135.953 47.0709 136.102 47.6206C136.202 48.0703 136.5 48.4201 136.55 48.9198C136.301 49.4695 135.754 49.5694 135.256 49.7193C134.758 49.8692 134.21 49.8192 133.713 50.0191C131.97 50.6187 130.925 49.6194 129.83 48.62C129.63 48.4201 129.431 48.1703 129.182 48.0204C128.137 47.4707 127.39 46.6712 127.092 45.4719C126.942 44.9223 126.345 44.8223 125.897 44.5225C125.598 44.0728 125.897 43.6231 125.947 43.2233C125.996 43.0234 125.897 42.7736 125.996 42.5737C126.345 42.124 125.947 42.0241 125.698 41.8741C125.25 41.3745 125.001 40.7249 124.752 40.1252C124.702 39.7754 124.702 39.4257 124.603 39.0759C124.702 37.9266 124.752 36.8273 125.1 35.7279C125.847 35.628 125.797 34.6286 126.544 34.4787C126.245 34.1789 125.797 34.029 125.698 33.5293C125.698 32.9796 126.096 32.6298 126.494 32.33C127.141 31.8303 127.739 31.2807 128.237 30.6311C128.535 30.1814 128.485 29.8815 128.137 29.5817C127.789 29.2819 127.39 29.0321 127.042 28.7323C126.793 28.2825 126.644 27.7828 126.245 27.4331C126.096 27.2832 125.996 27.0833 126.146 26.8334C126.594 26.4337 127.042 26.0339 127.54 25.5842C126.245 24.8347 125.051 24.0851 124.005 23.0358C121.168 20.1376 121.018 17.0894 123.557 13.9414C123.856 13.6915 124.105 13.9414 124.403 14.0413C124.951 14.2412 125.2 14.0913 125.299 13.4917C125.349 13.0919 125.15 12.7421 125.349 12.3424C125.797 12.1925 126.245 12.0925 126.693 11.9426C126.793 11.8926 126.942 11.8427 126.992 11.9426C127.341 12.6422 128.037 12.992 128.436 13.5916C128.137 14.2912 127.888 14.9907 128.187 15.7902C128.386 16.3899 128.834 16.7397 129.182 17.1894C129.232 18.0389 129.282 18.8883 129.382 19.7878C129.232 20.8371 129.431 21.7366 130.078 22.586C130.576 23.2356 130.925 23.8852 131.074 24.7347C131.124 25.2844 131.522 25.7341 131.721 26.2338C131.871 26.6835 132.269 27.0833 132.02 27.6829C131.074 29.0321 130.178 30.3812 129.83 32.0302C129.232 34.9284 129.929 37.5268 131.373 40.0253C131.721 40.1752 131.821 40.6249 132.12 40.8248C133.065 42.3239 134.26 43.723 135.256 45.2221C135.355 45.372 135.654 45.6718 135.405 46.0716Z" fill="#FEFEFE"/>
<path d="M153.028 16.6897C156.712 19.438 159.549 22.8359 161.54 26.9833C161.64 27.2332 161.391 27.3831 161.341 27.583C161.092 28.2825 161.192 28.9821 161.69 29.4318C162.685 30.2813 163.133 31.4306 163.532 32.5799C163.532 32.6298 163.581 32.6798 163.681 32.6299C164.577 35.5281 164.726 38.4762 164.677 41.4744C164.627 43.0734 164.477 44.6724 164.029 46.2215C163.581 46.4713 163.581 46.971 163.432 47.3208C163.233 47.7705 163.034 48.2702 162.436 48.3202C162.187 48.3701 161.69 47.2208 161.69 46.8211C161.69 46.6212 161.789 46.4713 161.939 46.3214C162.187 46.1215 162.287 45.8717 162.337 45.6218C162.486 45.2221 162.436 44.8723 162.337 44.4725C162.337 43.673 162.387 42.9235 162.984 42.2239C163.581 41.5244 162.984 40.9247 162.586 40.3751C162.436 40.1252 162.436 39.8754 162.337 39.6255C162.287 39.4756 162.287 39.2757 162.287 39.1258C162.436 36.9772 161.491 35.0783 160.993 33.0796C160.843 32.4799 160.296 32.33 159.748 32.33C159.201 32.33 158.653 32.38 158.105 32.4799C157.309 32.6299 157.01 32.2801 157.259 31.4806C157.558 30.6311 157.209 29.8815 156.264 29.5817C155.766 29.4318 155.367 29.182 155.119 28.7323C155.119 28.2326 155.567 28.2326 155.865 28.0327C156.761 27.3331 157.11 26.0839 156.562 25.1844C155.965 24.1851 154.82 23.8852 153.725 24.3849C152.978 24.7347 152.48 25.7341 152.629 26.6336C152.679 26.9334 152.829 27.2332 152.729 27.533C152.381 27.8328 152.132 27.7828 151.982 27.3831C151.684 26.6336 151.136 26.1339 150.489 25.6342C150.19 25.3843 149.842 25.1345 149.692 24.7847C149.394 23.8852 148.697 23.6354 147.85 23.6354C147.502 23.4855 147.253 23.2856 147.253 22.8859C147.253 22.8359 147.253 22.7859 147.253 22.736C147.303 22.2862 147.95 21.8365 147.552 21.4368C147.054 20.8871 146.407 20.3874 145.561 20.3874C144.963 20.3874 144.366 20.3374 143.818 19.9877C143.52 19.7878 143.171 19.9877 142.872 20.0876C142.773 20.1376 142.623 20.0876 142.524 19.9877C142.275 18.3387 142.872 16.9395 143.818 15.6403C144.714 15.9402 145.162 15.5404 145.013 14.591C144.963 14.4411 144.913 14.2912 144.963 14.1413C145.162 13.7915 145.461 13.4417 145.809 13.1918C146.158 13.1419 146.457 13.3418 146.706 13.5416C147.95 14.491 149.394 15.1406 150.887 15.6903C151.684 15.9901 152.281 16.5398 153.028 16.6897Z" fill="#F16D50"/>
<path d="M119.276 19.8877C119.923 22.2863 121.317 24.1851 123.259 25.7841C121.367 27.633 119.923 29.7317 119.525 32.38C119.177 33.3794 119.276 34.5787 118.33 35.3782C118.032 35.628 118.081 36.3276 118.131 36.8273C118.181 37.0771 118.231 37.3769 118.032 37.6268C116.837 37.9766 115.692 37.5768 115.045 36.5774C114.746 36.0777 114.248 36.1277 113.8 36.2277C113.302 36.3776 112.854 36.4275 112.357 36.2776C111.909 36.1277 111.709 35.8279 111.859 35.3782C112.406 34.029 112.108 32.5299 112.655 31.1308C112.854 30.6811 112.605 30.2813 112.157 30.0315C111.859 29.8816 111.51 29.7816 111.311 29.5318C111.212 29.0821 111.51 28.6823 111.411 28.2326C111.51 27.7829 111.809 27.3831 112.157 27.1333C112.556 26.9334 112.954 27.1832 113.352 27.1832C113.701 27.1832 114.099 27.1832 114.298 26.7835C114.497 26.4337 114.198 26.1839 113.999 25.934C113.75 25.6342 113.253 25.3843 113.601 24.8347C114.099 24.4349 114.099 23.8353 114.248 23.2357C114.348 23.0358 114.497 22.8859 114.646 22.786C115.543 22.3862 116.439 22.0364 116.986 21.137C117.136 20.8871 117.434 20.7372 117.733 20.8871C118.48 21.1869 118.828 20.7872 118.977 20.1376C118.977 20.0376 119.077 19.9877 119.127 19.9377C119.127 19.8378 119.177 19.8378 119.276 19.8877Z" fill="#FEFEFE"/>
<path d="M149.742 53.3671C149.394 52.3677 149.045 51.3683 148.697 50.3689C148.995 49.7693 149.493 49.2696 149.891 48.8199C151.435 47.2209 152.829 45.5719 153.974 43.6231C154.023 43.5731 154.123 43.5231 154.173 43.5231C154.272 43.4732 154.372 43.4732 154.521 43.4732C156.114 43.1234 156.761 41.6743 155.965 40.2751C155.766 39.8754 155.567 40.1752 155.367 40.2751C154.969 40.525 154.77 41.0746 154.272 41.2745C153.675 41.0746 153.675 40.3751 153.277 39.9753C153.227 39.9254 153.227 39.8254 153.177 39.7754C153.127 39.2758 152.978 38.876 152.43 38.7261C152.032 38.6262 151.883 38.3263 151.733 37.9766C151.385 37.0771 151.036 36.1777 150.14 35.578C149.692 35.2782 149.443 34.7286 149.543 34.1789C149.593 33.7292 149.394 33.5293 149.045 33.3294C148.05 32.8297 147.054 32.33 145.959 32.2301C145.461 32.1801 145.361 31.9303 145.411 31.5305C145.461 31.2807 145.411 31.0808 145.112 31.0308C144.864 30.9809 144.615 31.1308 144.515 31.3806C144.416 31.6804 144.714 31.7304 144.913 31.8304C145.561 32.0302 145.361 32.38 145.112 32.7798C144.814 33.1295 144.515 33.4294 144.017 33.3794C143.519 33.0796 142.922 33.3294 142.424 33.0796C143.32 31.1308 144.714 29.5817 146.307 28.2326C147.353 28.4324 148.547 27.7828 149.443 28.7822C149.792 29.182 149.941 29.5817 149.891 30.1314C149.842 30.3812 149.443 30.831 149.991 30.9309C150.439 30.9809 150.987 30.9309 151.086 30.2813C151.186 29.7316 151.385 29.3319 151.982 29.232C152.58 29.232 152.779 29.6817 153.028 30.1314C153.177 30.4312 153.326 30.731 153.476 31.0308C153.625 31.7804 153.924 32.38 154.67 32.6798C155.467 34.1289 156.263 35.5281 157.259 36.8273C157.906 37.7267 158.056 38.826 157.856 39.8754C157.608 41.4744 157.408 43.0734 157.309 44.6724C156.263 45.9217 155.517 47.3208 154.77 48.7199C154.372 49.4195 153.924 50.0191 153.177 50.3189C152.878 50.4688 152.679 50.6687 152.58 50.9685C152.132 52.1678 151.036 52.7175 150.091 53.417C149.991 53.517 149.842 53.517 149.742 53.3671Z" fill="#F7A084"/>
<path d="M114.646 22.8859C114.547 22.9858 114.447 23.1357 114.348 23.2357C113.95 23.4855 113.551 23.2357 113.153 23.2357C112.655 23.2357 112.506 23.3856 112.805 23.8353C113.053 24.1851 113.302 24.4849 113.302 24.9346C113.053 25.7841 112.705 26.5836 112.157 27.2332C111.908 27.583 111.66 27.8828 111.46 28.2326C111.311 28.4325 111.062 28.4325 110.863 28.4325C110.415 28.4824 109.867 28.3325 109.668 28.8822C109.37 29.5818 109.22 30.2314 109.569 30.9309C109.668 31.1808 109.867 31.3806 109.967 31.6305C110.216 32.8797 110.266 34.1289 109.519 35.2782C109.27 35.628 109.32 36.0278 109.519 36.3776C109.668 36.6774 109.818 36.9772 109.867 37.327C109.867 37.4769 109.867 37.6268 109.867 37.7267C109.867 39.0259 109.867 39.0259 111.162 39.1259C111.311 39.1259 111.411 39.1758 111.56 39.2758C111.908 40.0753 112.108 40.9248 112.058 41.7742C111.61 42.2739 111.012 42.174 110.465 42.2739C109.917 42.3739 109.519 42.5737 109.37 43.1234C109.22 43.4732 109.22 43.773 109.37 44.1228C109.718 45.1721 110.266 46.0716 110.714 47.071C110.863 47.4207 110.963 47.7206 111.012 48.1203C110.963 48.4701 110.913 48.8199 111.062 49.1697C111.46 50.6687 112.357 51.9679 113.153 53.3171C113.501 53.9167 113.75 54.5164 113.9 55.166C113.95 55.4158 114.099 55.7156 113.85 55.8655C113.601 56.0154 113.402 55.7156 113.253 55.5657C112.108 54.3665 111.311 52.9173 110.564 51.5182C109.718 49.9692 108.971 48.4201 108.175 46.8711C107.578 45.7718 107.428 44.4726 107.378 43.1734C107.428 42.6737 107.478 42.174 107.329 41.6743C107.229 40.7249 107.08 39.8254 106.781 38.926C106.532 38.2264 106.532 37.5269 107.129 36.9272C107.378 36.6774 107.478 36.3276 107.428 36.0278C107.329 35.3282 107.329 34.6786 107.578 33.979C107.727 33.6792 107.528 33.4294 107.229 33.3294C106.831 33.1795 106.632 32.9797 106.831 32.5299C107.229 30.6311 107.976 28.9322 108.772 27.1832C108.922 26.8834 109.021 26.5836 109.171 26.2838C110.963 23.1357 113.103 20.2875 115.891 17.889C116.538 17.2893 117.235 16.7397 117.982 16.24C118.181 16.4399 118.181 16.7397 118.181 16.9895C118.181 17.1894 118.181 17.4392 118.081 17.6391C116.837 19.388 115.841 21.2369 114.646 22.8859Z" fill="#F59073"/>
<path d="M117.932 37.5268C117.882 36.9272 117.733 36.2776 117.882 35.628C118.032 35.1283 118.131 34.6786 118.679 34.4787C119.027 34.3788 119.077 34.0789 118.978 33.7292C118.878 33.2295 118.878 32.6798 119.426 32.33C119.276 34.6786 119.923 36.8272 121.068 38.826C121.317 38.9759 121.467 39.2258 121.666 39.4256C121.815 39.5755 121.915 39.6755 122.014 39.8754C122.164 40.1252 122.363 40.375 122.363 40.7248C122.313 41.4744 122.313 42.2739 122.014 42.9734C121.815 43.3732 122.064 43.5231 122.462 43.4731C123.11 43.4232 123.358 43.723 123.06 44.3226C122.861 44.7723 123.11 44.8723 123.508 44.8223C123.757 44.8223 124.105 44.7224 124.254 44.9722C124.454 45.322 124.155 45.5219 123.956 45.7717C123.607 46.2714 123.209 46.5712 122.562 46.6712C121.865 46.7211 121.716 47.1708 122.164 47.7705C122.363 47.9704 122.512 48.2202 122.562 48.47C122.761 50.119 123.607 51.3683 124.902 52.4176C125.2 52.6175 125.35 52.9173 125.499 53.2171C125.798 53.9167 126.345 54.4164 127.092 54.6662C127.341 54.2665 127.042 53.7168 127.44 53.417C127.689 54.8161 127.441 56.2153 127.241 57.6144C127.092 57.9642 126.793 57.8642 126.544 57.7643C126.296 57.6144 126.096 57.4645 125.847 57.3146C124.503 56.3652 123.657 54.966 122.462 53.8167C121.666 53.0672 121.765 51.9179 121.467 50.9685C121.168 50.0191 120.869 49.1196 120.421 48.2702C120.172 47.8204 120.023 47.3707 120.073 46.8211C120.123 46.3713 119.973 46.0715 119.625 45.8217C119.077 45.4219 118.679 45.0721 119.077 44.2726C119.227 43.9229 119.077 43.4731 119.475 43.0734C119.724 42.8735 119.376 42.6736 119.177 42.5237C118.878 42.3238 118.38 42.3738 118.181 41.9741C118.131 41.8242 118.082 41.7242 118.131 41.5743C118.33 40.8248 118.131 40.2751 117.385 39.9753C117.235 39.9253 117.186 39.8254 117.136 39.6755C117.136 39.5755 117.136 39.5256 117.186 39.4256C117.534 39.0759 117.932 38.0265 117.932 37.5268Z" fill="#F8AF96"/>
<path d="M142.424 33.0795C142.972 32.9796 143.569 32.6798 144.017 33.2295C144.665 33.7791 145.113 34.3787 145.113 35.2782C145.113 35.578 145.312 35.7779 145.61 35.8778C146.108 35.9778 146.357 36.2776 146.258 36.8272C146.158 37.3269 146.357 37.7766 146.755 38.0765C147.253 38.4262 147.303 38.826 147.004 39.3257C146.556 40.0752 147.303 40.525 147.353 41.1745C147.353 41.3245 147.651 41.3245 147.801 41.2745C147.95 41.2245 148.149 41.1246 148.1 40.9247C147.95 40.475 148.05 40.1752 148.448 39.9253C148.796 39.7254 149.145 39.5256 149.543 39.6255C150.24 39.7754 150.738 40.6249 150.539 41.4744C150.439 41.8241 150.29 42.1739 150.439 42.5237C150.539 42.8735 150.141 43.2733 150.539 43.623C151.037 44.5725 150.987 44.8223 150.041 45.1721C149.444 45.372 148.996 45.6218 148.946 46.4213C148.946 47.1209 148 47.8204 147.303 47.8204C146.755 47.2208 146.606 46.2714 145.859 45.8217C145.411 45.272 144.913 44.7723 144.814 44.0228C145.262 43.3732 145.063 43.1233 143.968 43.0234C143.818 42.9734 143.769 42.8235 143.719 42.6736C143.769 42.074 144.316 42.2239 144.764 41.9741C144.217 41.3245 143.818 40.5749 143.42 39.8754C143.221 39.5755 143.121 39.2258 143.022 38.876C143.072 38.3763 143.171 37.8766 142.524 37.7267C142.424 37.6267 142.424 37.5268 142.375 37.4269C142.225 36.9771 142.375 36.2776 141.628 36.1776C141.628 34.9784 141.927 33.979 142.424 33.0795Z" fill="#FBC4AF"/>
<path d="M132.12 16.24C132.12 15.9402 132.219 15.6403 132.418 15.3905C132.667 15.2406 132.916 15.1406 133.115 14.8908C133.215 14.491 133.265 14.1413 133.265 13.7415C133.713 12.892 134.36 12.1425 135.057 11.4429C136.152 11.7427 137.197 12.2424 138.243 12.5423C138.79 12.7921 139.338 12.942 139.985 12.7921C140.682 12.5922 141.429 13.1419 141.877 13.8914C141.13 15.1406 140.433 16.3399 140.134 17.789C139.985 18.6385 140.085 19.488 139.985 20.3374C139.537 20.2375 139.736 19.8377 139.637 19.5379C139.338 19.6379 139.089 19.8377 138.79 19.9877C138.044 20.3374 137.695 20.1376 137.745 19.3381C137.745 19.2381 137.795 19.1382 137.695 18.9383C137.297 19.2881 137.396 20.0876 136.7 20.0376C136.401 19.8377 136.5 19.5379 136.5 19.2881C136.5 18.1888 136.401 18.0888 135.306 17.9889C135.156 17.9889 135.057 17.9389 134.907 17.889C134.36 17.5392 133.812 17.2893 133.165 17.2893C132.269 17.3893 132.12 17.1394 132.12 16.24Z" fill="#F16D50"/>
<path d="M122.313 40.7249C122.213 40.4251 122.064 40.1752 121.964 39.8754C121.815 39.7255 121.915 39.5756 122.014 39.4257C122.711 38.7261 122.811 38.1764 122.413 37.327C122.213 36.9272 122.313 36.7273 122.612 36.4775C123.159 35.9778 123.159 35.628 122.562 35.1283C122.313 34.9285 121.964 34.8285 121.716 34.6286C121.417 34.4288 121.218 34.2289 121.218 33.8291C121.218 33.4294 121.566 33.4294 121.815 33.2795C122.363 32.8797 123.159 32.9297 123.408 32.0302C123.607 31.3307 123.757 30.781 123.159 30.2314C123.06 30.1314 123.01 30.0315 123.06 29.8816C123.657 29.0321 124.354 28.2326 125.2 27.533C125.449 27.583 125.648 27.7329 125.798 27.9328C126.146 28.3825 126.644 28.5824 127.192 28.4824C127.291 28.5324 127.44 28.5824 127.54 28.6823C129.083 29.7317 129.083 30.4812 127.59 31.6305C126.943 32.1302 126.196 32.5299 125.847 33.3294C125.35 33.979 125.2 34.7286 125.399 35.5281C125.25 36.6774 125.051 37.8766 124.902 39.0259C125.001 39.2258 125.001 39.4257 124.802 39.6256C124.354 40.0753 125.001 39.8754 125.051 40.0253C125.35 40.575 125.599 41.1246 125.897 41.6743C126.096 41.8742 126.246 42.074 126.146 42.4238C126.047 42.6737 126.096 42.9235 126.345 43.0734C126.196 43.4732 125.947 43.8729 126.047 44.3726C126.246 44.6724 126.146 44.9223 125.947 45.2221C125.897 45.2721 125.798 45.322 125.748 45.322C125.599 45.322 125.499 45.2721 125.449 45.1721C125.35 44.9723 125.2 44.7724 125.051 44.6225C124.354 43.6231 123.607 42.5737 122.861 41.6243C122.562 41.3245 122.363 41.0747 122.313 40.7249Z" fill="#FBC4AF"/>
<path d="M131.373 33.5293C131.522 32.8297 131.821 32.2801 132.219 31.7304C132.518 31.4306 132.767 31.5305 133.016 31.8803C133.364 32.43 133.763 32.8797 134.161 33.3794C134.211 32.9297 134.111 32.5799 133.862 32.2301C133.713 32.0302 133.563 31.8304 133.663 31.5305C133.912 31.0808 134.111 31.0808 134.609 31.2807C135.853 31.7304 136.501 32.9796 137.695 33.3794C138.591 33.6792 139.438 34.079 140.184 34.6286C140.334 34.8285 140.184 35.1283 140.334 35.3282C140.583 36.8772 141.031 38.3263 141.877 39.6755C141.927 39.7255 141.976 39.7754 141.976 39.8754C141.777 40.2751 141.777 40.2751 141.23 40.525C141.429 41.0247 142.026 41.2245 142.126 41.7742C142.126 41.9741 142.076 42.174 141.927 42.3239C141.827 42.4238 141.728 42.4738 141.628 42.5237C140.483 42.2739 139.786 41.4244 139.039 40.5749C138.741 40.2751 138.492 39.9253 138.293 39.5756C137.944 38.926 137.397 38.5262 136.65 38.2764C135.754 38.0265 135.107 37.327 134.708 36.4775C134.509 36.0278 134.211 35.8279 133.713 35.7279C132.518 35.578 131.821 34.6786 131.373 33.5293Z" fill="#FEFEFE"/>
<path d="M131.373 33.5293C131.672 33.7292 131.821 34.079 132.02 34.3788C132.518 35.1783 133.215 35.578 134.111 35.678C134.509 35.7279 134.659 35.9278 134.808 36.2276C135.306 37.327 136.053 38.1265 137.297 38.3263C137.795 38.4263 137.994 38.7761 138.243 39.1758C139.139 40.575 140.184 41.8242 141.728 42.5238C141.977 42.7736 141.877 43.0734 141.728 43.2733C141.18 43.9729 140.682 44.7224 140.135 45.422C140.035 45.4719 139.886 45.4719 139.786 45.4719C138.591 45.0722 137.596 44.4226 136.75 43.5231C136.003 42.7236 135.157 42.0241 134.26 41.3745C132.319 39.9753 131.323 38.0765 131.174 35.678C131.174 35.5281 131.174 35.3282 131.025 35.2283C130.975 34.6286 131.124 34.079 131.373 33.5293Z" fill="#FCEFE8"/>
<path d="M152.032 29.3819C151.684 29.5318 151.385 29.6817 151.335 30.1814C151.285 30.831 150.34 31.3806 149.692 31.1808C149.244 31.0309 149.493 30.6811 149.593 30.4312C149.792 29.7816 149.792 29.232 149.195 28.7323C148.796 28.3825 148.498 28.1826 148 28.4325C147.403 28.7323 146.905 28.1326 146.357 28.1326C146.805 27.6829 147.253 27.2332 147.751 26.8334C148.099 26.5336 148.05 26.3837 147.701 26.1838C146.755 25.6842 145.859 25.0845 145.063 24.335C143.818 23.1357 142.773 21.7866 142.574 19.9877C142.673 19.9877 142.773 19.9877 142.872 19.9877C143.32 19.9877 143.669 20.3375 143.868 20.6373C144.615 21.8865 145.909 22.1863 147.154 22.686C147.253 22.736 147.303 22.736 147.353 22.7859C147.353 23.1357 147.602 23.2856 147.851 23.4355C148.747 24.385 149.792 25.2344 150.389 26.4337C150.638 26.9834 151.136 27.2832 151.534 27.7329C151.982 28.2825 152.331 28.7323 152.032 29.3819Z" fill="#F59073"/>
<path d="M130.975 35.2282C131.174 35.1283 131.274 35.1783 131.274 35.4281C131.373 38.2264 132.717 40.2751 135.007 41.7742C136.252 42.5737 137.048 43.9229 138.392 44.6724C138.84 44.9223 139.388 44.9722 139.736 45.422C139.786 45.7218 139.537 45.8717 139.338 46.0216C138.94 46.2714 138.741 46.6212 138.492 47.021C138.143 47.6206 137.646 48.1203 136.899 48.2702C136.351 47.5706 136.152 46.6212 135.356 46.1215C135.057 45.1721 134.36 44.4226 133.763 43.673C133.066 42.7736 132.419 41.8242 131.871 40.8248C131.522 40.475 131.473 40.0753 131.373 39.6255C130.975 38.1265 130.676 36.7273 130.975 35.2282Z" fill="#FEFEFE"/>
<path d="M143.569 27.2332C142.673 28.3325 141.777 29.4818 141.08 30.731C139.438 30.5811 138.293 29.5318 137.098 28.5324C136.7 28.1826 136.899 27.8328 137.297 27.6329C137.496 27.533 137.745 27.533 137.944 27.533C138.591 27.533 138.691 27.2332 138.542 26.6335C138.342 25.884 138.243 25.1345 137.397 24.7847C137.297 24.235 136.998 23.6354 137.446 23.2356C137.944 22.8359 138.342 23.3855 138.79 23.5355C139.886 23.8852 140.732 24.5848 141.23 25.6342C141.379 25.934 141.578 26.2338 141.877 26.4836C142.225 26.8334 142.624 27.1332 143.171 26.9334C143.47 26.8334 143.719 26.7834 143.569 27.2332Z" fill="#F7A084"/>
<path d="M137.397 24.7347C138.193 24.8346 138.691 25.1844 138.591 26.0839C138.591 26.2838 138.691 26.5336 138.741 26.7335C139.039 27.483 138.89 27.6829 138.143 27.7329C137.994 27.7329 137.845 27.7329 137.745 27.7329C137.446 27.7329 137.148 27.7828 137.048 28.0826C136.948 28.3825 137.297 28.4324 137.446 28.6323C138.492 29.6317 139.786 30.2313 141.08 30.781C140.931 31.2307 140.732 31.6804 140.583 32.1301C140.284 31.9303 140.035 31.8803 139.637 31.9303C138.79 32.0802 138.243 31.7804 137.845 30.9809C137.695 30.6311 137.496 30.4812 137.148 30.3313C135.953 29.9315 135.903 29.8316 136.351 28.5324C135.654 28.7822 135.555 29.4818 135.156 29.8815C135.107 29.9315 135.007 29.9315 134.957 29.9315C134.31 29.3818 134.011 30.1813 133.563 30.2813C133.464 30.2813 133.314 30.2813 133.265 30.1813C134.36 28.5823 135.803 27.3331 137.297 26.0839C137.894 25.5842 137.845 25.3343 137.247 25.0345C137.148 24.8846 137.247 24.7847 137.397 24.7347Z" fill="#F8AF96"/>
<path d="M122.96 29.9315C123.956 30.831 124.105 32.1302 123.109 32.9297C122.811 33.1795 122.313 33.3294 121.915 33.5293C121.715 33.6292 121.317 33.4793 121.317 33.8791C121.317 34.2289 121.566 34.4287 121.865 34.5287C122.263 34.6786 122.661 34.8785 122.96 35.2283C123.458 35.7779 123.458 36.2276 122.811 36.5774C122.363 36.8273 122.313 37.0271 122.711 37.327C123.159 37.6767 122.661 38.1764 122.811 38.5762C123.109 39.1758 122.711 39.3257 122.263 39.4756C122.064 39.5256 122.014 39.6755 121.964 39.8754C121.865 39.7755 121.765 39.7255 121.616 39.6255C121.466 39.2758 121.367 38.926 121.267 38.5262C120.172 35.3282 120.869 32.4799 122.96 29.9315Z" fill="#F8AF96"/>
<path d="M137.397 24.7347C137.347 24.8346 137.297 24.9346 137.247 25.0845C136.799 24.9346 136.451 24.6847 136.102 24.3849C135.804 23.6853 136.401 23.3356 136.65 22.8359C137.297 22.3861 138.044 21.9864 138.84 21.8365C139.139 21.8865 139.438 21.8865 139.786 21.8365C140.284 21.8365 140.433 22.2362 140.583 22.586C141.329 24.1351 142.325 25.4842 143.619 26.5836C143.968 26.8834 143.868 27.0833 143.569 27.2831C143.569 27.1832 143.52 26.9833 143.42 27.0333C142.624 27.6329 142.126 27.0833 141.678 26.5836C141.379 26.2338 141.13 25.834 140.931 25.4343C140.483 24.5348 139.736 24.0351 138.79 23.7353C138.691 23.7353 138.641 23.7353 138.542 23.6853C137.496 23.2356 137.496 23.2356 137.546 24.4349C137.496 24.5348 137.446 24.6348 137.397 24.7347Z" fill="#F59072"/>
<path d="M132.12 16.24C132.219 17.0895 132.767 17.2394 133.464 17.2394C134.012 17.2394 134.559 17.3893 134.858 17.889C135.057 18.1388 134.957 18.3887 134.957 18.6885C134.908 19.2381 134.908 19.7878 134.957 20.3375C135.007 21.1869 134.758 22.0364 134.211 22.7859C132.269 21.037 131.423 18.3887 132.12 16.24Z" fill="#F27F61"/>
<path d="M138.89 21.8865C138.193 22.2363 137.446 22.5361 136.749 22.8859C136.251 22.736 136.002 22.3362 135.903 21.8365C135.953 21.137 136.002 20.4374 136.749 20.0376C137.147 19.8378 137.197 19.488 137.297 19.0882C137.346 18.8384 137.496 18.4886 137.844 18.5885C138.243 18.6885 138.093 19.0383 138.043 19.2881C137.994 19.538 137.844 19.7878 138.093 19.9877C138.342 20.1876 138.641 19.9877 138.84 19.8378C139.139 19.6379 139.487 19.3881 139.836 19.3381C140.035 19.6879 139.786 20.0876 140.035 20.3874C140.234 21.137 140.383 21.8365 140.582 22.5861C140.333 22.3362 140.084 22.0364 139.736 21.9365C139.437 22.0364 139.188 22.0364 138.89 21.8865Z" fill="#F27F62"/>
<path d="M141.877 13.8914C141.479 13.6416 141.18 13.1919 140.682 13.042C140.433 12.942 140.234 12.8421 139.985 12.942C139.338 13.2918 138.79 13.042 138.243 12.7421C137.944 12.5423 137.894 12.2924 138.143 12.0426C138.741 11.4929 138.442 11.2431 137.845 11.0932C137.695 11.0432 137.546 10.9433 137.596 10.7434C139.487 10.7933 141.28 11.1931 143.121 11.6928C143.52 11.7927 143.719 11.8927 143.321 12.2924C142.773 12.7921 142.375 13.3418 141.877 13.8914Z" fill="#F17F61"/>
<path d="M135.057 29.8816C135.306 29.3319 135.505 28.7323 136.052 28.3825C136.202 28.2825 136.451 28.0827 136.65 28.2825C136.799 28.4325 136.65 28.6323 136.6 28.8322C136.152 29.7816 136.152 29.8316 137.247 30.0814C137.645 30.1814 137.944 30.2813 138.044 30.731C138.292 31.5805 139.039 31.8803 139.836 31.6305C140.333 31.4806 140.582 31.4806 140.582 32.0802C140.333 33.1296 140.333 34.2289 140.383 35.3282C140.184 35.1783 140.284 34.9284 140.234 34.7286C139.985 33.2795 139.039 32.8297 137.745 32.7798C137.446 32.7798 137.297 32.5799 137.247 32.33C137.098 31.7804 136.899 31.3806 136.202 31.6305C136.052 31.6804 135.853 31.5805 135.754 31.4306C135.554 30.9309 135.057 30.5312 135.057 29.8816Z" fill="#FBC4AF"/>
<path d="M135.056 29.8815C135.256 30.3313 135.704 30.6311 135.753 31.1807C135.803 31.4306 135.953 31.6305 136.201 31.4306C137.048 30.8809 137.147 31.6305 137.297 32.0802C137.396 32.43 137.446 32.5799 137.944 32.5299C138.342 32.4799 138.939 32.6298 139.437 33.0796C139.985 33.5793 140.284 33.979 140.134 34.7285C138.79 34.0789 137.496 33.4793 136.152 32.8297C136.002 31.8303 134.957 32.0302 134.459 31.4806C134.061 31.0808 133.961 31.3306 133.712 31.5305C133.563 31.7804 133.364 31.7804 133.165 31.5805C133.015 31.3306 132.816 31.1807 132.567 31.0308C132.717 30.681 132.916 30.4312 133.165 30.1814C133.264 30.1814 133.414 30.1814 133.513 30.1814C134.111 30.681 134.409 30.0814 134.857 29.8316C134.957 29.8815 135.007 29.8815 135.056 29.8815Z" fill="#FBD7C7"/>
<path d="M136.749 20.0376C136.351 20.5873 136.052 21.1869 136.102 21.8865C135.704 22.3862 135.604 23.1357 134.907 23.3856C134.609 23.2357 134.41 22.9858 134.26 22.736C135.007 21.1869 134.559 19.488 134.957 17.889C136.749 17.889 136.749 17.889 136.749 20.0376Z" fill="#F59073"/>
<path d="M129.083 17.0894C127.739 16.5898 127.341 14.8908 128.237 13.5416C128.685 13.0419 129.033 12.4923 129.581 12.0426C130.029 11.9426 130.527 11.8427 130.925 12.1925C130.029 13.7415 129.382 15.3405 129.083 17.0894Z" fill="#F17F62"/>
<path d="M153.028 16.6897C152.978 17.1394 152.729 16.8896 152.58 16.7896C151.684 16.19 150.738 15.7902 149.742 15.4904C148.299 14.9907 147.154 14.0413 145.909 13.2418C146.158 12.7421 146.507 12.8421 146.955 13.0419C148.946 13.8914 150.738 15.0407 152.53 16.24C152.679 16.3899 152.829 16.5398 153.028 16.6897Z" fill="#F17F61"/>
<path d="M137.546 10.7434C137.645 10.7934 137.695 10.8933 137.795 10.8933C138.79 11.2931 138.84 11.2931 138.193 12.1425C138.043 12.3924 138.093 12.5423 138.193 12.7422C137.197 12.3924 136.251 12.0926 135.256 11.7428C135.106 11.6928 135.057 11.5929 135.007 11.443C135.704 10.3936 136.6 10.4935 137.546 10.7434Z" fill="#F49073"/>
<path d="M129.432 12.2424C129.282 12.892 128.884 13.3417 128.237 13.5916C127.54 13.1419 127.042 12.5422 126.594 11.8926C127.49 11.5428 128.386 11.3929 129.282 11.1931C129.78 11.4429 129.681 11.8427 129.432 12.2424Z" fill="#FAD6C6"/>
<path d="M117.832 17.7391C117.832 17.4892 117.832 17.2893 117.832 17.0395C118.031 16.7896 117.832 16.4399 117.982 16.19C118.479 15.6903 119.126 15.3905 119.823 14.8908C119.475 15.9901 119.176 16.9895 119.126 18.0389C118.977 18.3387 118.778 18.5386 118.43 18.5885C117.982 18.4886 117.782 18.1888 117.832 17.7391Z" fill="#F59F83"/>
<path d="M131.423 26.2338C131.024 25.4843 130.676 24.7347 130.527 23.8353C130.377 23.1857 129.83 22.5861 129.431 21.9864C128.934 21.2369 128.784 20.4874 129.282 19.6379C129.68 20.9371 130.278 22.2363 131.074 23.3356C131.273 24.0352 131.522 24.7347 131.672 25.4343C131.721 25.7841 131.871 26.0839 131.423 26.2338Z" fill="#F9C4AF"/>
<path d="M142.524 37.227C142.524 37.327 142.524 37.4269 142.574 37.5268C142.624 38.0265 143.022 38.3263 143.221 38.7261C143.321 39.0759 143.42 39.3757 143.569 39.7255C143.271 40.0753 142.972 40.3751 142.624 40.6249C142.424 40.575 142.325 40.3751 142.275 40.2252C142.176 40.0253 142.225 39.7754 142.126 39.5756C142.026 38.9759 141.728 38.4263 141.728 37.8266C141.678 37.5768 141.528 37.227 141.827 37.0771C142.076 36.8273 142.325 37.0271 142.524 37.227Z" fill="#FDFCFC"/>
<path d="M129.432 12.2424C129.382 11.8927 129.481 11.4929 129.282 11.1931C130.178 11.0432 131.025 10.8933 132.12 10.6934C131.622 11.343 131.273 11.7927 130.875 12.2424C130.427 12.2424 129.929 12.2424 129.432 12.2424Z" fill="#F18F71"/>
<path d="M131.423 26.2338C131.672 25.6342 131.174 25.1345 131.174 24.5848C131.174 24.1851 130.776 23.8353 131.074 23.4355C131.423 23.8852 131.771 24.285 132.12 24.7347C132.518 25.5342 132.667 26.3337 132.269 27.1332C132.219 27.3331 132.07 27.483 131.921 27.583C131.771 27.0833 131.622 26.6335 131.423 26.2338Z" fill="#F9D5C5"/>
<path d="M125.25 12.2924C125.299 12.5423 125.399 12.7921 125.449 13.0919C125.499 13.5416 125.499 13.9414 125.051 14.2912C124.603 14.591 124.354 14.2412 124.055 14.0913C123.906 13.9914 123.706 13.9914 123.507 13.9414C124.055 13.2918 124.453 12.5423 125.25 12.2924Z" fill="#F9C3AF"/>
<path d="M134.907 23.4355C135.256 22.9358 135.455 22.2362 136.102 21.9364C136.102 22.3862 136.6 22.5361 136.749 22.9358C136.6 23.4355 136.102 23.8353 136.052 24.3849C135.604 24.1351 135.206 23.8353 134.907 23.4355Z" fill="#F06C50"/>
<path d="M132.618 31.0808C132.866 31.0309 133.165 30.8809 133.265 31.3307C133.314 31.6305 133.464 31.7304 133.762 31.5805C134.011 32.2301 134.808 32.7298 134.31 33.6292C133.663 33.2795 133.265 32.6299 132.916 32.0302C132.717 31.7304 132.518 31.7304 132.269 31.7804C132.269 31.4806 132.468 31.2307 132.618 31.0808Z" fill="#FCEFE9"/>
<path d="M127.092 28.5324C126.594 28.9321 126.146 28.8822 125.798 28.3325C125.598 28.0327 125.2 27.9827 125.101 27.583C125.349 27.2332 125.698 26.9334 126.096 26.6835C126.345 27.3831 127.092 27.7828 127.092 28.5324Z" fill="#FAD6C6"/>
<path d="M145.013 14.1912C145.66 14.8408 145.262 15.5404 144.914 16.0401C144.565 16.4898 144.167 16.0901 143.868 15.6903C144.167 15.1406 144.515 14.6409 145.013 14.1912Z" fill="#F07F62"/>
<path d="M132.269 27.0833C132.219 26.2838 132.169 25.4843 132.12 24.6848C132.169 24.7347 132.269 24.7847 132.319 24.8347C133.464 25.934 133.464 25.934 132.269 27.0833Z" fill="#EF9074"/>
<path d="M142.524 37.227C142.026 37.0771 141.628 37.0271 141.677 37.7267C141.429 37.1771 141.528 36.5774 141.578 36.0278C142.125 35.728 142.374 35.8279 142.374 36.5275C142.374 36.7773 142.474 37.0271 142.524 37.227Z" fill="#F3D6C9"/>
<path d="M133.265 15.0907C133.016 15.2906 132.817 15.5404 132.418 15.4405C132.568 14.8408 132.817 14.3411 133.215 13.8914C133.414 14.2412 133.364 14.641 133.265 15.0907Z" fill="#EB7C60"/>
<path d="M118.43 18.5386C118.629 18.3887 118.878 18.1888 119.077 18.0389C119.127 18.6385 119.077 19.2881 119.226 19.8877H119.176H119.127C118.479 19.6379 118.479 19.0882 118.43 18.5386Z" fill="#F4F1F0"/>
<path d="M131.423 39.5256C131.672 39.8754 131.821 40.2752 131.921 40.7249C131.473 40.6249 131.423 40.2252 131.273 39.8754C131.323 39.7755 131.373 39.6755 131.423 39.5256Z" fill="#4F4D4D"/>
<path d="M121.317 38.5262C121.467 38.876 121.815 39.1758 121.666 39.6256C121.367 39.4257 121.268 39.1758 121.168 38.876C121.218 38.7761 121.268 38.6762 121.317 38.5262Z" fill="#4C3A35"/>
<path d="M133.265 15.0907C133.265 14.6909 133.265 14.2912 133.215 13.8415C133.215 13.7915 133.215 13.7415 133.265 13.7415C133.464 14.1912 133.513 14.641 133.265 15.0907Z" fill="#F38D77"/>
<path d="M122.462 2.59839C122.711 2.69833 123.059 2.7483 123.109 3.09808C122.761 3.09808 122.462 2.99814 122.462 2.59839Z" fill="#969596"/>
<path d="M123.756 3.39792C123.955 3.39792 124.105 3.39792 124.304 3.39792C124.453 3.44789 124.553 3.5978 124.404 3.69773C124.105 3.89761 123.955 3.5978 123.756 3.39792Z" fill="#DDDDDD"/>
<path d="M142.076 39.5256C142.275 39.6755 142.275 39.8754 142.325 40.0753C142.275 40.1752 142.275 40.2752 142.126 40.2752C141.877 40.2752 141.977 39.9754 141.877 39.8754C141.877 39.8254 141.877 39.7755 141.877 39.6755C141.977 39.6755 142.026 39.5756 142.076 39.5256Z" fill="#494545"/>
<path d="M117.982 16.19C117.982 16.4898 118.131 16.7896 117.833 17.0394C117.833 16.7896 117.833 16.4898 117.833 16.2399C117.882 16.2399 117.932 16.19 117.982 16.19Z" fill="#F7AA93"/>
<path d="M106.682 32.5299C106.632 32.9797 106.93 33.1296 107.279 33.1795C107.926 33.2295 107.876 33.5293 107.677 34.029C107.428 34.5787 107.329 35.1283 107.478 35.7779C107.627 36.3276 107.578 36.8773 106.98 37.327C106.333 37.8267 106.731 38.5762 106.93 39.1758C107.229 40.0253 107.329 40.8748 107.378 41.7742C107.478 42.2739 107.478 42.7736 107.378 43.2733C107.627 44.2227 107.677 45.1721 107.926 46.1215C108.026 46.5213 108.175 46.8711 108.374 47.2209C109.569 49.2196 110.415 51.4682 111.709 53.417C112.257 54.3165 112.904 55.116 113.701 55.9655C113.601 54.7162 113.054 53.8168 112.506 52.8674C111.809 51.7181 111.062 50.6687 110.863 49.2696C110.764 48.9198 110.764 48.62 110.863 48.2702C110.515 46.8711 109.569 45.6718 109.22 44.2727C109.121 43.9229 109.121 43.6231 109.22 43.2733C109.32 42.5737 109.569 42.224 110.365 42.224C110.913 42.224 111.461 42.0241 112.008 41.9241C112.357 42.0241 112.456 42.3239 112.506 42.6237C112.506 42.8236 112.456 43.0734 112.406 43.2733C112.108 43.9229 112.406 44.2727 113.054 44.3726C113.352 44.5725 113.452 44.8723 113.601 45.1721C114.298 46.8711 114.746 48.62 115.941 50.1191C116.339 50.6188 116.538 51.2184 116.688 51.868C116.737 52.1178 116.887 52.3677 116.936 52.6675C116.837 53.0173 116.538 52.9673 116.289 53.1172C115.244 53.6669 114.796 54.7162 115.144 55.7656C115.443 56.665 116.737 57.5645 117.733 57.1647C117.882 57.1148 118.032 57.0648 118.231 57.1148C118.778 57.2647 118.978 57.7144 119.177 58.1641C119.426 58.7138 119.824 59.1135 120.371 59.3634C121.715 60.013 122.661 61.1623 123.607 62.3115C123.806 62.5114 123.906 62.7613 124.254 62.7113C124.901 62.6114 125.3 62.9612 125.698 63.3609C125.2 64.6101 124.503 65.7594 123.856 66.9087C123.557 67.4584 123.259 67.4584 122.761 67.2085C118.231 65.0099 114.447 61.9118 111.461 57.8143C107.876 52.9173 105.985 47.4207 105.785 41.3245C105.537 38.2764 105.785 35.3282 106.682 32.5299Z" fill="#F27F62"/>
<path d="M113.004 44.3726C111.909 44.3726 111.809 44.2727 112.158 43.1733C112.207 42.9735 112.257 42.7736 112.357 42.5237C113.8 42.4738 113.95 42.2739 113.95 40.7248C113.95 39.9753 113.9 39.2258 114.348 38.5762C114.796 37.9765 115.045 37.9765 115.493 38.6261C115.543 38.776 115.592 38.9759 115.543 39.1258C115.344 39.9253 115.642 40.425 116.389 40.6749C116.439 41.9741 117.385 42.024 118.33 42.024C118.629 42.2739 119.077 42.2239 119.376 42.4238C119.625 42.5737 120.073 43.0234 119.923 43.1234C119.276 43.4731 119.575 44.1227 119.326 44.4226C118.679 45.272 119.475 45.4719 119.824 45.7218C120.222 46.0216 120.421 46.3214 120.322 46.8211C120.272 47.1209 120.272 47.4207 120.421 47.7205C121.118 48.9198 121.516 50.269 121.915 51.5681C122.114 52.1678 121.915 52.8174 122.462 53.417C123.806 54.8661 124.901 56.5151 126.594 57.6144C126.843 57.7643 126.992 57.8643 127.241 57.7144C127.042 59.5132 126.495 61.2122 125.748 62.8612C125.499 62.9111 125.35 62.7612 125.25 62.6113C124.752 61.7619 123.956 61.3621 123.109 60.9623C122.711 60.7625 122.462 60.5126 122.412 60.1129C122.363 59.7131 122.213 59.4133 121.765 59.4133C121.666 59.4133 121.566 59.4133 121.516 59.3633C120.67 58.314 119.426 57.6144 118.928 56.2652C118.978 55.7656 119.127 55.2659 119.326 54.8161C119.724 54.5663 119.923 54.9661 120.172 55.116C120.421 55.2659 120.571 55.5657 120.919 55.8155C120.72 55.066 120.322 54.5163 119.923 53.9667C119.575 53.417 119.326 52.8174 119.177 52.1678C118.679 50.5188 118.081 48.9198 116.986 47.5206C116.638 47.0709 116.439 46.6712 116.688 46.0216C116.986 45.322 116.439 44.6724 115.642 44.6224C115.443 44.6224 115.244 44.5725 115.095 44.5225C114.447 44.1727 113.751 43.673 113.004 44.3726Z" fill="#F7A084"/>
<path d="M143.221 68.7076C143.121 68.7076 143.022 68.7076 142.872 68.7576C141.578 68.9075 140.333 69.2572 139.039 69.5571C138.989 69.5571 138.89 69.5571 138.84 69.607C138.492 69.7569 138.093 69.607 137.695 69.7569C137.546 69.7569 137.396 69.8069 137.048 69.8069C138.492 67.1086 139.587 64.3603 140.134 61.4121C140.184 61.4621 140.284 61.4621 140.333 61.512C140.682 61.8118 141.03 61.6619 141.329 61.562C142.524 61.1622 143.519 60.4127 144.465 59.6132C144.814 59.3134 144.814 58.8137 145.013 58.4139C145.112 58.1641 145.312 58.0142 145.511 57.9143C146.307 57.5145 146.954 56.8149 147.95 56.9149C147.801 60.6626 146.407 64.0105 144.515 67.1585C144.316 67.4584 144.117 67.7582 143.918 68.058C143.818 68.3078 143.42 68.4078 143.221 68.7076Z" fill="#F27F62"/>
<path d="M144.864 43.9229C145.113 44.5725 145.76 45.0222 145.859 45.7218C146.158 46.5713 146.706 47.3208 146.855 48.2202C145.71 49.3196 145.113 51.0185 143.47 51.6181C143.271 51.6681 143.121 51.818 143.022 51.9679C142.574 53.0672 141.429 53.6669 140.881 54.6663C140.682 55.066 140.433 55.4658 139.885 55.2159C139.437 53.6669 138.89 52.1678 138.292 50.7187C138.591 49.9692 139.139 49.4195 139.686 48.8698C140.682 47.9204 141.279 46.5213 142.673 45.9217C143.022 45.8217 143.32 45.9217 143.669 45.9716C144.565 46.1215 144.565 46.1215 144.615 45.2721C144.615 45.1222 144.664 44.9223 144.615 44.7724C144.515 44.4726 144.515 44.1727 144.764 43.8729C144.714 43.8729 144.814 43.8729 144.864 43.9229Z" fill="#FBC4AF"/>
<path d="M136.451 64.5602C135.903 66.3091 135.007 67.9081 134.061 69.4571C133.912 69.707 133.763 69.7569 133.464 69.7569C131.074 69.607 128.685 69.1573 126.395 68.5077C125.897 68.3578 125.798 68.2079 126.096 67.7582C127.042 66.359 127.689 64.86 128.386 63.3609C128.585 63.4109 128.685 63.5608 128.784 63.7107C129.83 64.86 131.074 65.0598 132.518 64.7101C133.862 64.4102 135.156 64.4102 136.451 64.5602Z" fill="#F27F62"/>
<path d="M125.399 45.0222C125.449 45.1221 125.549 45.1721 125.598 45.272C125.698 45.4719 125.648 45.7218 125.698 45.9716C126.594 48.2702 127.291 50.5688 127.44 53.0672C127.44 53.2171 127.44 53.417 127.44 53.5669C127.44 54.0666 127.44 54.6163 127.44 55.2159C126.395 54.8661 125.598 54.3664 125.25 53.3171C125.2 53.1172 125.1 52.9173 124.951 52.8174C123.557 52.1678 123.209 50.6687 122.412 49.5194C122.263 49.3195 122.363 49.1197 122.412 48.8698C122.512 48.4701 122.363 48.1203 122.014 47.9204C121.666 47.7705 121.516 47.5706 121.666 47.2208C121.815 46.921 121.865 46.4213 122.363 46.5213C123.259 46.6712 123.607 46.0216 124.055 45.4719C124.155 45.372 124.254 45.2221 124.155 45.1221C124.055 45.0222 123.906 45.0722 123.756 45.0722C123.607 45.0722 123.507 45.1721 123.358 45.1721C123.109 45.2221 122.86 45.1221 122.711 44.9223C122.562 44.7224 122.761 44.5725 122.86 44.4226C122.96 44.2227 123.209 44.0728 123.059 43.8229C122.91 43.6231 122.661 43.673 122.462 43.723C121.715 43.9728 121.616 43.5231 121.865 43.0734C122.213 42.3239 122.114 41.4744 122.313 40.7249C123.358 41.8741 124.254 43.1733 125.15 44.4725C125.1 44.7224 125.3 44.8723 125.399 45.0222Z" fill="#FBC4AF"/>
<path d="M129.78 56.2153C129.531 53.517 128.685 51.0185 127.59 48.57C128.635 48.7199 129.034 49.4695 129.233 50.3689C129.332 50.8186 129.432 51.0685 129.93 51.1184C130.427 51.1684 130.826 51.4183 130.925 51.9679C131.025 52.3677 131.373 52.5675 131.771 52.6675C132.468 52.8174 133.165 52.9673 133.812 52.8174C135.007 52.5675 136.252 52.4676 137.397 51.868C137.795 53.2671 137.944 54.7162 137.895 56.2153C138.044 56.665 137.745 56.715 137.397 56.715C136.102 56.8649 134.758 56.765 133.663 57.7144C133.315 58.0142 132.916 57.9142 132.618 57.5645C132.419 57.3646 132.219 57.1647 132.12 56.9149C131.871 56.4152 131.523 56.2653 130.975 56.4651C130.527 56.665 130.129 56.5651 129.78 56.2153Z" fill="#FBC4AF"/>
<path d="M137.446 51.818C137.197 52.3177 136.799 52.5175 136.251 52.5675C135.256 52.6675 134.31 53.0672 133.265 53.0672C132.717 53.0672 132.169 52.9173 131.622 52.8673C131.224 52.8174 130.875 52.6175 130.825 52.1678C130.726 51.3683 130.178 51.2683 129.581 51.3183C129.332 51.3183 129.133 51.3683 129.133 51.0684C129.232 49.8692 128.486 49.2196 127.639 48.62C127.092 47.6705 126.544 46.7211 125.997 45.7717C125.847 45.6718 125.698 45.5718 125.797 45.322C125.847 45.0222 125.947 44.7224 125.997 44.4225C126.992 44.4725 127.39 45.2221 127.639 46.0216C127.789 46.6212 128.187 46.971 128.685 47.3208C129.73 48.0703 130.676 48.9697 131.672 49.7692C131.771 49.8692 131.871 50.0691 132.07 50.0191C133.563 49.5694 135.256 49.8692 136.65 48.9198C137.048 49.8192 137.297 50.8186 137.446 51.818Z" fill="#FBD7C7"/>
<path d="M140.234 61.512C140.234 61.462 140.184 61.4121 140.184 61.3621C140.184 60.1628 140.234 58.9136 140.234 57.7143C140.184 56.8149 140.533 56.3152 141.478 56.0154C142.474 55.6656 143.569 55.3158 144.316 54.3664C144.366 54.2665 144.316 54.4164 144.366 54.3164C144.864 53.3171 145.461 52.4676 146.705 52.2177C147.153 52.1178 147.353 51.5182 147.701 51.1684C147.95 51.9679 148.05 52.8174 148.05 53.6668C148.498 55.016 147.651 55.8655 146.855 56.7649C146.457 57.2147 145.959 57.5145 145.71 58.0142C145.56 58.1141 145.361 58.264 145.212 58.3639C144.167 58.9636 143.171 59.5632 142.126 60.2628C141.528 60.6625 140.931 61.2122 140.234 61.512Z" fill="#F7A084"/>
<path d="M128.585 63.7107C128.536 63.5608 128.436 63.4608 128.386 63.3109C128.784 62.0117 129.183 60.7625 129.581 59.4633C130.477 59.5632 131.423 59.4633 132.219 59.913C133.713 60.7125 135.157 60.2628 136.6 59.7131C136.949 59.5632 137.297 59.2134 137.745 59.5133C137.695 60.6626 137.397 61.7619 137.048 62.8612C136.65 63.3609 136.102 63.6107 135.455 63.6107C134.41 63.6107 133.315 63.6607 132.319 64.2104C131.921 64.4102 131.423 64.4602 130.975 64.2603C130.228 64.0105 129.332 64.2603 128.585 63.7107Z" fill="#F7A084"/>
<path d="M137.745 59.5632C136.799 59.6632 136.102 60.3627 135.157 60.5126C134.061 60.7125 133.066 60.7625 132.07 60.1629C131.572 59.863 130.975 60.013 130.477 59.913C130.178 59.863 129.83 59.863 129.581 59.5632C129.681 58.4639 129.83 57.3646 129.78 56.2653C130.328 56.3652 130.826 56.5151 131.373 56.1653C131.672 55.9655 131.971 56.1154 132.12 56.4651C132.17 56.6151 132.269 56.765 132.369 56.9149C133.265 57.9142 133.066 58.1141 134.161 57.1647C134.36 57.0148 134.609 56.765 134.808 56.8149C135.754 57.0648 136.65 56.1653 137.596 56.5651C137.845 56.665 137.895 56.4152 137.944 56.2153C137.994 57.3146 137.944 58.4139 137.745 59.5632Z" fill="#F8AF96"/>
<path d="M147.701 51.1684C147.502 51.9679 146.905 52.6175 146.108 52.7174C145.66 52.7674 145.312 52.8674 145.212 53.2671C144.715 55.1659 143.022 55.7156 141.529 56.2153C140.632 56.5151 140.533 57.0648 140.284 57.6644C140.135 56.8149 140.035 56.0154 139.886 55.1659C140.284 55.116 140.533 54.9161 140.732 54.5663C140.981 54.0166 141.28 53.417 141.977 53.2671C142.076 53.2671 142.176 53.0672 142.225 52.9673C142.425 51.868 143.271 51.4182 144.067 50.9186C144.864 50.4189 145.611 50.0191 145.76 48.9698C145.86 48.4201 146.308 48.1703 146.855 48.1703C147.303 49.1696 147.552 50.169 147.701 51.1684Z" fill="#F8AF96"/>
<path d="M142.574 46.0716C142.375 46.3714 142.176 46.6712 141.778 46.7212C141.479 46.7712 141.18 47.021 141.18 47.2209C141.23 48.2203 140.135 48.2702 139.786 48.9198C139.388 49.5694 138.89 50.1691 138.293 50.7187C137.845 49.8692 137.447 49.0697 136.999 48.2203C137.496 47.6206 138.392 47.3708 138.592 46.4713C138.741 45.9217 139.488 45.8717 139.786 45.422C139.886 45.422 139.985 45.422 140.085 45.422C140.881 45.2721 141.578 45.6718 142.325 45.8217C142.425 45.8217 142.524 45.9217 142.574 46.0716Z" fill="#FBD7C7"/>
<path d="M119.127 56.2153C119.227 56.7649 119.675 57.1647 120.023 57.4645C120.421 57.7643 120.67 58.1141 120.969 58.4639C121.268 58.8636 121.566 59.3633 122.213 59.2634C122.363 59.2134 122.612 59.3134 122.562 59.5132C122.363 60.4627 123.01 60.8124 123.657 61.0623C124.603 61.4121 125.101 62.2116 125.698 62.9112C125.648 63.0111 125.599 63.161 125.549 63.2609C124.902 63.161 124.404 62.5114 123.657 62.9112C123.607 62.9112 123.508 62.8112 123.458 62.7113C122.562 61.2122 121.367 60.0629 119.824 59.3134C119.426 59.1135 119.227 58.8137 119.027 58.4139C118.779 57.9642 118.679 57.4145 118.131 57.1647C118.33 56.665 118.629 56.3652 119.127 56.2153Z" fill="#F59073"/>
<path d="M128.585 63.7107C129.481 64.0105 130.427 63.7107 131.323 64.1104C131.572 64.2104 132.219 64.1604 132.667 63.7606C133.115 63.3109 133.862 63.4608 134.459 63.4109C135.355 63.3609 136.251 63.4109 137.048 62.8612C136.948 63.4608 136.749 64.0105 136.45 64.5601C134.658 64.76 132.866 64.8599 131.074 65.1098C130.178 65.2097 129.182 64.6601 128.585 63.7107Z" fill="#F59073"/>
<path d="M139.089 69.5071C140.284 68.9574 141.578 68.6076 142.922 68.7076C142.822 68.9574 142.574 68.8075 142.424 68.9074C141.279 69.2073 140.184 69.5071 139.089 69.5071Z" fill="#E9C4B5"/>
<path d="M137.745 69.707C138.094 69.4571 138.492 69.5071 138.89 69.5571C138.542 69.7569 138.143 69.707 137.745 69.707Z" fill="#DAA696"/>
<path d="M125.748 45.272C125.797 45.4219 125.847 45.5719 125.947 45.7218C125.897 45.7717 125.797 45.8717 125.748 45.9216C125.598 45.7218 125.3 45.5219 125.648 45.2221C125.698 45.272 125.698 45.272 125.748 45.272Z" fill="#473A37"/>
<path d="M143.221 78.2017C142.922 78.2017 142.673 78.1018 142.673 77.752C142.972 77.802 143.171 77.9019 143.221 78.2017Z" fill="#A3A2A2"/>
<path d="M152.032 29.3819C151.982 28.7823 151.783 28.2326 151.236 27.8328C150.688 27.4331 150.34 26.8834 149.991 26.2338C149.593 25.5343 148.946 24.9346 148.348 24.285C148.149 24.0352 148 23.7853 147.851 23.5355C148.697 23.4855 149.493 23.5355 149.792 24.6348C149.892 25.0346 150.389 25.3844 150.738 25.6342C151.385 26.0839 151.883 26.5836 152.132 27.3331C152.231 27.7329 152.43 27.583 152.679 27.583C153.476 28.0327 154.272 28.4824 155.119 28.7323C155.716 29.4319 156.811 29.3819 157.359 30.1814C157.658 30.6311 157.956 31.0309 157.508 31.5306C157.359 31.7304 157.209 31.9803 157.359 32.2301C157.558 32.5299 157.857 32.43 158.106 32.3301C158.603 32.1302 159.151 32.2301 159.649 32.1302C160.445 31.9803 161.043 32.48 161.242 33.2295C161.64 34.6286 161.988 35.9778 162.337 37.377C162.486 38.0266 162.387 38.6262 162.437 39.2758C162.138 39.4257 162.437 39.6256 162.387 39.8254C162.486 40.0253 162.486 40.2252 162.586 40.4251C163.532 41.0747 163.581 41.8242 162.835 42.7237C162.387 43.2233 162.536 43.9729 162.437 44.6225C162.586 45.0222 162.586 45.422 162.437 45.7718C162.387 45.9217 162.437 46.1715 162.337 46.2215C161.341 46.9211 162.088 47.6206 162.337 48.3202C163.183 47.9704 163.133 46.971 163.532 46.3714C163.631 46.2215 163.731 45.7718 163.93 46.3214C163.731 47.8205 163.283 49.2196 162.685 50.6188C162.337 50.9186 161.889 51.0685 161.69 51.5182C161.59 51.7681 161.59 52.0179 161.59 52.3177C161.59 52.6175 161.491 52.8674 161.391 53.1172C160.893 53.7668 160.445 54.4664 160.047 55.2159C159.45 55.9155 158.753 56.5651 158.205 57.3146C157.508 58.1641 156.463 58.5639 155.417 58.8637C155.069 58.7638 154.92 58.4639 154.72 58.2141C154.223 57.7144 153.775 57.7144 153.476 58.314C153.127 59.1135 152.679 59.8631 152.679 60.8125C152.43 61.5121 151.783 61.8119 151.236 62.2116C150.389 62.8113 149.693 63.5108 149.195 64.4103C149.045 64.6601 148.946 65.0099 148.548 64.91C149.344 62.7613 150.141 60.6126 150.19 58.2641C150.24 57.0648 149.991 55.9155 149.892 54.7163C150.638 54.6163 151.136 54.1666 151.584 53.6169C152.331 52.6675 153.078 51.7681 153.675 50.7687C153.974 50.319 154.272 49.8692 154.671 49.5195C155.716 48.57 156.164 47.3208 156.513 45.9716C156.612 45.5219 156.562 45.0222 157.01 44.6725C156.861 42.8236 157.409 41.0247 157.508 39.1758C157.558 38.1765 157.309 37.327 156.712 36.5275C155.766 35.3282 155.069 34.029 154.372 32.6799C154.173 31.9803 153.924 31.3307 153.227 31.0309C152.928 30.7311 152.779 30.2813 152.58 29.8816C152.53 29.6317 152.381 29.3819 152.032 29.3819Z" fill="#F27F62"/>
<path d="M148.697 64.9099C148.747 64.9099 148.747 64.9099 148.747 64.86C149.543 63.111 151.086 62.1117 152.53 60.9624C152.58 60.9124 152.63 60.8624 152.679 60.7625C153.575 60.013 154.372 59.1135 155.467 58.6638C157.508 58.1641 158.653 56.4651 159.947 55.066C160.395 54.8162 160.445 54.8162 160.595 55.016C159.051 57.7643 157.06 60.1629 154.671 62.3115C152.779 64.0105 150.738 65.4096 148.498 66.6089C148.249 66.7588 148.05 66.9087 147.651 66.9087C148.05 66.2091 148.348 65.5595 148.697 64.9099Z" fill="#FBD7C7"/>
<path d="M147.353 47.7205C148.05 47.2708 148.896 46.971 148.747 45.8217C148.647 45.2221 149.344 45.1222 149.792 44.9223C150.838 44.5225 150.838 44.5225 150.34 43.5231C150.639 43.2233 150.987 43.2733 151.336 43.2733C152.232 43.3233 153.128 43.2733 153.974 43.723C153.675 44.7724 152.978 45.5719 152.281 46.3714C151.136 47.7705 149.942 49.1696 148.598 50.4189C148.249 49.5194 147.801 48.62 147.353 47.7205Z" fill="#F8AF96"/>
<path d="M157.16 44.7224C156.861 46.2215 156.612 47.8205 155.567 49.0197C154.77 49.9691 153.974 50.9685 153.227 52.0179C152.48 53.0173 151.833 54.1666 150.688 54.8162C150.439 54.9661 150.24 55.116 149.991 54.7662C149.891 54.3165 149.792 53.8667 149.643 53.417C150.638 53.0173 151.584 52.2677 151.982 51.4682C152.43 50.6187 153.077 50.219 153.725 49.6693C154.571 48.8698 155.019 47.7705 155.517 46.7211C156.015 45.9216 156.463 45.2221 157.16 44.7224Z" fill="#F59073"/>
<path d="M163.631 32.6798C163.581 32.8797 163.532 33.0296 163.382 32.7298C163.133 32.2301 162.934 31.7304 162.685 31.2307C162.387 30.6311 162.138 30.0814 161.54 29.6817C160.694 29.082 160.744 27.8328 161.441 26.9833C162.486 28.7822 163.183 30.6811 163.631 32.6798Z" fill="#F07F61"/>
<path d="M145.71 58.0642C145.66 57.7144 145.859 57.5145 146.058 57.2646C146.656 56.665 147.203 56.0154 147.751 55.4158C148.249 54.9161 147.9 54.2665 148.05 53.6669C148.249 54.7162 148.249 55.8155 148.05 56.8649C147.203 57.1647 146.457 57.5645 145.71 58.0642Z" fill="#F38F72"/>
<path d="M161.64 51.3683C161.789 50.8186 162.237 50.6188 162.785 50.5188C162.436 51.5182 162.088 52.4676 161.491 53.3671C161.341 53.2671 161.441 53.1172 161.292 53.0173C161.341 52.7175 161.391 52.4676 161.441 52.1678C161.69 51.9679 161.441 51.6182 161.64 51.3683Z" fill="#F08E71"/>
<path d="M161.291 53.0672C161.441 53.1672 161.441 53.2671 161.491 53.417C161.291 54.0166 160.993 54.5163 160.644 55.016C160.445 55.016 160.196 55.016 159.997 55.066C160.445 54.4164 160.694 53.6169 161.291 53.0672Z" fill="#EF9074"/>
<path d="M143.221 68.7076C143.32 68.2579 143.719 68.1579 144.017 68.058C143.918 68.4577 143.569 68.6076 143.221 68.7076Z" fill="#E2BBAC"/>
<path d="M125.3 35.578C125.001 35.1283 124.752 34.6786 125.15 34.1789C125.35 33.929 125.101 33.2794 125.748 33.3794C125.947 33.879 126.494 33.979 126.893 34.4787C126.295 34.5286 125.997 34.8285 125.947 35.3781C125.897 35.8778 125.499 35.4281 125.3 35.578Z" fill="#FBD7C8"/>
<path d="M124.951 40.0753C124.702 40.1752 124.354 40.425 124.205 40.0253C124.005 39.6755 124.304 39.5756 124.603 39.5256C124.852 39.4756 124.802 39.2258 124.802 39.0759C125.051 39.3757 124.902 39.7255 124.951 40.0753Z" fill="#FBD9CA"/>
<path d="M126.245 43.0734C126.046 43.0234 125.797 42.9735 125.897 42.6737C126.046 42.3239 125.797 42.0241 125.797 41.7242C126.245 41.8242 127.042 41.7742 126.196 42.5238C126.046 42.6737 126.245 42.8735 126.245 43.0734Z" fill="#FBDACB"/>
<path d="M155.119 28.6823C154.123 28.7323 153.277 28.3825 152.679 27.533C152.082 25.7841 152.679 24.385 154.123 24.0352C155.318 23.7354 156.513 24.385 156.911 25.4843C157.309 26.6835 156.762 28.0327 155.567 28.4824C155.417 28.5824 155.268 28.6323 155.119 28.6823Z" fill="#231F20"/>
<path d="M151.883 22.0364C152.43 20.6373 151.435 19.9877 150.389 19.3381C149.643 18.8883 148.796 18.5885 148.398 17.6891C148.298 17.4392 148.099 17.1894 148.398 16.9395C148.697 16.6897 148.896 16.9395 149.145 17.0895C151.136 18.2387 152.729 19.7878 153.874 21.7865C154.372 22.5861 153.725 22.736 153.376 23.0358C152.928 23.4355 152.53 23.5355 152.231 22.8859C152.082 22.636 151.783 22.4361 151.883 22.0364Z" fill="#F28062"/>
<path d="M147.353 22.8859C147.253 22.9358 147.104 23.0358 147.054 22.9858C146.009 22.3862 144.665 22.3362 143.968 21.137C143.719 20.6872 143.221 20.3874 142.873 20.0376C143.221 19.5379 143.619 19.5879 144.067 19.8877C144.316 20.0876 144.565 20.2875 144.914 20.1875C145.909 19.9877 146.656 20.4874 147.403 21.037C147.9 21.3868 148.05 21.6866 147.701 22.1863C147.552 22.4362 147.452 22.686 147.353 22.8859Z" fill="#F28062"/>
<path d="M162.337 39.8754C162.238 39.6755 162.188 39.4756 162.088 39.2758C162.039 39.1259 162.039 38.976 162.188 38.976C162.287 38.976 162.337 39.1259 162.437 39.2258C162.437 39.3757 162.437 39.5256 162.487 39.6755C162.536 39.8754 162.487 39.9254 162.337 39.8754Z" fill="#FACCBB"/>
<path d="M162.486 45.7218C162.486 45.322 162.486 44.9223 162.486 44.5725C162.735 44.9223 162.735 45.322 162.486 45.7218Z" fill="#F38973"/>
<path d="M162.337 39.8754C162.387 39.8254 162.436 39.7755 162.486 39.7255C162.685 39.9254 162.636 40.1752 162.636 40.4251C162.436 40.2752 162.387 40.0753 162.337 39.8754Z" fill="#F8B7A5"/>
<path d="M115.343 38.7261C115.094 38.0765 114.846 38.2264 114.547 38.6761C114.149 39.2758 114.198 39.9753 114.198 40.6749C114.198 41.0247 114.248 41.3245 114.198 41.6743C114.099 42.6737 113.352 43.0235 112.356 42.5238C112.257 42.3239 112.108 42.074 112.008 41.8742C111.859 41.0247 111.709 40.2252 111.51 39.3757C111.411 39.2758 111.261 39.1758 111.261 39.0759C111.112 38.3763 110.714 37.9266 110.017 37.7267C109.867 37.6768 109.768 37.5268 109.668 37.3769C109.668 37.327 109.668 37.327 109.668 37.277C109.021 36.3276 109.021 35.3782 109.718 34.4288C110.315 33.5793 109.668 32.6299 109.867 31.6805C110.067 30.731 110.365 29.8316 111.361 29.3319C111.709 29.4818 112.058 29.6317 112.406 29.8316C112.904 30.0814 113.153 30.5811 113.004 30.9809C112.506 32.0802 112.705 33.2795 112.406 34.3788C112.356 34.5787 112.257 34.8285 112.257 35.0284C112.257 35.3282 111.809 35.628 112.108 35.8279C112.456 36.0777 112.904 36.2276 113.352 36.0777C113.651 35.9778 113.949 35.8279 114.248 35.8279C114.796 35.7779 115.393 35.8279 115.443 36.6274C115.443 36.9272 115.592 37.0771 115.891 37.1271C116.638 37.277 117.335 37.5768 118.081 37.4269C118.529 38.6262 118.529 38.6262 117.285 39.6256C117.135 39.7755 116.986 39.7755 116.837 39.7755C116.09 39.6755 115.692 39.1758 115.343 38.7261Z" fill="#FBD7C7"/>
<path d="M118.43 18.5386C118.729 18.9383 118.729 19.5379 119.127 19.8877C119.027 20.1376 118.977 20.4374 118.878 20.6872C118.729 21.1369 118.43 21.3868 117.932 21.1369C117.534 20.987 117.185 20.8871 116.936 21.3368C116.439 22.2862 115.543 22.636 114.646 22.8859C115.493 21.037 116.538 19.3381 117.783 17.739C118.032 17.9889 118.131 18.3387 118.43 18.5386Z" fill="#FBD7C7"/>
<path d="M111.311 29.3818C110.614 30.0314 110.266 30.9309 109.818 31.7304C109.569 31.3306 109.171 31.0308 109.121 30.4312C109.021 28.7322 109.519 28.2326 111.461 28.1826C111.859 28.6823 111.61 29.0321 111.311 29.3818Z" fill="#F8AF97"/>
<path d="M112.207 27.2332C112.406 26.3837 112.904 25.6841 113.203 24.8846C113.352 24.7347 113.551 24.7347 113.7 24.8846C113.402 25.4343 114.049 25.5342 114.248 25.834C114.447 26.1338 114.845 26.3337 114.646 26.7335C114.447 27.1832 114.099 27.433 113.601 27.3831C113.103 27.3331 112.655 27.2831 112.207 27.2332Z" fill="#FBD7C8"/>
<path d="M113.651 24.9346C113.502 24.9346 113.303 24.9346 113.153 24.9346C113.104 24.4849 112.855 24.1851 112.556 23.8852C112.407 23.7353 112.257 23.5355 112.407 23.2856C112.556 23.0358 112.705 22.9358 113.004 23.0358C113.452 23.1357 113.9 23.1857 114.348 23.2356C114.348 23.8852 114.448 24.5848 113.651 24.9346Z" fill="#F8B097"/>
<path d="M116.638 31.2308C116.588 31.8304 116.538 32.48 115.891 32.48C115.393 32.5299 115.493 31.9303 115.443 31.5805C115.443 31.0309 115.642 30.5312 116.19 30.4812C116.837 30.4312 116.538 30.9809 116.638 31.2308Z" fill="#FBD9CA"/>
<path d="M150.34 42.5737C149.842 42.2239 150.24 41.8242 150.34 41.4744C150.589 40.7748 150.24 40.2751 149.742 39.9254C149.195 39.5256 148.797 40.0253 148.398 40.2252C148.149 40.3251 148.05 40.5749 148.299 40.8248C148.448 40.9747 148.597 41.1746 148.398 41.3245C148.1 41.5743 147.701 41.6743 147.303 41.6243C147.054 41.5743 147.004 41.3745 147.054 41.1746C147.054 40.7748 146.905 40.425 146.656 40.1252C146.457 39.8754 146.507 39.7754 146.656 39.5256C146.905 39.1758 147.303 38.7761 146.556 38.3263C146.158 38.0765 145.81 37.4769 146.009 36.8772C146.158 36.3775 145.959 36.1277 145.461 36.1277C144.963 36.1277 144.914 35.7779 144.864 35.3782C144.814 34.7785 144.963 34.079 144.117 33.8291C144.018 33.7792 144.018 33.4793 144.018 33.2795C144.665 33.1795 145.013 32.7798 145.262 32.1801C145.113 32.1302 144.963 32.1302 144.864 32.0802C144.565 31.9303 144.067 31.8304 144.217 31.4806C144.366 31.0808 144.764 30.6811 145.312 30.781C145.81 30.8809 145.81 31.2807 145.71 31.6305C145.611 31.9303 145.66 32.0802 146.009 32.0802C147.353 32.0802 148.398 32.7798 149.543 33.3294C149.842 33.4793 150.091 33.6792 149.842 34.1789C149.643 34.6286 149.991 35.2283 150.34 35.4281C151.385 36.0278 151.684 37.1271 152.082 38.0765C152.182 38.3263 152.331 38.4762 152.53 38.5262C153.376 38.6761 153.526 39.1758 153.426 39.9254C152.132 40.2252 151.087 40.8248 150.738 42.2239C150.589 42.3239 150.489 42.4738 150.34 42.5737Z" fill="#F8AF96"/>
<path d="M150.34 42.5737C150.588 41.1746 151.385 40.2751 152.729 39.8754C152.978 39.8254 153.127 39.7754 153.326 39.9253C153.675 40.5749 153.476 41.3245 153.526 41.9741C153.675 41.7742 153.824 41.5244 154.123 41.4744C154.969 42.0241 154.969 42.7736 154.173 43.723C154.123 43.723 154.073 43.723 154.023 43.773C152.779 43.773 151.584 43.4732 150.34 43.5731C149.643 43.2233 150.389 42.8735 150.34 42.5737Z" fill="#FBE1D3"/>
<path d="M154.172 43.723C154.372 43.0234 155.019 42.2739 154.172 41.5743C154.073 41.4744 154.123 41.3744 154.222 41.2745C154.67 40.8747 154.969 40.2751 155.517 39.9253C155.915 39.6755 156.064 39.7254 156.213 40.2751C156.363 40.9247 156.462 41.4744 156.363 42.124C156.213 43.0234 155.915 43.5731 154.969 43.623C154.72 43.623 154.471 43.7729 154.172 43.723Z" fill="#FBDECF"/>
<path d="M153.327 31.0808C154.372 31.2307 154.472 31.3806 154.472 32.7298C153.526 32.5799 153.426 31.8303 153.327 31.0808Z" fill="#F59173"/>
<path d="M154.173 41.2246C154.173 41.3245 154.173 41.4244 154.123 41.5244C153.874 41.8242 153.625 42.074 153.327 42.5238C153.327 41.5743 153.327 40.7249 153.327 39.8754C153.824 40.2252 153.874 40.7748 154.173 41.2246Z" fill="#F8AF97"/>
<path d="M109.669 37.377C110.714 37.6268 111.461 38.1765 111.461 39.3757C109.221 39.4757 109.718 39.4257 109.669 37.377Z" fill="#FBC4AF"/>
<path d="M107.329 43.2233C107.329 42.7236 107.329 42.2239 107.329 41.7242C107.627 42.2239 107.627 42.7236 107.329 43.2233Z" fill="#F49780"/>
<path d="M109.171 43.2233C109.171 43.5731 109.171 43.8729 109.171 44.2227C108.922 43.8729 108.922 43.5731 109.171 43.2233Z" fill="#F4967F"/>
<path d="M110.813 48.2202C110.813 48.57 110.813 48.8698 110.813 49.2196C110.564 48.8698 110.564 48.57 110.813 48.2202Z" fill="#F49881"/>
<path d="M116.638 39.7255C116.787 39.7255 116.986 39.7255 117.135 39.7255C117.384 40.1252 117.932 40.0253 118.231 40.4251C118.679 40.9747 118.231 41.5244 118.28 42.074C118.081 42.124 117.882 42.224 117.683 42.224C116.588 42.3239 116.339 41.9741 116.289 40.7249C116.19 40.4251 116.389 40.2252 116.588 40.1252C117.036 40.0253 116.439 39.8254 116.638 39.7255Z" fill="#FBC4AF"/>
<path d="M142.574 40.575C142.723 40.0753 143.071 39.8754 143.519 39.7255C144.067 40.4251 144.416 41.2246 145.013 41.8742C145.212 42.124 144.864 42.174 144.664 42.2239C144.366 42.2739 143.968 42.0241 143.868 42.5737C143.47 42.6737 143.37 42.2739 143.121 42.124C142.872 41.7243 142.574 41.3745 142.424 40.9248C142.424 40.7249 142.474 40.6249 142.574 40.575Z" fill="#F9E3D8"/>
<path d="M143.221 42.0241C143.57 42.0241 143.57 42.4738 143.868 42.5238C143.868 42.6737 143.918 42.7736 144.018 42.8735C144.515 43.0234 144.715 43.3732 144.665 43.8729C144.764 44.1228 144.466 44.4226 144.665 44.6724C144.416 44.8723 144.217 44.7224 143.968 44.5725C143.719 43.773 143.171 43.3233 142.375 43.1234C142.026 43.0234 141.628 42.8735 141.777 42.3239C141.827 42.174 141.877 41.9741 141.977 41.8242C142.474 41.6243 142.823 42.0241 143.221 42.0241Z" fill="#FAD7C7"/>
<path d="M144.715 43.9229C144.515 43.5731 144.267 43.2233 144.067 42.9235C144.316 42.7736 145.411 43.0234 145.461 43.3233C145.561 43.723 145.212 43.8729 144.914 43.9729C144.814 43.9229 144.764 43.9229 144.715 43.9229Z" fill="#F4D1C1"/>
<path d="M143.221 38.7261C142.922 38.3763 142.176 38.2764 142.574 37.5269C143.669 37.4769 143.271 38.1765 143.221 38.7261Z" fill="#FBD8C9"/>
<path d="M125.399 45.0222C125.051 44.9722 124.901 44.8223 125.1 44.5225C125.349 44.5725 125.399 44.7724 125.399 45.0222Z" fill="#745C54"/>
<path d="M141.877 42.3738C142.026 43.0734 142.723 43.0234 143.221 43.2233C143.918 43.4732 144.067 43.9229 144.017 44.5725C143.918 44.7224 143.619 44.5725 143.619 44.9722C143.669 45.7717 143.221 46.0216 142.325 45.8717C141.528 45.8717 140.781 45.6218 139.985 45.372C140.333 44.5725 140.831 43.9229 141.429 43.3233C141.628 43.1234 141.677 42.8236 141.677 42.5737C141.777 42.4738 141.827 42.4238 141.877 42.3738Z" fill="#FCE8DE"/>
<path d="M143.221 42.024C142.773 42.4737 142.474 41.7742 142.076 41.8741C141.976 41.7742 141.927 41.6243 141.827 41.5743C141.031 40.7248 141.031 40.7248 141.877 40.0752C141.927 40.0253 141.927 39.9753 141.927 39.9253C142.026 40.0253 142.126 40.1752 142.225 40.2751C142.474 40.425 142.474 40.6749 142.574 40.8747C142.922 41.1746 143.121 41.5743 143.221 42.024Z" fill="#FBEEE7"/>
<path d="M134.908 29.8815C134.858 29.9315 134.858 29.9815 134.808 30.0315C134.509 30.731 134.111 30.9309 133.563 30.2313C133.713 30.0814 133.812 29.9815 133.962 29.8316C134.31 29.2819 134.609 29.3819 134.908 29.8815Z" fill="#FBC4AF"/>
<path d="M138.89 21.8865C139.188 21.8865 139.437 21.8865 139.736 21.8865C139.437 22.1363 139.188 22.1363 138.89 21.8865Z" fill="#F49982"/>
<path d="M142.524 40.8748C142.275 40.7249 142.325 40.475 142.176 40.2751C142.226 40.2252 142.275 40.1252 142.325 40.0753C142.425 40.2252 142.474 40.3751 142.574 40.5749C142.574 40.6749 142.524 40.7748 142.524 40.8748Z" fill="#231F20"/>
<path d="M113.004 44.3726C113.452 43.6231 114 43.5731 114.746 44.0228C115.194 44.2727 115.742 44.5725 116.289 44.2727C116.339 44.2227 116.588 44.3226 116.588 44.3726C116.688 44.9722 117.484 45.4719 116.937 46.1715C116.688 46.4713 116.738 46.7212 116.986 47.021C118.231 48.62 119.077 50.4688 119.525 52.4176C119.724 53.3171 120.421 54.0167 120.82 54.8162C121.019 55.2159 121.268 55.6157 121.268 56.2153C120.471 55.8655 120.172 55.016 119.475 54.7162C119.426 54.7162 119.326 54.6663 119.326 54.6163C118.978 53.6169 118.181 53.0672 117.285 52.6675C117.235 52.1678 117.036 51.868 116.489 51.868C115.742 49.8692 114.248 48.1703 113.651 46.0716C113.502 45.5219 113.203 44.9722 113.004 44.3726Z" fill="#F59073"/>
<path d="M117.285 52.5676C118.479 52.8174 119.226 53.517 119.475 54.7162C119.475 55.2659 119.326 55.7156 119.176 56.2153C118.878 56.5651 118.579 56.8649 118.181 57.1148C117.185 57.4646 116.289 57.4146 115.493 56.665C114.796 56.0154 114.646 55.2159 114.845 54.3165C115.144 53.3171 115.891 52.8174 116.886 52.5676C116.986 52.4177 117.135 52.4177 117.285 52.5676Z" fill="#231F20"/>
<path d="M117.285 52.5676C117.136 52.5676 116.986 52.5676 116.837 52.5676C116.389 52.5176 116.488 52.1678 116.488 51.868C116.787 51.3683 117.036 51.818 117.235 51.918C117.484 52.0679 117.584 52.3177 117.285 52.5676Z" fill="#F49F84"/>
<path d="M116.637 39.7255C117.235 40.2751 116.289 40.3751 116.289 40.7249C115.144 40.525 115.144 40.525 115.293 39.3757C115.293 39.1758 115.293 38.926 115.293 38.7261C115.891 38.876 116.189 39.4257 116.637 39.7255Z" fill="#F8B098"/>
<path d="M140.234 61.512C140.533 61.1622 140.781 60.8125 141.08 60.5127C141.13 60.4627 141.18 60.3128 141.23 60.3128C142.424 60.3128 142.922 59.2135 143.868 58.7637C144.316 58.5639 144.764 58.4639 145.212 58.364C145.212 59.0636 144.963 59.5632 144.366 60.013C143.37 60.7125 142.374 61.4621 141.18 61.8118C140.831 61.9118 140.383 62.1616 140.234 61.512Z" fill="#F59073"/>
<path d="M142.375 45.8717C143.121 45.8717 143.619 45.6219 143.47 44.7224C143.42 44.5225 143.47 44.5225 144.017 44.5725C144.216 44.6225 144.465 44.6724 144.664 44.7224C144.664 44.7724 144.714 44.8223 144.714 44.8723C144.565 46.4214 144.565 46.4214 142.972 46.1216C142.823 46.0716 142.623 46.1216 142.474 46.1216C142.474 46.0216 142.424 45.9716 142.375 45.8717Z" fill="#FBE5D8"/>
<path d="M155.467 58.6638C154.522 59.3633 153.725 60.2628 152.68 60.7625C152.53 60.2128 153.277 57.8643 153.675 57.6644C154.073 57.4645 154.522 57.4645 154.87 57.8643C155.119 58.1641 155.268 58.4139 155.467 58.6638Z" fill="#F16D50"/>
<path d="M161.64 51.3683C161.59 51.6681 161.739 51.9679 161.49 52.2178C161.49 51.9179 161.391 51.6181 161.64 51.3683Z" fill="#F59C85"/>
<path d="M5.97375 62.2615C10.006 62.2116 11.8977 60.5126 11.8977 56.9148V50.0691C11.8977 46.6212 10.2052 45.0222 6.52135 45.0222H5.77463C5.12747 45.0222 4.779 44.5725 4.779 44.1227V26.1339C4.779 25.4343 5.22704 24.9346 5.92397 24.9346C6.62091 24.9346 7.06894 25.4343 7.06894 26.1339V30.5311H11.8479V26.1339C11.8479 22.4861 9.95626 20.7872 5.87419 20.7372C1.89169 20.7872 0 22.4861 0 26.1339V44.1227C0 47.5706 1.69256 49.1696 5.37638 49.1696H6.17288C6.77026 49.1696 7.11872 49.6193 7.11872 50.0691V56.9148C7.11872 57.6144 6.67069 58.0641 6.02354 58.1141H5.97375H5.92397C5.27682 58.0641 4.82879 57.6144 4.82879 56.9148V51.6681H0V56.9148C0 60.5126 1.89169 62.2116 5.97375 62.2615Z" fill="black"/>
<path d="M28.823 20.7372H15.9297V24.9346H19.962V62.2615H24.741V24.9346H28.823V20.7372Z" fill="black"/>
<path d="M45.1019 62.2615H46.6949V58.4639H46.3464C45.6993 58.4639 45.2512 58.0142 45.2512 57.3646V50.0191C45.2512 48.6699 44.7036 47.9704 43.4591 47.7705L38.9788 47.021L43.4591 46.2714C44.7534 46.0715 45.2512 45.372 45.2512 44.0228V26.1339C45.2512 22.4861 43.3595 20.7372 39.3273 20.7372H33.3535V62.2116H38.1325V50.3189C38.1325 49.6193 38.6303 49.1197 39.2775 49.1197C39.9246 49.1197 40.4224 49.6193 40.4224 50.3189V57.9642C40.4722 60.8624 41.9159 62.2615 45.1019 62.2615ZM38.1823 43.773V24.9346H39.3273C40.0242 24.9346 40.4722 25.4343 40.4722 26.1339V43.773C40.4722 44.4725 40.0242 44.9722 39.3273 44.9722C38.6303 44.9722 38.1823 44.5225 38.1823 43.773Z" fill="black"/>
<path d="M62.3265 30.5311V26.1338C62.3265 22.4861 60.4348 20.7872 56.4025 20.7372C52.3204 20.7872 50.4785 22.4861 50.4785 26.1338V56.8649C50.4785 60.5126 52.3702 62.2116 56.4523 62.2116C60.4846 62.1616 62.3762 60.4626 62.3762 56.8649V51.6181H57.5972V56.8649C57.5972 57.5644 57.1492 58.0142 56.5021 58.0641H56.4523H56.4025C55.7553 58.0142 55.3073 57.5644 55.3073 56.8649V49.1696H59.3894V44.9722H55.3073V26.1338C55.3073 25.4343 55.7553 24.9346 56.4523 24.9346C57.1492 24.9346 57.5972 25.4343 57.5972 26.1338V30.5311H62.3265V30.5311Z" fill="black"/>
<path d="M78.2561 30.5311V26.1338C78.2561 22.4861 76.3645 20.7872 72.3322 20.7372C68.2501 20.7872 66.4082 22.4861 66.4082 26.1338V56.8649C66.4082 60.5126 68.2999 62.2116 72.382 62.2116C76.4142 62.1616 78.3059 60.4626 78.3059 56.8649V51.6181H73.5269V56.8649C73.5269 57.5644 73.0789 58.0142 72.4317 58.0641H72.382H72.3322C71.685 58.0142 71.237 57.5644 71.237 56.8649V49.1696H75.319V44.9722H71.237V26.1338C71.237 25.4343 71.685 24.9346 72.382 24.9346C73.0789 24.9346 73.5269 25.4343 73.5269 26.1338V30.5311H78.2561V30.5311Z" fill="black"/>
<path d="M95.6795 20.7372H82.7861V24.9346H86.8184V62.2615H91.5974V24.9346H95.6795V20.7372Z" fill="black"/>
<path d="M187.227 44.9722H183.145V24.9346H184.29C184.987 24.9346 185.435 25.4343 185.435 26.1338V30.5311H190.214V26.1338C190.214 22.4861 188.322 20.7372 184.29 20.7372H178.316V62.2116H183.095V49.1696H187.177V44.9722H187.227Z" fill="black"/>
<path d="M200.22 20.7372C196.138 20.7872 194.296 22.4861 194.296 26.1338V56.8649C194.296 60.5126 196.188 62.2116 200.27 62.2116C204.302 62.1616 206.194 60.4626 206.194 56.8649V26.1338C206.144 22.4861 204.253 20.7872 200.22 20.7372ZM201.365 56.8649C201.365 57.5644 200.917 58.0142 200.27 58.0641H200.22H200.171C199.523 58.0142 199.075 57.5644 199.075 56.8649V26.1338C199.075 25.4343 199.523 24.9346 200.22 24.9346C200.917 24.9346 201.365 25.4343 201.365 26.1338V56.8649Z" fill="black"/>
<path d="M216.151 20.7372C212.068 20.7872 210.227 22.4861 210.227 26.1338V56.8649C210.227 60.5126 212.118 62.2116 216.2 62.2116C220.233 62.1616 222.124 60.4626 222.124 56.8649V26.1338C222.075 22.4861 220.183 20.7872 216.151 20.7372ZM217.295 56.8649C217.295 57.5644 216.847 58.0142 216.2 58.0641H216.151H216.101C215.454 58.0142 215.006 57.5644 215.006 56.8649V26.1338C215.006 25.4343 215.454 24.9346 216.151 24.9346C216.847 24.9346 217.295 25.4343 217.295 26.1338V56.8649Z" fill="black"/>
<path d="M239 56.8649V26.1338C239 22.4861 237.108 20.7372 233.076 20.7372H227.102V62.2116H233.076C237.158 62.2116 239 60.5126 239 56.8649ZM231.931 58.0641V24.9346H233.076C233.773 24.9346 234.221 25.4343 234.221 26.1338V56.8649C234.221 57.5644 233.773 58.0142 233.126 58.0641H232.678H231.931Z" fill="black"/>
<path d="M181.104 73.7545C180.806 74.1043 180.955 74.0043 180.756 74.1542C180.407 74.3541 180.009 74.554 179.611 74.604C179.561 74.7039 179.312 74.7039 179.163 74.7539C179.113 74.7539 179.163 74.7039 179.113 74.7039C179.113 74.8538 178.814 74.7039 178.665 74.604C178.615 74.6539 178.565 74.7539 178.516 74.7539C178.416 74.7539 178.416 74.7039 178.366 74.7539C178.267 74.7039 178.267 74.604 178.167 74.604C178.167 74.554 178.167 74.454 178.068 74.454C178.117 74.4041 178.018 74.3041 177.968 74.2042C177.968 74.1043 177.968 74.0043 178.068 73.9544C178.068 73.9044 178.068 73.8544 178.018 73.8044C178.117 73.7045 178.068 73.5046 178.217 73.4047V73.3547C178.416 73.0049 178.317 72.955 178.466 72.5552C178.466 72.3054 178.615 72.2054 178.565 71.9556C178.466 71.9556 178.416 72.0555 178.416 72.1555C178.366 72.2054 178.267 72.2054 178.167 72.2054C177.869 72.1055 177.719 71.8556 177.57 71.6058C177.719 71.256 178.167 71.1061 178.565 71.0561C178.615 71.0561 178.565 71.0561 178.615 71.0561C178.864 70.9562 179.163 70.9062 179.561 70.9062C179.661 70.8563 179.86 70.9062 179.959 70.8563C180.009 70.9062 180.109 70.9062 180.158 70.9562C180.208 70.9562 180.109 70.9062 180.158 70.9062C180.358 70.9062 180.407 71.1061 180.557 71.1061C180.656 71.256 180.905 71.356 180.905 71.5558C180.905 71.6058 180.955 71.6058 180.955 71.6058C180.955 72.1055 180.557 72.3054 180.358 72.6052C180.507 72.8051 180.806 72.905 180.955 73.1548L181.005 73.2048C181.055 73.3547 181.204 73.5546 181.104 73.6046C181.104 73.6545 181.104 73.7545 181.104 73.7545ZM178.864 71.8556C179.013 71.9556 179.163 72.0555 179.262 72.2054C179.561 72.0555 179.81 71.8556 180.009 71.6058C179.611 71.6058 179.163 71.7057 178.864 71.8556ZM180.358 73.2048C179.86 72.905 179.511 73.1548 179.163 73.2048C179.063 73.4547 178.964 73.7045 178.914 74.0043C179.412 73.9544 179.71 73.7045 180.109 73.5546C180.109 73.4047 180.358 73.4047 180.358 73.2048Z" fill="#F06145"/>
<path d="M182.996 73.2548C182.946 73.3547 182.896 73.4047 182.847 73.5046C182.797 73.6046 182.747 73.6545 182.697 73.7545C182.647 73.9044 182.548 74.1043 182.398 74.2542C182.398 74.3041 182.349 74.4041 182.299 74.454C182.299 74.454 182.249 74.504 182.249 74.554V74.604C182.199 74.6539 182.15 74.7039 182.15 74.7539L182.1 74.8038L182.05 74.8538H182C181.702 74.8038 181.552 74.6539 181.453 74.4041V74.3541C181.453 74.3041 181.502 74.2542 181.502 74.2042C181.552 74.1043 181.552 73.9543 181.652 73.9044C181.652 73.8544 181.702 73.7545 181.851 73.5046C181.95 73.3048 182 73.2048 182.05 73.1548C182 73.1049 181.95 73.0549 181.901 73.0049V72.955C181.851 72.8051 181.751 72.6052 181.702 72.4053C181.702 72.3553 181.702 72.2554 181.652 72.2054C181.652 72.1055 181.602 72.0555 181.602 71.9056C181.602 71.9056 181.602 71.8556 181.552 71.8556V71.8057V71.7557C181.602 71.7057 181.552 71.6058 181.552 71.5059C181.502 71.356 181.453 71.1061 181.652 70.9562L181.702 70.9062L181.751 70.9562C181.801 71.0062 181.901 71.0062 181.95 71.0561C182.05 71.1061 182.1 71.1561 182.199 71.206L182.249 71.256V71.306V71.356H182.299V71.4059V71.4559C182.299 71.5059 182.299 71.5558 182.299 71.5558L182.349 71.6058V71.6558C182.349 71.7557 182.349 71.8556 182.398 71.9556C182.448 72.0555 182.448 72.1555 182.448 72.2554L182.498 72.2054C182.498 72.2054 182.548 72.2054 182.548 72.1555L182.896 71.6558V71.6058L182.946 71.5558C182.996 71.5059 182.996 71.5059 183.046 71.4559C183.095 71.4059 183.145 71.356 183.195 71.256L183.245 71.206H183.295C183.444 71.0062 183.593 70.8563 183.842 70.8563H183.942L183.992 70.9562C184.041 71.0561 184.141 71.1061 184.24 71.206H184.29C184.29 71.256 184.29 71.306 184.29 71.306V71.356V71.4059C184.24 71.5558 184.141 71.6058 184.041 71.7057C183.992 71.7557 183.892 71.8057 183.892 71.9056V71.9556H183.842C183.743 72.0056 183.693 72.0555 183.693 72.1555V72.2054H183.643C183.643 72.2054 183.593 72.2054 183.543 72.3553C183.494 72.4053 183.494 72.4053 183.444 72.4553C183.444 72.4553 183.444 72.5052 183.394 72.5552C183.344 72.6052 183.295 72.6552 183.295 72.7051C183.245 72.7551 183.245 72.855 183.195 72.905V72.955L183.145 73.0049C183.046 73.1049 183.046 73.1548 182.996 73.2548Z" fill="#F06145"/>
<path d="M190.463 71.1061C190.214 71.4059 189.567 71.6058 189.02 71.7557C189.02 71.8057 188.97 71.9056 188.92 71.9556C188.771 72.3553 188.621 72.7051 188.621 73.1548C188.671 73.1548 188.721 73.1548 188.771 73.1548C188.821 73.1548 188.87 73.1548 188.97 73.1548C189.368 72.9549 189.816 72.9549 190.314 72.9549C190.513 72.9549 190.662 72.9549 190.812 72.9549H190.862C190.911 73.0049 190.911 73.0049 191.011 73.0049C191.061 73.0049 191.061 73.0049 191.11 73.0049H191.16C191.26 73.1049 191.409 73.2048 191.558 73.2048C191.708 73.2548 191.857 73.3047 191.957 73.4047L192.007 73.8044L192.056 73.8544V73.9044C192.056 73.9543 192.056 74.0043 192.007 74.0043C192.007 74.0043 192.007 74.0043 192.007 74.0543V74.1042H191.957C191.857 74.1042 191.807 74.1542 191.708 74.2541H191.658C191.608 74.2541 191.608 74.2541 191.558 74.2541C191.459 74.2541 191.359 74.2541 191.21 74.3041H191.16C191.011 74.2541 190.862 74.2042 190.662 74.2042C190.513 74.2042 190.364 74.2042 190.214 74.2541C190.065 74.2541 189.916 74.3041 189.717 74.3041H189.667C189.617 74.3041 189.567 74.3541 189.517 74.3541C189.169 74.454 188.721 74.6039 188.273 74.6039C187.974 74.6039 187.725 74.504 187.526 74.3541V74.3041C187.526 74.2541 187.476 74.2541 187.476 74.2042C187.427 74.1542 187.427 74.1042 187.377 74.0043C187.078 73.6545 187.028 73.0049 187.178 72.5552C187.178 72.5052 187.178 72.4552 187.228 72.4053C187.228 72.3553 187.228 72.3053 187.277 72.2554C187.178 72.3053 187.128 72.3053 187.078 72.3553C186.68 72.4053 186.58 72.2054 186.381 72.0055C186.381 71.9056 186.331 71.7057 186.232 71.6557C186.282 71.6058 186.331 71.4559 186.282 71.4059C186.58 71.256 187.078 71.1561 187.277 71.0061C187.427 70.9562 187.576 70.9062 187.725 70.8562C187.775 70.6564 187.875 70.5065 187.924 70.3066C188.124 69.7069 188.323 69.1573 188.472 68.5077V68.4577H188.522H188.572C188.572 68.4577 188.621 68.4577 188.671 68.4077H188.721C188.87 68.5077 189.269 68.6576 189.468 68.6576H189.517H189.567C189.567 68.7076 189.617 68.7076 189.667 68.7575C189.816 68.9074 189.916 69.0573 189.866 69.3572V69.4071C189.816 69.4571 189.816 69.4571 189.766 69.4571C189.717 69.7069 189.617 69.9068 189.567 70.0567C189.517 70.1567 189.468 70.2566 189.418 70.4065C189.667 70.3565 189.965 70.3565 190.115 70.6064C190.414 70.7063 190.414 70.9062 190.463 71.1061Z" fill="#F06145"/>
<path d="M192.654 70.6064C192.654 70.5564 192.654 70.5064 192.604 70.5064C192.654 70.3066 192.704 70.1067 192.704 69.9568C192.704 69.8069 192.753 69.657 192.803 69.557C193.002 69.5071 193.052 69.3572 193.102 69.3072C193.251 69.3072 193.301 69.3572 193.4 69.5071C193.45 69.607 193.55 69.7569 193.749 69.8568C193.799 69.9568 193.848 70.0567 193.898 70.2066C193.998 70.4565 194.097 70.7063 194.097 70.9062C193.848 71.4059 193.848 72.2554 193.998 72.7051L194.048 72.805H194.097L194.247 72.7551C195.043 72.5552 195.441 72.3053 195.989 71.6557C196.537 71.0561 196.786 70.0567 196.835 69.3572C196.935 69.3072 196.985 69.2572 196.985 69.1073V69.0573V69.0074C196.935 68.9574 196.985 68.9074 196.985 68.8575C197.035 68.7575 197.134 68.6576 197.234 68.5576C197.433 68.7076 197.582 68.8575 197.731 69.0074C197.731 69.3072 197.831 69.5071 197.881 69.657C197.931 69.8568 198.03 70.0068 198.03 70.2566C197.931 70.6064 197.881 70.8562 197.831 71.156V71.256C197.632 71.6058 197.433 71.9556 197.333 72.2054C197.283 72.3053 197.234 72.3553 197.184 72.4552C197.184 72.5052 197.134 72.6052 197.084 72.6052L196.885 72.5052H196.835V72.5552V72.7551C196.835 72.7551 196.835 72.805 196.786 72.805H196.686H196.636L196.586 72.905C196.089 73.7544 195.541 74.0043 194.446 74.454C194.247 74.404 194.097 74.404 193.948 74.404C193.799 74.404 193.649 74.404 193.5 74.3541C193.45 74.2541 193.4 74.2042 193.301 74.2042C193.301 74.2042 193.301 74.2042 193.251 74.2042C193.102 74.1042 193.002 73.9043 192.853 73.6545C192.803 73.5546 192.753 73.4047 192.654 73.2548L192.803 73.2048H192.853L192.803 73.1548L192.604 72.9549C192.554 72.9549 192.554 72.905 192.504 72.855V72.7051C192.455 71.8056 192.455 71.0561 192.604 70.5064L192.654 70.6064Z" fill="#F06145"/>
<path d="M198.08 70.6064C198.13 70.4065 198.13 70.3566 198.13 70.2067C198.329 69.657 198.976 69.4571 199.424 69.3072C199.424 69.2572 199.374 69.3072 199.374 69.2073C200.569 69.0074 201.714 68.2579 203.108 68.6576C203.208 68.9075 203.456 69.1073 203.456 69.3572C203.606 69.4571 203.656 69.607 203.606 69.8069C203.506 69.9068 203.357 69.9568 203.208 70.0568C202.71 69.9568 202.212 70.0068 201.814 70.0568C201.565 69.8069 201.166 70.1567 200.868 70.1067C200.718 70.2067 200.519 70.2566 200.32 70.2566C200.32 70.3066 200.37 70.3066 200.37 70.4065C200.519 70.6064 200.918 70.5065 201.017 70.7563C201.415 70.7563 201.565 71.1561 201.565 71.4059C201.615 71.5059 201.664 71.4559 201.714 71.5059C201.764 71.6558 201.963 71.8556 202.063 72.0555C202.063 72.3553 202.112 72.6052 202.013 72.855C201.615 73.8044 200.569 74.3541 199.623 74.6539C199.573 74.6539 199.524 74.6539 199.524 74.604C199.325 74.8038 199.026 74.6539 198.727 74.7039C198.628 74.6039 198.578 74.554 198.528 74.4041C198.478 74.4041 198.478 74.3041 198.429 74.3041C198.429 74.2542 198.429 74.2542 198.429 74.2042C198.528 74.1542 198.379 74.1542 198.379 74.1043C198.478 73.9044 198.229 73.5046 198.528 73.3547C199.424 73.4547 200.071 72.955 200.669 72.6551C200.718 72.4553 200.967 72.3553 201.017 72.1555C201.017 72.0555 200.967 72.1055 200.967 72.0056C200.918 71.9556 200.868 72.0056 200.868 72.0056C200.619 71.8556 200.27 71.8057 200.071 71.6558C199.922 71.7057 199.822 71.6558 199.623 71.6058C199.175 71.6058 198.777 71.5558 198.379 71.356C198.379 71.306 198.329 71.256 198.229 71.256C198.13 71.1561 198.08 71.0561 198.03 70.9562C198.13 70.8063 198.18 70.7064 198.08 70.6064Z" fill="#F06145"/>
<path d="M203.058 73.2048C203.107 73.2048 203.058 73.1548 203.107 73.1548C203.107 73.2048 203.107 73.2048 203.157 73.2048C203.157 73.1548 203.107 73.1548 203.107 73.1548C203.107 73.1049 203.107 73.1049 203.107 73.0549C203.107 72.9549 203.157 72.9549 203.207 72.9549C203.307 71.6557 203.954 70.8562 204.203 69.657C204.501 69.3572 204.501 68.8575 204.949 68.6076C205.149 68.6076 205.248 68.7575 205.447 68.7076C205.497 68.7575 205.547 68.8575 205.547 68.9074C205.597 68.9074 205.646 68.9074 205.696 68.9074C205.945 69.1073 206.194 69.707 205.796 69.9068C205.845 70.0068 205.696 70.0068 205.796 70.1067C205.547 70.3066 205.397 70.7063 205.397 71.0062C205.696 70.7063 206.194 70.4065 206.493 70.1567C206.493 70.1567 206.542 70.2066 206.542 70.1567C206.891 69.7569 207.289 69.5571 207.737 69.2572C207.837 69.2073 207.886 69.2572 207.936 69.2572C207.936 69.2073 207.886 69.2073 207.886 69.1073C208.086 69.0574 208.185 68.9574 208.384 68.9074C208.484 69.0074 208.583 69.2073 208.783 69.2073C208.882 69.5071 209.181 69.4071 209.231 69.8069C209.181 69.9068 209.131 70.0068 209.081 70.1567C208.583 70.6064 208.036 70.8063 207.438 71.256C207.289 71.4559 207.04 71.5058 206.941 71.7557C206.891 71.7557 206.891 71.7557 206.841 71.7557C206.791 71.8556 206.692 71.8556 206.692 71.9556C207.09 72.805 207.936 72.7551 208.932 72.7551C208.982 72.7551 208.932 72.7051 209.031 72.7051C209.33 72.805 209.43 73.0049 209.679 73.2048C209.679 73.7045 209.38 74.0043 208.932 74.2042C208.335 74.2042 207.886 74.2042 207.438 74.0043C207.389 74.0043 207.389 73.9044 207.339 73.9044C207.239 73.8544 207.14 73.9044 207.04 73.8544C206.941 73.8044 206.692 73.6545 206.493 73.5046C206.244 73.3547 206.045 73.1548 205.895 72.9549C205.845 72.905 205.796 72.905 205.746 72.905C204.999 73.3547 204.85 74.4041 204.053 74.7538C203.804 74.7538 203.755 74.554 203.555 74.504C203.555 74.2042 203.257 74.0043 203.406 73.7545C203.356 73.7045 203.307 73.6545 203.207 73.6545C203.207 73.5046 202.958 73.4047 203.058 73.2048Z" fill="#F06145"/>
<path d="M209.23 73.7544C209.23 73.6045 209.33 73.5546 209.38 73.5046C209.878 73.4546 210.176 73.3547 210.624 73.3547H210.674C210.774 73.0549 210.923 72.7551 211.023 72.4552C211.172 71.9056 211.471 71.5558 211.52 71.1061C211.67 70.7563 211.769 70.4565 211.819 70.0068C211.421 70.0567 211.172 70.1067 211.072 70.1567C210.624 70.1067 210.624 69.8569 210.475 69.557C210.525 69.4571 210.475 69.2073 210.375 69.1573C210.475 69.1573 210.525 68.9574 210.475 68.9074C210.823 68.8075 211.321 68.8575 211.57 68.7076C212.118 68.7076 212.765 68.6576 213.313 68.6076C213.661 68.7076 214.408 68.5577 214.557 69.0574C214.856 69.1073 214.806 69.3572 214.806 69.557C214.458 69.8069 213.711 69.8569 213.064 69.8569C212.964 70.5564 212.466 71.9555 212.466 72.1554C212.267 72.6551 212.217 72.805 212.018 73.2048C212.018 73.2048 212.317 73.2048 212.566 73.2048C212.616 73.4546 212.914 73.3547 212.914 73.5546C213.313 73.6545 213.064 74.0043 212.914 74.2042C212.815 74.2042 212.715 74.2541 212.665 74.3541C212.367 74.3041 212.018 74.3541 211.769 74.404C211.72 74.404 211.769 74.454 211.72 74.504C211.072 74.3041 210.326 74.7038 209.529 74.7038C209.38 74.5539 209.33 74.1042 209.23 73.7544Z" fill="#F06145"/>
<path d="M217.296 73.5046C217.096 72.0555 218.042 71.156 218.689 70.3066C218.839 70.3565 218.839 70.1567 218.988 70.1067C219.088 69.9068 219.287 69.8569 219.386 69.7069C219.586 69.657 219.685 69.4571 219.884 69.4071C219.884 69.3572 219.884 69.3572 219.884 69.3072C220.133 69.2073 220.183 69.0573 220.332 68.8575C220.432 68.8575 220.482 68.8575 220.631 68.8575C220.73 68.7076 220.78 68.6076 220.93 68.5077C221.079 68.6076 221.278 68.5577 221.427 68.7076C221.427 68.9574 221.726 68.9574 221.776 69.2073C221.826 69.2073 221.826 69.1573 221.875 69.2073C221.925 69.4071 221.975 69.4071 222.025 69.557C221.975 69.7069 221.975 69.8569 221.826 69.9068C221.826 70.0068 221.925 69.9568 221.925 70.0068C221.925 70.0567 221.925 70.1067 221.925 70.1067C222.224 70.6064 222.423 71.206 222.772 71.7057C222.722 72.0055 222.971 72.2554 223.02 72.5552C223.07 72.905 222.921 73.4546 222.622 73.6045C222.473 73.8044 222.174 73.9044 221.925 74.1042C221.925 74.1042 221.875 74.1042 221.875 74.0543C221.776 74.2042 221.577 74.2042 221.378 74.2541C221.079 74.404 220.581 74.6039 220.233 74.6039C219.834 74.7538 219.536 74.8038 219.038 74.7039C218.192 74.8038 217.594 74.2042 217.296 73.5046ZM218.59 73.1048C219.038 73.4546 219.834 73.2048 220.332 73.1548C220.332 73.1048 220.332 73.0549 220.382 73.1048C220.83 73.0549 221.179 72.805 221.627 72.6052C221.676 72.4552 221.776 72.4053 221.776 72.2054C221.726 72.1055 221.726 72.0555 221.726 71.9556C221.427 71.5558 221.278 71.0561 221.029 70.6564C221.029 70.7063 220.93 70.8063 220.83 70.7063C220.78 70.9062 220.581 70.8562 220.432 70.7563C220.083 71.0561 219.685 71.306 219.386 71.7057C219.337 71.7557 219.337 71.7057 219.287 71.7057C219.038 72.2054 218.59 72.4552 218.59 73.1048Z" fill="#F06145"/>
<path d="M223.418 70.6064C223.468 70.4065 223.468 70.3565 223.468 70.2066C223.667 69.657 224.315 69.4571 224.763 69.3072C224.763 69.2572 224.713 69.3072 224.713 69.2073C225.908 69.0074 227.052 68.2578 228.446 68.6576C228.546 68.9074 228.795 69.1073 228.795 69.3572C228.944 69.4571 228.994 69.607 228.944 69.8069C228.845 69.9068 228.695 69.9568 228.546 70.0567C228.048 69.9568 227.55 70.0068 227.152 70.0567C226.903 69.8069 226.505 70.1567 226.206 70.1067C226.057 70.2066 225.858 70.2566 225.659 70.2566C225.659 70.3066 225.708 70.3066 225.708 70.4065C225.858 70.6064 226.256 70.5065 226.356 70.7563C226.754 70.7563 226.903 71.1561 226.903 71.4059C226.953 71.5058 227.003 71.4559 227.053 71.5058C227.102 71.6557 227.301 71.8556 227.401 72.0555C227.401 72.3553 227.451 72.6052 227.351 72.855C226.953 73.8044 225.908 74.3541 224.962 74.6539C224.912 74.6539 224.862 74.6539 224.862 74.6039C224.663 74.8038 224.364 74.6539 224.066 74.7039C223.966 74.6039 223.916 74.554 223.866 74.404C223.817 74.404 223.817 74.3041 223.767 74.3041C223.767 74.2541 223.767 74.2541 223.767 74.2042C223.866 74.1542 223.717 74.1542 223.717 74.1042C223.817 73.9044 223.568 73.5046 223.866 73.3547C224.763 73.4546 225.41 72.9549 226.007 72.6551C226.057 72.4552 226.306 72.3553 226.356 72.1554C226.356 72.0555 226.306 72.1055 226.306 72.0055C226.256 71.9556 226.206 72.0055 226.206 72.0055C225.957 71.8556 225.609 71.8056 225.41 71.6557C225.26 71.7057 225.161 71.6557 224.962 71.6058C224.514 71.6058 224.115 71.5558 223.717 71.3559C223.717 71.306 223.667 71.256 223.568 71.256C223.468 71.1561 223.418 71.0561 223.369 70.9562C223.468 70.8063 223.518 70.7063 223.418 70.6064ZM227.053 67.5583C226.754 67.8081 226.107 68.5077 225.559 68.5077C225.41 68.3578 225.211 68.2079 225.36 68.008C225.061 67.5583 225.559 67.6082 225.609 67.3084C225.858 67.0586 226.156 66.7588 226.405 66.459C226.654 66.409 226.804 66.1092 227.053 65.9593C227.102 66.0092 227.202 66.1092 227.252 66.0592C227.252 66.1591 227.401 66.309 227.501 66.359C227.6 66.6588 227.799 66.8587 227.65 67.1086C227.6 67.1585 227.401 67.3084 227.053 67.5583Z" fill="#F06145"/>
<path d="M228.297 71.7057C228.496 71.1061 228.894 70.7563 229.243 70.3066C229.293 70.3066 229.293 70.3066 229.342 70.3565C229.442 70.1067 229.691 70.0567 229.84 69.8568C230.388 69.7569 230.637 69.3072 231.135 69.2072C231.334 69.0074 231.732 68.9574 231.881 68.7076C231.931 68.8075 232.08 68.7575 232.18 68.7076C232.28 68.7076 232.379 68.9074 232.429 68.7575C232.528 68.7575 232.429 68.8575 232.429 68.8575C232.528 68.8575 232.578 68.9574 232.728 68.9574C232.777 69.0074 232.728 69.0573 232.728 69.1073C233.524 69.3572 233.026 70.2566 232.479 70.4065C231.881 70.5564 231.334 70.7063 230.935 71.1061C230.338 71.256 229.99 71.7557 229.591 72.1055C229.591 72.2554 229.492 72.3553 229.442 72.4552C229.442 72.6551 229.542 72.805 229.591 72.905C230.438 73.1548 231.433 73.2048 232.379 73.2048C232.578 73.4546 232.927 73.6045 232.877 74.0543C232.678 74.2541 232.479 74.404 232.23 74.5539C232.031 74.5539 231.682 74.504 231.433 74.6039C230.736 74.554 229.99 74.404 229.392 74.2042C229.293 74.0543 229.143 73.9044 228.944 73.8544C228.397 73.4546 228.247 72.4552 228.297 71.7057Z" fill="#F06145"/>
<path d="M232.976 73.7544C232.976 73.6045 233.076 73.5546 233.125 73.5046C233.623 73.4546 233.922 73.3547 234.37 73.3547H234.42C234.519 73.0549 234.669 72.7551 234.768 72.4552C234.918 71.9056 235.216 71.5558 235.266 71.1061C235.415 70.7563 235.515 70.4565 235.565 70.0068C235.166 70.0567 234.918 70.1067 234.818 70.1567C234.37 70.1067 234.37 69.8569 234.221 69.557C234.27 69.4571 234.221 69.2073 234.121 69.1573C234.221 69.1573 234.27 68.9574 234.221 68.9074C234.569 68.8075 235.067 68.8575 235.316 68.7076C235.863 68.7076 236.511 68.6576 237.058 68.6076C237.407 68.7076 238.153 68.5577 238.303 69.0574C238.601 69.1073 238.552 69.3572 238.552 69.557C238.203 69.8069 237.456 69.8569 236.809 69.8569C236.71 70.5564 236.212 71.9555 236.212 72.1554C236.013 72.6551 235.963 72.805 235.764 73.2048C235.764 73.2048 236.063 73.2048 236.311 73.2048C236.361 73.4546 236.66 73.3547 236.66 73.5546C237.058 73.6545 236.809 74.0043 236.66 74.2042C236.56 74.2042 236.461 74.2541 236.411 74.3541C236.112 74.3041 235.764 74.3541 235.515 74.404C235.465 74.404 235.515 74.454 235.465 74.504C234.818 74.3041 234.071 74.7038 233.275 74.7038C233.125 74.5539 233.026 74.1042 232.976 73.7544Z" fill="#F06145"/>
</svg>
