<svg width="22" height="15" viewBox="0 0 22 15" fill="none" xmlns="http://www.w3.org/2000/svg">
<path d="M21.9702 5.13875C21.9396 4.78843 21.6863 4.51112 21.3663 4.47763C21.187 4.45891 16.9471 4.04936 14.478 6.75248C13.9426 7.33862 13.5411 8.01593 13.2404 8.71925C12.7453 6.49963 11.8646 4.65808 10.6555 3.33442C9.16533 1.70296 6.95665 0.617514 4.26835 0.195501C2.26807 -0.11855 0.710495 0.0383342 0.645182 0.0452494C0.325194 0.0787432 0.0718931 0.356055 0.0412993 0.706376C0.0350258 0.777879 -0.108275 2.48305 0.178542 4.67299C0.564014 7.61612 1.55543 10.0342 3.04568 11.6656C4.53588 13.2971 6.74456 14.3825 9.43286 14.8045C10.4229 14.96 11.3043 15 11.9501 15C12.5353 15 13.3882 14.9874 13.7809 14.9874C15.1541 14.9874 18.0281 14.721 19.8923 12.6799C22.3613 9.97696 21.9873 5.33511 21.9702 5.13875ZM7.32485 6.98082C7.06296 6.6941 6.63825 6.6941 6.37627 6.98082C6.11433 7.26754 6.11433 7.7325 6.37627 8.01932L11.4003 13.5195C9.46444 13.4481 6.12499 12.96 3.99421 10.6272C1.45484 7.84714 1.3109 3.16342 1.34867 1.4757C2.8903 1.43167 7.16135 1.58601 9.707 4.37296C11.8316 6.69899 12.2793 10.3572 12.3468 12.4788L7.32485 6.98082ZM18.9438 11.6415C17.7614 12.9359 15.9826 13.3502 14.7043 13.4708L17.6594 10.2355C17.9214 9.94874 17.9214 9.48378 17.6594 9.19696C17.3975 8.91024 16.9728 8.91024 16.7109 9.19696L13.7531 12.4351C13.8615 11.0374 14.2389 9.09116 15.4265 7.79093C16.9653 6.10626 19.5142 5.91189 20.6557 5.91664C20.6598 7.16635 20.4823 9.95716 18.9438 11.6415Z" fill="#36A856"/>
</svg>
