<svg width="32" height="32" viewBox="0 0 32 32" fill="none" xmlns="http://www.w3.org/2000/svg">
<g clip-path="url(#clip0_514_68)">
<path d="M31.8363 6.59625C31.3189 5.76105 29.696 5.61119 28.4992 6.28745C28.0916 6.50909 27.6585 6.68048 27.2096 6.79785C26.8227 6.19576 26.245 5.74076 25.5691 5.50559C25.4296 4.69644 24.8381 4.03916 24.0481 3.81542C23.258 3.59169 22.4097 3.84121 21.8667 4.45705C21.4623 3.9969 20.8793 3.73314 20.2667 3.73314C19.6541 3.73314 19.0711 3.9969 18.6667 4.45705C18.1239 3.84127 17.276 3.59151 16.4861 3.81476C15.6962 4.03801 15.1044 4.69466 14.9643 5.50345C14.5018 5.66001 14.082 5.92161 13.7376 6.26772C12.959 7.05026 12.6375 8.17827 12.8867 9.2537C13.136 10.3291 13.9208 11.2008 14.9643 11.5611C14.9739 11.6176 14.9947 11.6677 15.0096 11.7253C14.9936 11.7851 14.9728 11.8427 14.9621 11.904C13.6665 12.3461 12.7956 13.5635 12.7956 14.9325C12.7956 16.3015 13.6665 17.5189 14.9621 17.9611C15.0047 18.2096 15.0914 18.4486 15.2181 18.6667H9.06667V17.6C10.5387 17.5982 11.7316 16.4053 11.7333 14.9333V12.2667C11.7333 11.6775 11.2558 11.2 10.6667 11.2H1.06667C0.477563 11.2 0 11.6775 0 12.2667V14.9333C0.00176326 16.4053 1.19464 17.5982 2.66667 17.6V18.6667H0.533334C0.238782 18.6667 0 18.9054 0 19.2V21.3333C0.00331137 23.7763 1.83907 25.828 4.26667 26.1019V27.2C4.26667 27.7891 4.74423 28.2667 5.33334 28.2667H26.6667C27.2558 28.2667 27.7333 27.7891 27.7333 27.2V26.1019C30.1609 25.828 31.9967 23.7763 32 21.3333V19.2C32 18.9054 31.7612 18.6667 31.4667 18.6667H25.3109C25.4375 18.4491 25.5242 18.2107 25.5669 17.9627C26.2491 17.7331 26.8325 17.2773 27.2203 16.6709C27.6658 16.7882 28.0955 16.9587 28.5003 17.1787C29.0014 17.4579 29.5655 17.6047 30.1392 17.6053C31.8459 17.6053 32.7483 16.2843 31.2219 14.9333C32.2283 14.0427 32.0592 13.3541 31.8379 12.9963C31.3205 12.1611 29.6976 12.0112 28.5008 12.6875C28.0926 12.9093 27.6591 13.0808 27.2096 13.1984C26.8226 12.596 26.2448 12.1408 25.5685 11.9056C25.5584 11.8464 25.5381 11.7909 25.5232 11.7333C25.5387 11.6763 25.56 11.6219 25.5701 11.5632C26.2517 11.3326 26.8346 10.8773 27.2235 10.272C27.6677 10.389 28.0962 10.5591 28.4997 10.7787C29.0009 11.0579 29.565 11.2047 30.1387 11.2053C31.8453 11.2053 32.7477 9.88425 31.2213 8.53332C32.2267 7.64265 32.0576 6.95412 31.8363 6.59625ZM29.0235 13.616C29.8235 13.1632 30.7979 13.3451 30.9296 13.5579C30.9488 13.5888 30.8848 13.9253 30.0464 14.4912C29.8994 14.5903 29.8113 14.756 29.8113 14.9333C29.8113 15.1106 29.8994 15.2763 30.0464 15.3755C30.8848 15.9413 30.9488 16.2779 30.9296 16.3088C30.7979 16.5221 29.824 16.7035 29.0229 16.2501C28.5852 16.0079 28.1212 15.8166 27.64 15.68C27.7643 15.1897 27.7619 14.6758 27.6331 14.1867C28.1169 14.0505 28.5835 13.859 29.0235 13.616ZM1.06667 14.9333V12.2667H10.6667V14.9333C10.6667 15.817 9.95033 16.5333 9.06667 16.5333H2.66667C1.78301 16.5333 1.06667 15.817 1.06667 14.9333ZM8 17.6V18.6667H3.73333V17.6H8ZM5.33334 27.2V26.1333H26.6667V27.2H5.33334ZM30.9333 19.7333V21.3333C30.9307 23.3941 29.2608 25.064 27.2 25.0667H4.8C2.73923 25.064 1.06931 23.3941 1.06667 21.3333V19.7333H30.9333ZM26.6667 14.9333C26.67 15.9482 25.9551 16.8237 24.96 17.0235C24.6821 17.0774 24.4947 17.3392 24.5333 17.6197C24.5279 18.2088 24.0459 18.682 23.4568 18.6765C22.8677 18.6711 22.3946 18.1891 22.4 17.6C22.4 17.3054 22.1612 17.0667 21.8667 17.0667C21.5721 17.0667 21.3333 17.3054 21.3333 17.6C21.3333 18.1891 20.8558 18.6667 20.2667 18.6667C19.6776 18.6667 19.2 18.1891 19.2 17.6C19.2 17.3054 18.9612 17.0667 18.6667 17.0667C18.3721 17.0667 18.1333 17.3054 18.1333 17.6C18.1374 17.9811 17.9379 18.3354 17.6099 18.5295C17.282 18.7236 16.8753 18.7279 16.5433 18.5409C16.2112 18.354 16.0041 18.004 16 17.6229C16.0402 17.3415 15.8525 17.078 15.5733 17.024C14.8047 16.8664 14.184 16.3006 13.9562 15.5498C13.7284 14.799 13.9301 13.9837 14.4816 13.4256C15.2101 12.7093 15.6933 13.0053 15.9328 12.5819C15.992 12.4797 16.0157 12.3608 16 12.2437C16.0063 11.6546 16.489 11.1822 17.0781 11.1885C17.6672 11.1949 18.1397 11.6775 18.1333 12.2667C18.1333 12.5612 18.3721 12.8 18.6667 12.8C18.9612 12.8 19.2 12.5612 19.2 12.2667C19.2 11.6775 19.6776 11.2 20.2667 11.2C20.8558 11.2 21.3333 11.6775 21.3333 12.2667C21.3333 12.5612 21.5721 12.8 21.8667 12.8C22.1612 12.8 22.4 12.5612 22.4 12.2667C22.3947 11.6775 22.868 11.1957 23.4571 11.1904C24.0462 11.1851 24.528 11.6583 24.5333 12.2475C24.4951 12.5264 24.6803 12.787 24.9563 12.8427C25.9503 13.0454 26.6649 13.9189 26.6667 14.9333ZM26.0464 10.0437C25.7506 10.3415 25.3721 10.5435 24.96 10.6235C24.9276 10.6336 24.8963 10.647 24.8667 10.6635C23.9848 9.88856 22.6417 9.97524 21.8667 10.8571C21.4623 10.3969 20.8793 10.1331 20.2667 10.1331C19.6541 10.1331 19.0711 10.3969 18.6667 10.8571C18.2947 10.4332 17.7696 10.1745 17.2068 10.1379C16.6441 10.1013 16.0899 10.2898 15.6661 10.6619C15.6383 10.6467 15.6092 10.634 15.5792 10.624C14.5854 10.4225 13.8707 9.54917 13.8698 8.53511C13.8689 7.52105 14.582 6.64649 15.5755 6.44319C15.8534 6.3892 16.0407 6.12742 16.0021 5.84692C16.0324 5.27676 16.5063 4.83154 17.0772 4.83682C17.6481 4.84211 18.1136 5.29603 18.1333 5.86665C18.1333 6.1612 18.3721 6.39999 18.6667 6.39999C18.9612 6.39999 19.2 6.1612 19.2 5.86665C19.2 5.27755 19.6776 4.79999 20.2667 4.79999C20.8558 4.79999 21.3333 5.27755 21.3333 5.86665C21.3333 6.1612 21.5721 6.39999 21.8667 6.39999C22.1612 6.39999 22.4 6.1612 22.4 5.86665C22.3947 5.27755 22.868 4.79569 23.4571 4.79039C24.0462 4.78508 24.528 5.25835 24.5333 5.84745C24.4951 6.12638 24.6803 6.38698 24.9563 6.44265C25.7252 6.60098 26.3456 7.16772 26.5726 7.9192C26.7997 8.67067 26.5969 9.48613 26.0443 10.0437H26.0464ZM30.0464 8.97705C30.8848 9.54292 30.9488 9.87945 30.9296 9.91039C30.7979 10.1237 29.824 10.3056 29.0229 9.85172C28.5863 9.60916 28.1234 9.41733 27.6432 9.27999C27.7663 8.78945 27.7633 8.27575 27.6347 7.78665C28.1173 7.64976 28.5825 7.45793 29.0213 7.21492C29.8213 6.76159 30.7957 6.94452 30.9275 7.15679C30.9467 7.18772 30.8827 7.52425 30.0443 8.09012C29.8971 8.18955 29.8091 8.35573 29.8095 8.53336C29.8099 8.71098 29.8987 8.87674 30.0464 8.97545V8.97705Z" fill="#282828"/>
</g>
<defs>
<clipPath id="clip0_514_68">
<rect width="32" height="32" fill="white"/>
</clipPath>
</defs>
</svg>
