<svg width="29" height="28" viewBox="0 0 29 28" fill="none" xmlns="http://www.w3.org/2000/svg">
<path d="M9.68412 6.93118L9.72693 7.79353C8.01444 8.11123 6.38757 8.33817 4.7607 8.70126C3.81883 8.9282 2.87695 9.33668 1.9779 9.74516C1.67821 9.88132 1.33571 10.3352 1.37852 10.6075C1.42133 10.9706 1.72102 11.4699 2.02071 11.5606C3.56195 12.1053 5.1032 12.6953 6.73007 12.9676C11.0541 13.7846 15.3782 13.6938 19.745 13.3307C22.0569 13.1038 24.3688 12.7861 26.4666 11.7422C26.6806 11.6514 26.8947 11.5606 27.1088 11.4245C27.5797 11.0614 27.5797 10.2898 27.1516 9.88132C26.9375 9.69978 26.7234 9.56361 26.5522 9.51823C24.4544 8.9282 22.3566 8.47433 20.216 7.97507C20.0019 7.92969 19.7878 7.92969 19.4882 7.8843L19.6166 6.79502C21.7144 7.24888 23.8122 7.61198 25.8244 8.20201C28.5216 9.01897 29.0353 10.0175 28.5216 12.9676C27.4084 19.6395 22.0569 24.6774 15.6779 25.2675C8.27131 25.9483 1.67821 20.5926 0.479462 13.2399C0.43665 12.8769 0.393838 12.5138 0.351026 12.1507C0.222589 10.5167 1.12165 9.01897 2.57727 8.42894C4.84632 7.47582 7.24382 7.2035 9.68412 6.93118ZM27.5369 12.6045C18.7603 15.2824 10.0694 15.3277 1.37852 12.6045C1.67821 18.3233 7.15819 24.269 14.265 24.3597C21.5431 24.4959 27.2372 18.2325 27.5369 12.6045Z" fill="#282828"/>
<path d="M7.24365 25.7667C7.50053 25.5398 7.71459 25.4036 7.97146 25.2221C8.82771 26.3567 9.94083 26.5383 11.2252 26.5383C13.3658 26.4929 15.5064 26.4929 17.6471 26.5383C18.8886 26.5837 20.0017 26.3114 20.858 25.2221C21.1149 25.4036 21.2861 25.4944 21.5002 25.6759C21.4574 25.8121 21.4574 25.9029 21.4145 25.9483C20.6011 26.9922 19.5308 27.4914 18.2892 27.4914C15.4208 27.4914 12.5524 27.446 9.64115 27.3553C8.69927 27.3553 7.97146 26.6745 7.24365 25.7667Z" fill="#282828"/>
<path d="M17.6471 7.43043C17.2618 6.65886 17.0049 5.88728 16.5768 5.25186C15.6778 3.93564 15.8062 2.07478 16.9621 1.03088C17.0906 0.894722 17.3474 0.940109 17.5615 0.849336C17.6043 1.07627 17.6899 1.34859 17.6471 1.57553C17.5615 1.84785 17.3474 2.07478 17.219 2.30172C16.7909 3.16407 16.7481 3.93564 17.3903 4.75261C18.7603 6.61347 18.7603 8.47433 17.3903 10.0175C17.219 10.199 16.8337 10.199 16.5768 10.2898C16.6196 10.0175 16.6196 9.69978 16.7053 9.42745C16.9193 8.83743 17.2618 8.20201 17.6471 7.43043Z" fill="#282828"/>
<path d="M14.6504 1.25782C14.4791 1.53014 14.3507 1.75707 14.2222 1.93862C13.4088 3.30023 13.4088 3.70871 14.2651 4.93415C15.4638 6.65885 15.4638 8.51971 14.1794 10.0175C14.0082 10.2444 13.6229 10.2898 13.366 10.3806C13.4088 10.0629 13.3232 9.69977 13.4516 9.47284C14.5219 7.79352 14.5219 6.79501 13.2804 5.20647C12.3813 4.02642 12.6382 1.75707 13.7941 0.940111C13.9226 0.849337 14.1366 0.80395 14.2651 0.849337C14.4363 0.940111 14.5219 1.12166 14.6504 1.25782Z" fill="#282828"/>
<path d="M11.5249 0.622403C11.5677 0.940111 11.6961 1.21243 11.6533 1.43937C11.5677 1.71169 11.3536 1.93862 11.2252 2.21094C10.7114 3.07329 10.7114 3.84487 11.3536 4.7526C12.6808 6.4773 12.638 8.51971 11.3536 9.92671C11.1824 10.1083 10.7971 10.1536 10.4974 10.2444C10.5402 9.97209 10.4974 9.609 10.6258 9.38206C11.6961 7.65736 11.6961 6.70424 10.4974 5.1157C9.59832 3.93564 9.81238 1.84785 10.9683 0.940111C11.0539 0.849338 11.1824 0.803951 11.5249 0.622403Z" fill="#282828"/>
</svg>
