<svg width="31" height="30" viewBox="0 0 31 30" fill="none" xmlns="http://www.w3.org/2000/svg">
<path d="M28.6758 14.131C28.7696 15.6341 28.535 17.0434 27.9721 18.3586C26.6115 21.6938 24.078 23.8076 20.8878 25.2168C18.4012 26.2972 15.727 26.673 13.0529 26.4381C8.54894 26.0623 4.70185 24.2773 1.98074 20.5664C0.620185 18.6874 0.0102809 16.5266 0.0571966 14.178C0.90168 14.178 1.74616 14.178 2.59065 14.178C2.87214 10.467 4.56111 7.6486 8.07979 6.33333C11.5985 4.97109 14.6949 5.95754 17.3222 8.68202C17.3691 8.5411 17.4629 8.40018 17.5098 8.25926C18.4482 5.76965 19.4334 3.28004 20.3717 0.743451C20.4186 0.649503 20.4186 0.461607 20.5125 0.414634C20.7001 0.320686 20.9347 0.179765 21.1224 0.226739C21.2631 0.273712 21.4039 0.555555 21.4039 0.743451C21.4508 0.884372 21.31 1.07227 21.2631 1.21319C20.3717 3.56188 19.4803 5.8636 18.5889 8.21229C18.542 8.35321 18.4951 8.44715 18.4482 8.68202C20.4186 8.07136 22.1545 8.49413 23.7496 9.66847C23.8435 9.6215 23.9373 9.52755 24.0311 9.48058C25.7201 8.07136 27.3621 6.70912 29.0042 5.29991C29.3795 4.97109 29.661 4.97109 29.8956 5.25293C30.1771 5.62873 29.9425 5.8636 29.661 6.09846C28.019 7.4607 26.4238 8.82294 24.7818 10.1852C24.688 10.1382 24.5941 10.1852 24.5941 10.1852C25.0164 11.0777 25.3917 11.9702 25.767 12.8157C25.8608 13.0976 25.9078 13.3794 25.9078 13.7082C25.9078 14.037 26.0485 14.131 26.3769 14.131C27.1276 14.084 27.8782 14.131 28.6758 14.131ZM26.33 19.3451C18.2605 19.3451 10.3317 19.3451 2.30915 19.3451C5.26484 23.6667 9.44034 25.4986 14.4134 25.4517C19.3396 25.4047 23.4212 23.5257 26.33 19.3451ZM27.6906 15.1644C18.7766 15.1644 9.95642 15.1644 0.948595 15.1644C1.18317 16.0569 1.41775 16.9024 1.60542 17.748C1.69925 18.1238 1.88691 18.2647 2.30915 18.2647C10.3317 18.2647 18.3543 18.2647 26.3769 18.2647C26.4708 18.2647 26.5646 18.3117 26.6584 18.2647C26.7992 18.2177 26.9399 18.1707 26.9868 18.0298C27.3621 17.1373 27.5967 16.1978 27.6906 15.1644ZM3.57588 14.131C3.85737 14.131 4.09195 14.131 4.27961 14.131C5.12409 14.131 5.1241 14.131 5.31176 13.3324C5.31176 13.2385 5.31176 13.1915 5.35867 13.0976C5.87475 10.4201 8.31436 8.30623 11.0355 8.35321C13.3813 8.35321 15.4456 9.71545 16.3839 11.9702C16.6654 12.6278 16.7592 13.3794 16.9938 14.131C17.416 14.131 17.8383 14.131 18.3074 14.131C18.4951 11.8762 16.8999 9.05781 14.6949 7.78952C12.1145 6.33333 9.53417 6.33333 7.04764 7.93044C4.8426 9.33966 3.76354 11.4535 3.57588 14.131ZM15.8209 14.084C15.9147 12.5339 14.8826 10.7489 13.3813 9.95031C11.6454 9.01084 9.95642 9.10479 8.36128 10.2791C7.04764 11.2186 6.43773 12.4869 6.3439 14.131C6.76614 14.131 7.18839 14.131 7.56371 14.131C7.84521 14.131 7.98595 14.084 8.03287 13.7552C8.26745 12.4869 8.97118 11.5474 10.2379 11.2186C11.5046 10.8898 12.6306 11.1716 13.522 12.1581C13.9912 12.7218 14.2257 13.3794 14.3196 14.084C14.7887 14.084 15.3048 14.084 15.8209 14.084ZM22.9052 10.2791C21.5446 9.10479 19.2457 9.10479 18.2605 9.76242C18.6358 10.9368 19.0581 12.0172 19.4334 13.1445C20.5594 12.252 21.6853 11.3126 22.9052 10.2791ZM23.6558 10.9837C22.436 12.0172 21.2631 13.0036 19.9964 14.084C21.7323 14.084 23.3274 14.084 24.9225 14.084C24.8287 12.9097 24.4534 11.8762 23.6558 10.9837ZM13.1936 14.084C13.0998 12.8627 12.1145 11.9702 10.9886 12.0641C9.9095 12.1581 8.97118 13.0976 9.0181 14.084C10.3787 14.084 11.7392 14.084 13.1936 14.084Z" fill="#282828"/>
<path d="M20.8406 26.626C21.1221 26.8139 21.4036 27.0018 21.6851 27.1897C20.9345 28.1762 20.0431 28.8338 18.8232 28.9747C18.2603 29.0217 17.7442 29.0217 17.1812 29.0217C15.0231 29.0217 12.865 29.0217 10.7068 29.0217C9.39319 29.0217 8.31413 28.5989 7.37581 27.6594C7.28198 27.5655 7.23507 27.4715 7.14124 27.3776C7.09432 27.3306 7.0474 27.2367 7.00049 27.1427C7.28198 26.9548 7.51656 26.8139 7.70422 26.673C8.26721 27.0488 8.78329 27.4715 9.29936 27.7534C9.67468 27.9413 10.0969 27.9413 10.5192 27.9883C12.865 27.9883 15.2107 27.9413 17.5096 28.0352C18.9171 28.0352 20.0431 27.7064 20.8406 26.626Z" fill="#282828"/>
</svg>
