<svg width="21" height="28" viewBox="0 0 21 28" fill="none" xmlns="http://www.w3.org/2000/svg">
<path d="M6.3324 27.5989C4.8151 27.5989 3.90472 26.9798 3.47121 25.5204C3.08104 24.1494 2.69088 22.7785 2.25737 21.4075C1.7805 19.9039 1.43369 18.3118 0.696711 16.8967C-0.430428 14.6855 -0.21367 12.43 1.52039 10.6611C1.6938 10.4842 1.91055 10.2188 1.91055 9.99772C1.91055 8.53832 2.51747 7.34427 3.51456 6.41557C5.11856 5.00039 5.94224 3.27565 5.94224 1.06445C5.94224 0.843328 6.3324 0.401087 6.54916 0.401087C8.97684 0.489535 11.2311 1.06445 13.1819 2.65652C14.7859 3.98324 15.7397 5.70798 15.8264 7.78651C15.8697 8.36143 16.0431 8.53832 16.5634 8.62677C19.3378 9.20168 21.2453 12.0763 20.6817 14.8624C20.465 16.0122 19.8581 17.0294 19.5113 18.1792C18.7309 20.7442 17.9506 23.3534 17.1703 25.9184C16.9102 26.8029 16.3466 27.5105 15.3929 27.5547C13.7455 27.6431 12.0982 27.5547 10.4074 27.5547L6.3324 27.5989ZM1.52039 16.3218C1.65044 16.4987 1.95391 16.5871 2.12731 16.5871C3.55791 16.6313 4.98851 16.4987 6.28905 17.3389C6.37576 17.3831 6.59251 17.2947 6.72257 17.2505C9.1936 16.2775 11.6646 16.2775 14.0923 17.2505C14.2657 17.2947 14.4825 17.3389 14.6125 17.2947C15.653 16.6313 16.8235 16.6313 17.9506 16.6313C19.2511 16.6313 19.598 16.3218 19.8147 14.995C20.2482 12.5185 18.7743 10.2188 16.3899 9.55548C15.9131 9.4228 15.6096 9.51125 15.3062 9.90927C14.3091 11.3244 12.8785 11.7667 11.2311 11.7225C10.7543 11.7225 10.234 11.7225 9.75717 11.634C9.45371 11.5456 9.23695 11.236 9.0202 11.0591C9.32366 10.9706 9.62712 10.7495 9.88723 10.7495C10.6242 10.7495 11.3612 10.8822 12.0982 10.838C14.0056 10.7495 15.0027 9.46703 14.7426 7.52117C14.3091 4.51393 12.3583 2.83341 9.75717 1.90471C8.80344 1.55091 7.80635 1.46247 6.72257 1.24135C6.63586 1.81626 6.59251 2.21428 6.54916 2.65652C6.28905 4.38126 5.37867 5.7522 4.16483 6.99048C2.47412 8.67099 2.30072 10.7938 3.73131 12.4743C4.07813 12.9165 4.6417 13.1819 5.11856 13.5356C5.37867 13.7125 5.63878 13.8894 5.89889 14.0663C5.89889 14.199 5.85554 14.2875 5.85554 14.4201C5.46537 14.4201 5.03186 14.5528 4.7284 14.4201C3.42786 13.8894 2.69088 12.8281 2.17066 11.5456C0.826766 12.3416 0.523305 14.995 1.52039 16.3218ZM13.8756 18.8868C13.9189 18.6214 13.7022 18.3119 13.5287 18.0907C13.3987 17.9138 13.0952 17.7369 12.8785 17.7369C11.1878 17.6927 9.45371 17.6485 7.763 17.7369C7.24279 17.7812 6.80927 18.135 6.89597 18.931C7.19943 21.4075 7.45954 23.8841 7.71965 26.4049C7.71965 26.4933 7.763 26.5818 7.80635 26.7144C9.49706 26.7144 11.1878 26.7144 12.9652 26.7144C13.312 24.061 13.6155 21.496 13.8756 18.8868ZM16.5634 24.9897C17.257 22.5574 17.994 20.125 18.7309 17.6043C17.8639 17.6043 17.0402 17.56 16.2599 17.6043C15.1761 17.6927 14.8293 18.135 14.6992 19.2848C14.4391 21.7613 14.179 24.1937 13.9189 26.7144C15.7397 26.8913 16.0865 26.6702 16.5634 24.9897ZM4.46829 25.5646C4.77175 26.626 5.37867 26.8471 6.89597 26.6702C6.76592 25.4762 6.63586 24.2821 6.50581 23.1323C6.37576 21.894 6.11565 20.6115 6.11565 19.3732C6.07229 18.3118 5.63878 17.8254 4.42494 17.6043C4.20818 17.56 3.99142 17.56 3.77467 17.56C3.25445 17.56 2.73423 17.56 2.08396 17.56C2.90764 20.3462 3.68796 22.9554 4.46829 25.5646Z" fill="#282828"/>
<path d="M13.1819 8.14031C12.5316 6.06177 11.3612 4.55815 9.5404 3.62945C9.32364 3.541 9.15023 3.40833 8.93347 3.40833C8.71672 3.40833 8.49996 3.541 8.2832 3.58523C8.41326 3.80635 8.49996 4.11591 8.67337 4.20436C9.84386 4.77928 10.8409 5.53108 11.5346 6.68091C11.838 7.16738 11.9681 7.74229 12.2715 8.27298C12.3582 8.44987 12.6617 8.62677 12.8351 8.62677C12.9652 8.58255 13.0952 8.27298 13.1819 8.14031Z" fill="#282828"/>
<path d="M18.3839 14.5086C18.3839 13.1376 17.3868 11.7225 16.2596 11.3244C16.0862 11.2802 15.8261 11.3687 15.6094 11.4129C15.6961 11.634 15.7394 11.9878 15.9128 12.0763C16.8666 12.5627 17.4301 13.3587 17.5602 14.4201C17.6035 14.597 17.8203 14.7739 17.9504 14.9066C18.1238 14.7739 18.2972 14.597 18.3839 14.5086Z" fill="#282828"/>
</svg>
