<svg width="39" height="40" viewBox="0 0 39 40" fill="none" xmlns="http://www.w3.org/2000/svg">
<g clip-path="url(#clip0_514_88)">
<path d="M20.9942 16.5105C22.7495 16.5105 24.1778 15.0823 24.1778 13.3269C24.1778 11.5714 22.7496 10.1434 20.9942 10.1434C19.2387 10.1434 17.8105 11.5715 17.8105 13.327C17.8105 15.0824 19.2388 16.5105 20.9942 16.5105ZM20.9942 11.2813C22.1221 11.2813 23.0397 12.1989 23.0397 13.3269C23.0397 14.4548 22.1221 15.3725 20.9942 15.3725C19.8662 15.3725 18.9486 14.4548 18.9486 13.3269C18.9486 12.199 19.8662 11.2813 20.9942 11.2813Z" fill="#282828"/>
<path d="M7.5713 13.6921C9.32668 13.6921 10.7549 12.264 10.7549 10.5085C10.7549 8.75307 9.32676 7.325 7.5713 7.325C5.81584 7.325 4.3877 8.75315 4.3877 10.5086C4.3877 12.2641 5.81592 13.6921 7.5713 13.6921ZM7.5713 8.46293C8.69925 8.46293 9.61689 9.38058 9.61689 10.5085C9.61689 11.6365 8.69925 12.5541 7.5713 12.5541C6.44335 12.5541 5.5257 11.6365 5.5257 10.5085C5.5257 9.38065 6.44335 8.46293 7.5713 8.46293Z" fill="#282828"/>
<path d="M12.8377 18.8482C12.9251 18.8966 13.0196 18.9196 13.1128 18.9196C13.313 18.9196 13.5072 18.8137 13.6111 18.6261C13.7633 18.3512 13.6639 18.0049 13.389 17.8527C12.7372 17.4917 12.3323 16.8056 12.3323 16.062C12.3323 15.3184 12.7371 14.6322 13.389 14.2713C13.6638 14.1191 13.7633 13.7728 13.6111 13.4979C13.4589 13.223 13.1127 13.1235 12.8377 13.2758C11.824 13.8371 11.1943 14.9047 11.1943 16.062C11.1943 17.2193 11.824 18.2869 12.8377 18.8482Z" fill="#282828"/>
<path d="M37.5978 21.7967C37.4837 21.7733 37.3655 21.761 37.2445 21.761H24.1272C24.1601 21.5765 24.1776 21.3888 24.1776 21.1984C24.1776 20.5334 23.9724 19.9155 23.6223 19.4043C23.6747 19.4003 23.7274 19.3976 23.7805 19.3976C24.5241 19.3976 25.2104 19.8026 25.5712 20.4544C25.6751 20.642 25.8693 20.7479 26.0695 20.7479C26.1628 20.7479 26.2574 20.7249 26.3447 20.6765C26.6195 20.5243 26.719 20.178 26.5668 19.9031C26.0054 18.8894 24.9378 18.2597 23.7805 18.2597C23.3836 18.2597 22.9978 18.3354 22.6387 18.4737C22.1584 18.1827 21.5955 18.0149 20.994 18.0149C19.2387 18.0149 17.8104 19.443 17.8104 21.1985C17.8104 21.3893 17.8276 21.577 17.8603 21.7611H8.63645V21.4217C8.63645 20.2246 7.66259 19.2508 6.46555 19.2508H2.86285C1.6658 19.2508 0.691947 20.2246 0.691947 21.4217V21.9734C0.569082 22.0483 0.456348 22.141 0.359381 22.2513C0.0855429 22.5627 -0.0411309 22.9771 0.0118086 23.3883C0.321828 25.7952 1.66131 28.0118 3.8853 29.7988C4.13019 29.9956 4.48843 29.9566 4.68518 29.7116C4.88201 29.4666 4.84301 29.1085 4.59796 28.9117C2.60782 27.3125 1.41223 25.3523 1.14045 23.2429C1.12514 23.124 1.1799 23.0414 1.21395 23.0028C1.24793 22.964 1.32311 22.899 1.44308 22.899H28.7652C28.8852 22.899 28.9603 22.964 28.9943 23.0028C29.0283 23.0415 29.0831 23.124 29.0678 23.2429C28.7546 25.6743 27.1839 27.9373 24.6451 29.6147C22.0413 31.3352 18.6529 32.2827 15.104 32.2827C11.9767 32.2827 9.01654 31.5646 6.54355 30.206C6.26811 30.0546 5.92221 30.1553 5.77086 30.4307C5.61958 30.7061 5.7202 31.052 5.99557 31.2034C8.63599 32.654 11.7857 33.4207 15.104 33.4207C18.8733 33.4207 22.4846 32.4063 25.2724 30.5642C28.0914 28.7015 29.8402 26.153 30.1964 23.3884C30.2176 23.2234 30.2086 23.0582 30.1742 22.8991H33.3514V24.1342H32.0981C31.7838 24.1342 31.5291 24.3889 31.5291 24.7032C31.5291 25.0174 31.7838 25.2722 32.0981 25.2722H33.9204H37.2443C38.2123 25.2722 38.9998 24.4846 38.9998 23.5167C39 22.6695 38.397 21.9607 37.5978 21.7967ZM18.9484 21.1984C18.9484 20.0705 19.8661 19.1528 20.994 19.1528C21.1704 19.1528 21.3415 19.1752 21.5049 19.2174C21.3073 19.4193 21.1349 19.6492 20.9942 19.9031C20.842 20.178 20.9414 20.5243 21.2164 20.6765C21.4912 20.8287 21.8375 20.7293 21.9898 20.4544C22.1247 20.2105 22.3053 20.0014 22.5172 19.8349C22.8418 20.1971 23.0396 20.675 23.0396 21.1985C23.0396 21.3911 23.0128 21.5793 22.9609 21.7611H19.0264C18.9746 21.5797 18.9484 21.3914 18.9484 21.1984ZM2.86285 20.3886H6.46562C7.03524 20.3886 7.49851 20.852 7.49851 21.4216V21.761H1.82988V21.4216C1.82988 20.852 2.29323 20.3886 2.86285 20.3886ZM37.8589 23.5796C37.8272 23.8906 37.5637 24.1341 37.2445 24.1341H34.4896V22.899H37.2445C37.5637 22.899 37.8272 23.1425 37.8589 23.4536C37.861 23.4743 37.8621 23.4953 37.8621 23.5166C37.8621 23.538 37.8609 23.5588 37.8589 23.5796Z" fill="#282828"/>
<path d="M14.7243 7.71735C15.8522 7.71735 16.7699 8.63499 16.7699 9.76294C16.7699 10.0772 17.0246 10.3319 17.3389 10.3319C17.6532 10.3319 17.9079 10.0772 17.9079 9.76294C17.9079 8.00749 16.4797 6.57934 14.7243 6.57934C14.41 6.57934 14.1553 6.83406 14.1553 7.14835C14.1553 7.46256 14.41 7.71735 14.7243 7.71735Z" fill="#282828"/>
</g>
<defs>
<clipPath id="clip0_514_88">
<rect width="39" height="39" fill="white" transform="translate(0 0.5)"/>
</clipPath>
</defs>
</svg>
