<svg width="31" height="26" viewBox="0 0 31 26" fill="none" xmlns="http://www.w3.org/2000/svg">
<path d="M6.76767 4.41317C7.17079 2.76947 8.13827 1.70107 9.75075 1.33124C11.4842 0.961407 12.8548 1.5367 13.782 2.93384C14.5479 2.68729 15.2735 2.44073 15.9991 2.19418C16.1201 2.15309 16.2813 2.02981 16.3619 1.94763C16.9666 1.33124 17.6116 0.714852 18.2566 0.0984659C19.345 1.20796 20.1513 2.39964 20.635 3.92006C22.0459 2.68729 23.6987 2.02981 25.4321 1.70107C25.7546 2.39964 26.0368 3.83788 25.8756 6.05687C27.4074 5.85141 28.9393 5.93359 30.4711 6.34452C30.068 8.19368 29.3827 9.87846 28.133 11.2345C27.9718 11.3989 27.8508 11.7276 27.8508 11.9742C27.8105 14.3986 27.0043 16.5354 25.4724 18.3435C23.3359 20.8501 20.635 22.2884 17.4907 22.9048C13.2176 23.7266 9.14607 23.1102 5.47768 20.6858C3.01865 19.0421 1.28523 16.8231 0.680551 13.7822C0.599927 13.4124 0.559615 13.0426 0.559615 12.6317C0.519303 11.9742 0.519304 11.2756 0.43868 10.6181C0.277432 9.01552 1.36586 7.45401 2.89771 7.12527C3.22021 7.04309 3.38146 6.91981 3.50239 6.59107C4.02645 5.3172 4.95362 4.53645 6.32423 4.45426C6.40486 4.45426 6.48548 4.45426 6.56611 4.41317C6.64673 4.45426 6.68704 4.45426 6.76767 4.41317ZM2.89771 16.4943C2.89771 16.5765 2.89771 16.6587 2.93802 16.6998C3.01865 16.8231 3.09927 16.9464 3.1799 17.0696C4.5505 18.9599 6.32423 20.3159 8.46077 21.1789C11.1617 22.2884 13.9835 22.576 16.8457 22.0829C19.99 21.5076 22.6909 20.1516 24.7871 17.6449C25.0693 17.3162 25.3112 16.9464 25.5934 16.5354C17.9744 16.4943 10.4361 16.4943 2.89771 16.4943ZM27.0446 12.5906C18.4581 12.5906 10.0329 12.5906 1.48679 12.5906C1.68835 13.4124 1.88991 14.1932 2.09147 14.9739C2.1721 15.3849 2.41397 15.5081 2.81709 15.5081C10.4361 15.5081 18.055 15.5081 25.6337 15.5081C25.7143 15.5081 25.8352 15.5492 25.8756 15.5081C25.9965 15.4259 26.1981 15.3848 26.2384 15.2616C26.5205 14.3575 26.7624 13.5357 27.0446 12.5906ZM8.09796 11.5222C8.09796 11.3989 8.09796 11.3167 8.09796 11.2345C7.77547 9.96065 8.05765 8.85115 8.74295 7.78275C9.10576 7.20746 9.10576 7.00199 8.66233 6.50888C8.50108 6.34451 8.33983 6.13905 8.17859 6.01578C7.45297 5.44048 6.64673 5.27611 5.80018 5.64594C4.95362 5.97468 4.42957 6.67326 4.30863 7.57729C4.26832 7.90603 4.1877 8.0293 3.82489 8.0293C2.25272 8.11149 1.32554 9.17989 1.44648 10.6592C1.48679 11.44 1.60773 11.5633 2.37366 11.5633C2.5349 11.5633 2.73646 11.5633 2.89771 11.5633C4.59082 11.5222 6.32423 11.5222 8.09796 11.5222ZM13.0563 6.63216C12.9757 6.67325 12.9757 6.67325 12.9354 6.67325C12.8145 6.67325 12.6935 6.67325 12.5726 6.67325C11.4842 6.71435 10.5167 7.08418 9.79107 7.94712C9.02514 8.89225 8.70264 9.96065 9.06545 11.1523C9.14607 11.3989 9.26701 11.5222 9.54919 11.5222C11.1214 11.5222 12.6935 11.5222 14.2657 11.5222C14.7091 11.5222 15.1123 11.5222 15.6363 11.5222C14.9107 10.2483 14.5076 8.93334 14.3866 7.5362C14.2657 6.09796 14.6688 4.783 15.2332 3.46805C13.9029 4.08443 13.137 5.11174 13.0563 6.63216ZM29.3021 7.12527C25.2709 6.22124 21.3606 8.48132 20.635 11.5222C22.4893 11.5222 24.3437 11.5222 26.1981 11.5222C26.319 11.5222 26.4399 11.4811 26.5609 11.3989C27.9718 10.3305 28.8183 8.85115 29.3021 7.12527ZM18.2566 1.57779C18.176 1.61889 18.176 1.61889 18.1357 1.61889C14.9913 4.37208 14.5882 7.90603 16.6844 11.3167C16.7247 11.3989 16.8457 11.5222 16.9263 11.5222C17.2488 11.5633 17.6116 11.5222 18.0147 11.5222C18.0147 10.988 17.9744 10.5359 18.0147 10.0839C18.1357 8.23477 18.5791 6.50888 19.6675 4.98846C19.7481 4.86519 19.8288 4.70082 19.7884 4.57754C19.5466 3.46804 18.9822 2.48183 18.2566 1.57779ZM19.5063 11.5222C19.7078 11.0291 19.9094 10.5359 20.1513 10.0839C21.1187 8.27586 22.6103 7.12527 24.5049 6.4267C24.6662 6.38561 24.8678 6.22124 24.8678 6.09796C25.0693 5.02956 25.0693 4.00225 24.7871 2.93384C20.2722 4.00225 18.7403 7.57729 19.0225 11.5222C19.1838 11.5222 19.345 11.5222 19.5063 11.5222ZM9.79107 6.4267C10.557 6.18014 11.3229 5.97468 12.0485 5.72813C12.1292 5.68704 12.2098 5.56376 12.2904 5.48157C12.5323 5.02956 12.6935 4.57754 12.9757 4.16662C13.1773 3.87897 13.137 3.67351 12.9757 3.42695C12.2501 2.44073 11.2423 2.19418 10.1136 2.31746C9.10576 2.44073 8.13827 3.34477 7.8964 4.33099C7.85609 4.45426 7.93671 4.65973 8.01734 4.70082C8.78327 5.07065 9.38795 5.68704 9.79107 6.4267Z" fill="#282828"/>
<path d="M7.21094 23.891C7.49312 23.6855 7.73499 23.5211 8.01718 23.3157C8.86373 24.4252 10.0328 24.6717 11.3228 24.6306C13.419 24.5895 15.5555 24.6306 17.6518 24.6306C18.8208 24.6306 19.627 24.2608 20.393 23.3568C20.6348 23.5211 20.917 23.6855 21.1992 23.891C20.4333 24.8772 19.4658 25.5758 18.2564 25.5758C15.5555 25.6169 12.8546 25.6169 10.1537 25.5758C8.94435 25.5758 8.01718 24.9183 7.21094 23.891Z" fill="#282828"/>
</svg>
