<svg width="29" height="30" viewBox="0 0 29 30" fill="none" xmlns="http://www.w3.org/2000/svg">
<g clip-path="url(#clip0_514_96)">
<path d="M14.5 0.5C6.49187 0.5 0 6.99187 0 15C0 23.0081 6.49187 29.5 14.5 29.5C22.5081 29.5 29 23.0081 29 15C28.9909 6.99563 22.5044 0.509056 14.5 0.5ZM14.5 28.5333C7.02575 28.5333 0.966667 22.4743 0.966667 15C0.966667 7.52575 7.02575 1.46667 14.5 1.46667C21.9743 1.46667 28.0333 7.52575 28.0333 15C28.0248 22.4707 21.9707 28.5248 14.5 28.5333Z" fill="#282828"/>
<path d="M14.4999 3.4C8.0934 3.4 2.8999 8.5935 2.8999 15C2.8999 21.4065 8.0934 26.6 14.4999 26.6C20.9064 26.6 26.0999 21.4065 26.0999 15C26.0924 8.59659 20.9033 3.40746 14.4999 3.4ZM14.7836 25.6261C14.442 24.9416 14.487 24.1276 14.902 23.4849C15.5647 22.4912 15.1587 21.7623 14.8324 21.1765C14.474 20.6843 14.3473 20.0605 14.4854 19.4675C14.8914 17.8425 15.9209 18.5767 16.4236 16.0614C16.8243 14.058 17.8634 15.0198 19.9335 14.5022C21.8828 14.015 21.4812 13.55 22.7166 13.55C24.0965 13.55 24.3116 14.4374 25.1125 14.3639C25.2822 17.2388 24.2792 20.0596 22.3327 22.182C20.3862 24.3045 17.6624 25.5471 14.7836 25.6261ZM22.7166 12.5833C22.161 12.5403 21.6069 12.6831 21.1414 12.9893C20.2548 13.4969 19.2457 13.7509 18.2245 13.7235C17.0775 13.7583 15.8914 13.7941 15.4762 15.8719C15.252 16.9938 14.9509 17.2412 14.6024 17.5274C14.047 17.9411 13.6699 18.5508 13.5477 19.2326C13.3475 20.0641 13.5072 20.9416 13.9876 21.6492C14.2935 22.1973 14.4327 22.4477 14.0978 22.9504C13.5709 23.7312 13.4398 24.7136 13.7435 25.6053C8.19125 25.2089 3.88431 20.5977 3.86736 15.0313C3.85042 9.46498 8.12921 4.82758 13.6789 4.39742C19.2287 3.96727 24.1709 7.88996 25.0119 13.3924C24.7287 13.2963 24.1385 12.5833 22.7166 12.5833Z" fill="#282828"/>
<path d="M14.5001 5.33333C12.0746 5.33171 9.73776 6.24512 7.95627 7.89113C7.8237 8.0067 7.76436 8.18516 7.80135 8.3571C7.83833 8.52905 7.9658 8.66733 8.13416 8.71816C8.30253 8.769 8.48522 8.72437 8.61119 8.60163C10.2144 7.12045 12.3174 6.29853 14.5001 6.3C14.7671 6.3 14.9835 6.0836 14.9835 5.81667C14.9835 5.54973 14.7671 5.33333 14.5001 5.33333Z" fill="#282828"/>
<path d="M18.3666 15.9667C18.0997 15.9667 17.8833 16.1831 17.8833 16.45V16.9333C17.8833 17.2003 18.0997 17.4167 18.3666 17.4167C18.6336 17.4167 18.85 17.2003 18.85 16.9333V16.45C18.85 16.1831 18.6336 15.9667 18.3666 15.9667Z" fill="#282828"/>
<path d="M17.0585 19.6917C17.2481 19.8749 17.5496 19.8723 17.736 19.6858C17.9224 19.4994 17.9251 19.1979 17.7419 19.0083L17.2586 18.5249C17.0689 18.3418 16.7675 18.3444 16.581 18.5308C16.3946 18.7173 16.392 19.0187 16.5751 19.2084L17.0585 19.6917Z" fill="#282828"/>
<path d="M20.4418 18.5249L19.9584 19.0083C19.7753 19.1979 19.7779 19.4994 19.9643 19.6858C20.1508 19.8723 20.4522 19.8749 20.6419 19.6917L21.1252 19.2084C21.3084 19.0187 21.3057 18.7173 21.1193 18.5308C20.9329 18.3444 20.6314 18.3418 20.4418 18.5249Z" fill="#282828"/>
<path d="M22.5749 15.625L22.0916 15.1416C21.9019 14.9584 21.6005 14.9611 21.414 15.1475C21.2276 15.3339 21.225 15.6354 21.4081 15.8251L21.8915 16.3084C22.0811 16.4916 22.3826 16.4889 22.569 16.3025C22.7554 16.1161 22.7581 15.8146 22.5749 15.625Z" fill="#282828"/>
<path d="M23.2001 16.9333C22.9332 16.9333 22.7168 17.1497 22.7168 17.4167V17.9C22.7168 18.1669 22.9332 18.3833 23.2001 18.3833C23.4671 18.3833 23.6835 18.1669 23.6835 17.9V17.4167C23.6835 17.1497 23.4671 16.9333 23.2001 16.9333Z" fill="#282828"/>
<path d="M19.8168 21.2833C19.5499 21.2833 19.3335 21.4997 19.3335 21.7667V22.25C19.3335 22.5169 19.5499 22.7333 19.8168 22.7333C20.0838 22.7333 20.3002 22.5169 20.3002 22.25V21.7667C20.3002 21.4997 20.0838 21.2833 19.8168 21.2833Z" fill="#282828"/>
<path d="M18.0248 20.4583L17.5414 20.9416C17.3583 21.1313 17.3609 21.4327 17.5473 21.6192C17.7338 21.8056 18.0352 21.8082 18.2249 21.625L18.7082 21.1417C18.8914 20.9521 18.8888 20.6506 18.7023 20.4642C18.5159 20.2777 18.2144 20.2751 18.0248 20.4583Z" fill="#282828"/>
<path d="M16.9164 22.7333C16.6495 22.7333 16.4331 22.9497 16.4331 23.2167V23.7C16.4331 23.9669 16.6495 24.1833 16.9164 24.1833C17.1834 24.1833 17.3998 23.9669 17.3998 23.7V23.2167C17.3998 22.9497 17.1834 22.7333 16.9164 22.7333Z" fill="#282828"/>
<path d="M18.3665 7.26667C17.5657 7.26667 16.9165 7.91586 16.9165 8.71667C16.9165 9.51748 17.5657 10.1667 18.3665 10.1667C19.1673 10.1667 19.8165 9.51748 19.8165 8.71667C19.8165 7.91586 19.1673 7.26667 18.3665 7.26667ZM18.3665 9.2C18.0996 9.2 17.8832 8.98361 17.8832 8.71667C17.8832 8.44973 18.0996 8.23334 18.3665 8.23334C18.6334 8.23334 18.8498 8.44973 18.8498 8.71667C18.8498 8.98361 18.6334 9.2 18.3665 9.2Z" fill="#282828"/>
<path d="M12.0833 14.0333C11.2825 14.0333 10.6333 14.6825 10.6333 15.4833C10.6333 16.2841 11.2825 16.9333 12.0833 16.9333C12.8841 16.9333 13.5333 16.2841 13.5333 15.4833C13.5333 14.6825 12.8841 14.0333 12.0833 14.0333ZM12.0833 15.9667C11.8164 15.9667 11.6 15.7503 11.6 15.4833C11.6 15.2164 11.8164 15 12.0833 15C12.3502 15 12.5666 15.2164 12.5666 15.4833C12.5666 15.7503 12.3502 15.9667 12.0833 15.9667Z" fill="#282828"/>
<path d="M10.6331 19.35C10.0467 19.35 9.51795 19.7033 9.29352 20.2451C9.06909 20.7869 9.19315 21.4106 9.60784 21.8253C10.0225 22.24 10.6462 22.3641 11.188 22.1396C11.7299 21.9152 12.0831 21.3865 12.0831 20.8C12.0831 19.9992 11.434 19.35 10.6331 19.35ZM10.6331 21.2833C10.3662 21.2833 10.1498 21.0669 10.1498 20.8C10.1498 20.5331 10.3662 20.3167 10.6331 20.3167C10.9001 20.3167 11.1165 20.5331 11.1165 20.8C11.1165 21.0669 10.9001 21.2833 10.6331 21.2833Z" fill="#282828"/>
<path d="M7.7332 10.1667C6.93239 10.1667 6.2832 10.8159 6.2832 11.6167C6.2832 12.4175 6.93239 13.0667 7.7332 13.0667C8.53401 13.0667 9.1832 12.4175 9.1832 11.6167C9.1832 10.8159 8.53401 10.1667 7.7332 10.1667ZM7.7332 12.1C7.46626 12.1 7.24987 11.8836 7.24987 11.6167C7.24987 11.3497 7.46626 11.1333 7.7332 11.1333C8.00014 11.1333 8.21653 11.3497 8.21653 11.6167C8.21653 11.8836 8.00014 12.1 7.7332 12.1Z" fill="#282828"/>
<path d="M13.5334 8.23333H12.5668C12.0329 8.23333 11.6001 8.66612 11.6001 9.2V10.1667C11.6001 10.7005 12.0329 11.1333 12.5668 11.1333H13.5334C14.0673 11.1333 14.5001 10.7005 14.5001 10.1667V9.2C14.5001 8.66612 14.0673 8.23333 13.5334 8.23333ZM12.5668 10.1667V9.2H13.5334V10.1667H12.5668Z" fill="#282828"/>
<path d="M7.73314 15H6.76647C6.2326 15 5.7998 15.4328 5.7998 15.9667V16.9333C5.7998 17.4672 6.2326 17.9 6.76647 17.9H7.73314C8.26701 17.9 8.6998 17.4672 8.6998 16.9333V15.9667C8.6998 15.4328 8.26701 15 7.73314 15ZM6.76647 16.9333V15.9667H7.73314V16.9333H6.76647Z" fill="#282828"/>
</g>
<defs>
<clipPath id="clip0_514_96">
<rect width="29" height="29" fill="white" transform="translate(0 0.5)"/>
</clipPath>
</defs>
</svg>
