<svg width="33" height="28" viewBox="0 0 33 28" fill="none" xmlns="http://www.w3.org/2000/svg">
<path d="M11.1356 4.86359C11.1356 5.19241 11.1356 5.47425 11.1356 5.70912C6.39276 6.31978 4.78112 9.74887 3.81414 13.9295C12.1026 13.9295 20.391 13.9295 28.6795 13.9295C28.9558 10.2656 25.4101 6.08491 21.8645 5.85004C21.7264 5.85004 21.5882 5.80307 21.4501 5.80307C21.4501 5.47425 21.4501 5.23938 21.4501 4.95754C24.7194 4.86359 27.7585 7.44715 28.9097 10.7353C29.186 11.5808 29.4623 12.4734 29.7386 13.3189C29.8767 13.7886 30.0609 14.0235 30.6134 14.0235C31.5804 14.0705 32.3632 14.869 32.3632 15.8085C32.3632 16.701 31.5804 17.5465 30.5674 17.5935C30.0609 17.5935 29.8306 17.8284 29.6925 18.2981C29.2781 19.4724 28.8637 20.6468 28.4492 21.8211C27.1599 25.3442 24.4432 27.3171 20.7134 27.3171C17.8124 27.3171 14.9114 27.3171 12.0105 27.3171C8.37278 27.3171 5.65601 25.4381 4.32065 22.009C3.90623 20.9286 3.44576 19.8013 3.12343 18.6739C2.8932 17.9223 2.57087 17.5465 1.78807 17.4995C0.91318 17.4526 0.45271 16.7949 0.314569 15.9964C0.222476 15.2448 0.636898 14.6811 1.23551 14.3053C1.4197 14.2114 1.64993 14.0705 1.83412 14.1174C2.75506 14.2584 2.93924 13.6947 3.12343 12.9901C3.35367 12.0976 3.62995 11.252 3.95228 10.4065C5.28764 7.11834 7.54394 5.14544 11.1356 4.86359ZM28.8176 17.5935C26.285 17.5935 23.8906 17.5935 21.5422 17.5935C20.9436 17.5935 20.6673 17.7344 20.4371 18.3451C20.0226 19.5194 19.1017 20.1301 17.8584 20.1771C16.8454 20.1771 15.8324 20.1771 14.8654 20.1771C13.53 20.1771 12.6091 19.5664 12.1947 18.2981C12.0105 17.7814 11.7342 17.6405 11.2277 17.6405C9.01744 17.6405 6.80718 17.6405 4.64298 17.6405C4.41274 17.6405 4.22856 17.6874 3.81414 17.7344C4.3667 19.2846 4.78112 20.8347 5.47182 22.2439C6.76114 24.9684 8.83325 26.4246 11.9184 26.3776C15.0956 26.3306 18.3189 26.3776 21.5422 26.3306C22.2789 26.3306 23.0157 26.0958 23.7064 25.8139C27.1139 24.2638 27.7585 20.9286 28.8176 17.5935ZM16.3389 15.0099C14.0366 15.0099 11.7803 15.0099 9.47791 15.0099C7.08347 15.0099 4.68903 15.0099 2.29459 15.0099C1.78807 15.0099 1.3276 15.1509 1.3276 15.7615C1.3276 16.3252 1.69598 16.701 2.29459 16.748C2.52482 16.748 2.75506 16.748 2.93924 16.748C11.8723 16.748 20.8055 16.748 29.7386 16.748C29.9688 16.748 30.2451 16.7949 30.4753 16.701C30.7516 16.607 31.166 16.3722 31.166 16.1843C31.166 15.8555 31.0279 15.4327 30.7976 15.1509C30.6134 14.963 30.2451 15.0099 29.9227 15.0099C25.4101 15.0099 20.8515 15.0099 16.3389 15.0099ZM19.6082 17.6874C17.3519 17.6874 15.1877 17.6874 13.0696 17.6874C13.2538 18.6739 13.7603 19.0967 14.6812 19.1436C15.6942 19.1906 16.7533 19.1436 17.7664 19.1436C18.6412 19.1436 19.1938 18.6269 19.6082 17.6874Z" fill="#282828"/>
<path d="M12.563 9.60795C12.3788 9.46703 12.1485 9.37308 12.1025 9.18519C12.0564 8.99729 12.1485 8.76242 12.2406 8.57453C12.9313 7.68202 13.2537 6.74255 12.655 5.66215C12.4709 5.33333 12.2406 5.05149 12.0104 4.76965C11.1815 3.64228 11.4578 1.76332 12.609 1.01174C12.7471 0.917795 13.0695 0.917795 13.1616 1.01174C13.2537 1.10569 13.2537 1.38753 13.2076 1.6224C13.1616 1.76332 13.0234 1.90424 12.9313 2.04517C12.2867 3.12556 12.2867 3.50135 13.0234 4.4878C14.2206 6.13189 14.2206 7.82295 13.0234 9.13821C12.9313 9.32611 12.7471 9.46703 12.563 9.60795Z" fill="#282828"/>
<path d="M16.339 0.776876C16.4311 1.05872 16.6153 1.24661 16.6153 1.48148C16.6153 1.6224 16.4311 1.8103 16.293 1.95122C15.6023 3.03162 15.6023 3.45438 16.339 4.4878C17.4902 6.08491 17.4902 7.82294 16.293 9.13821C16.1088 9.32611 15.7404 9.32611 15.5102 9.37308C15.5562 9.09124 15.4641 8.71545 15.6023 8.52755C16.5693 7.21229 16.5693 6.27281 15.4641 5.05149C14.1288 3.5953 14.9116 2.13912 15.7865 1.05872C15.9706 0.964771 16.1088 0.964772 16.339 0.776876Z" fill="#282828"/>
<path d="M19.9305 0.729899C19.9765 1.05872 20.0686 1.34056 20.0225 1.52845C19.9765 1.71635 19.7923 1.85727 19.7002 1.99819C19.0095 3.07859 19.0556 3.40741 19.7923 4.53478C20.9435 6.17886 20.9435 7.86992 19.7463 9.18518C19.6081 9.37308 19.2397 9.37308 19.0095 9.42005C19.0095 9.13821 18.9174 8.76242 19.0556 8.57452C20.0686 7.02439 20.0686 6.31978 18.9635 4.72267C18.1346 3.54833 18.3649 1.85727 19.47 1.01174C19.5621 0.964769 19.6542 0.917795 19.9305 0.729899Z" fill="#282828"/>
<path d="M19.6081 17.6874C19.1937 18.6269 18.6872 19.1436 17.7202 19.1436C16.7072 19.1436 15.6481 19.1436 14.6351 19.1436C13.7141 19.0967 13.2537 18.6739 13.0234 17.6874C15.1876 17.6874 17.3058 17.6874 19.6081 17.6874Z" fill="#F1F1F1"/>
</svg>
