<svg width="31" height="30" viewBox="0 0 31 30" fill="none" xmlns="http://www.w3.org/2000/svg">
<g clip-path="url(#clip0_514_128)">
<path d="M4.76667 13.0667C4.19597 13.0667 3.73333 13.4995 3.73333 14.0333V20.3167C3.7399 24.1292 6.90041 27.2862 10.9667 27.542V28.5333C10.9667 29.0672 11.4293 29.5 12 29.5H19.2333C19.804 29.5 20.2667 29.0672 20.2667 28.5333V27.542C24.3329 27.2862 27.4934 24.1292 27.5 20.3167V14.0333C27.4995 13.6411 27.2458 13.2881 26.8578 13.1396C27.98 8.42038 21.8198 5.32173 18.2 8.66253V1.95C18.2 1.14918 17.506 0.499997 16.65 0.499997H6.31667C5.46063 0.499997 4.76667 1.14918 4.76667 1.95V5.81666C4.76685 6.287 5.01153 6.72787 5.42265 6.99863C5.83376 7.26938 6.35995 7.33619 6.83333 7.17773V13.0667H4.76667ZM12 28.5333V27.5667H19.2333V28.5333H12ZM21.8167 8.23333C23.0944 8.23478 24.2998 8.78858 25.0821 9.73365C25.8644 10.6787 26.136 11.909 25.8177 13.0667H24.7379C25.1899 11.8682 24.7532 10.5341 23.6612 9.77797C22.5693 9.02185 21.0778 9.02071 19.9846 9.77516C19.6478 9.59508 19.2881 9.45542 18.914 9.3595C19.6842 8.63967 20.728 8.23471 21.8167 8.23333ZM23.6023 13.0667H22.3029C22.1798 12.044 21.672 11.0955 20.8701 10.3909C21.6828 9.99609 22.6766 10.1506 23.3091 10.77C23.9417 11.3895 24.0611 12.3253 23.6023 13.0667ZM16.1333 1.46666H16.65C16.9353 1.46666 17.1667 1.68306 17.1667 1.95V9.2319C16.814 9.27065 16.4672 9.34737 16.1333 9.46051V1.46666ZM15.875 10.6234C16.9131 10.0623 18.1811 10.0194 19.2597 10.5089C20.3384 10.9984 21.0873 11.9566 21.2587 13.0667H20.215C19.9705 11.9403 18.9119 11.1309 17.6833 11.1309C16.4548 11.1309 15.3962 11.9403 15.1517 13.0667H14.107C14.2692 12.0434 14.9197 11.1444 15.875 10.6234ZM19.1383 13.0667H16.2284C16.4455 12.489 17.0288 12.1025 17.6833 12.1025C18.3379 12.1025 18.9211 12.489 19.1383 13.0667ZM12 1.46666H13.0333C13.7247 1.48049 13.2647 1.48334 13.55 1.48334C13.8353 1.48334 13.8331 1.46666 14.0667 1.46666H15.1V9.94965C14.71 10.1942 14.3617 10.4924 14.0667 10.8341C13.7413 11 14.0667 10.8341 13.7579 11.0167C13.4726 11.0167 13.5 11 13.2413 11.5L13.0333 13.0667H12V1.46666ZM8.9 1.46666H9.6492C10.3133 1.43332 9.13132 1.48334 9.41667 1.48334C9.70201 1.48334 9.50028 1.46666 9.93333 1.46666H10.9667V13.0667H9.93333H9.90757C9.74127 13.0667 9.70201 13.0667 9.41667 13.0667C9.13132 13.0667 9.1219 13.0755 9.16705 13.0667H8.9H7.86667C7.86667 0.901647 7.72414 1.87175 7.72414 1.5L8.9 1.46666ZM6.31667 6.3C6.03283 6.29661 5.80362 6.08219 5.8 5.81666V1.95C5.8 1.68306 6.03132 1.46666 6.31667 1.46666C6.60201 1.46666 6.83333 1.68306 6.83333 1.95V5.81666C6.83333 6.0836 6.60201 6.3 6.31667 6.3ZM26.4667 14.0333V15H15.6167C15.3313 15 15.1 15.2164 15.1 15.4833C15.1 15.7503 15.3313 15.9667 15.6167 15.9667H26.4667V20.3167C26.4624 23.7852 23.4577 26.596 19.75 26.6H11.4833C7.77559 26.596 4.77094 23.7852 4.76667 20.3167V15.9667H13.55C13.8353 15.9667 14.0667 15.7503 14.0667 15.4833C14.0667 15.2164 13.8353 15 13.55 15H4.76667V14.0333H26.4667Z" fill="#282828"/>
<path d="M11.3667 21.2833C11.3667 23.4188 13.2173 25.15 15.5 25.15C17.7828 25.15 19.6334 23.4188 19.6334 21.2833C19.6334 19.1478 17.7828 17.4167 15.5 17.4167C13.2183 17.4191 11.3693 19.1488 11.3667 21.2833ZM15.5 18.3833C17.2121 18.3833 18.6 19.6817 18.6 21.2833C18.6 22.885 17.2121 24.1833 15.5 24.1833C13.788 24.1833 12.4 22.885 12.4 21.2833C12.4017 19.6824 13.7887 18.3849 15.5 18.3833Z" fill="#282828"/>
</g>
<defs>
<clipPath id="clip0_514_128">
<rect width="31" height="29" fill="white" transform="translate(0 0.5)"/>
</clipPath>
</defs>
</svg>
